<svg width="371" height="364" viewBox="0 0 371 364" fill="none" xmlns="http://www.w3.org/2000/svg">
<g filter="url(#filter0_b_229_1305)">
<rect x="49" y="16" width="272" height="332" rx="15" fill="url(#paint0_linear_229_1305)"/>
</g>
<path d="M123.007 315.37L129.637 295.3H134.467L141.067 315.37L140.677 316H138.127L136.567 311.08H127.537L125.947 316H123.427L123.007 315.37ZM128.407 308.32H135.697L132.367 298.06H131.737L128.407 308.32ZM143.846 311.29V293.8H146.756V311.59C146.756 312.93 147.436 313.65 148.796 313.75V316.27C145.496 316.27 143.846 314.61 143.846 311.29ZM151.928 311.38V304.93C151.928 301.87 153.468 300.34 156.548 300.34H165.068V317.38C165.068 320.46 163.528 322 160.448 322H154.568L153.188 320.98V319.45H160.388C161.568 319.45 162.158 318.86 162.158 317.68V316H156.548C153.468 316 151.928 314.46 151.928 311.38ZM154.838 311.68C154.838 312.86 155.428 313.45 156.608 313.45H162.158V302.89H156.608C155.428 302.89 154.838 303.47 154.838 304.63V311.68ZM169.449 311.38V304.93C169.449 301.87 170.979 300.34 174.039 300.34H178.239C181.299 300.34 182.829 301.87 182.829 304.93V311.38C182.829 314.46 181.299 316 178.239 316H174.039C170.979 316 169.449 314.46 169.449 311.38ZM172.359 311.68C172.359 312.86 172.949 313.45 174.129 313.45H178.179C179.339 313.45 179.919 312.86 179.919 311.68V304.63C179.919 303.47 179.339 302.89 178.179 302.89H174.129C172.949 302.89 172.359 303.47 172.359 304.63V311.68ZM187.147 316V302.2C187.847 300.96 189.177 300.34 191.137 300.34H194.227L195.607 301.36V302.89H191.707C190.927 302.89 190.377 303.09 190.057 303.49V316H187.147ZM202.209 316C199.129 316 197.589 314.47 197.589 311.41C197.589 308.35 199.129 306.82 202.209 306.82H207.279V304.63C207.279 303.47 206.699 302.89 205.539 302.89H199.119V301.36L200.499 300.34H205.599C208.659 300.34 210.189 301.87 210.189 304.93V316H202.209ZM200.499 311.68C200.499 312.86 201.089 313.45 202.269 313.45H207.279V309.1H202.269C201.089 309.1 200.499 309.69 200.499 310.87V311.68ZM214.747 316V300.34H223.237C226.297 300.34 227.827 301.87 227.827 304.93V316H224.917V304.63C224.917 303.47 224.337 302.89 223.177 302.89H217.657V316H214.747ZM232.144 311.38V304.93C232.144 301.87 233.674 300.34 236.734 300.34H242.314V293.8H245.224V316H236.734C233.674 316 232.144 314.46 232.144 311.38ZM235.054 311.68C235.054 312.86 235.644 313.45 236.824 313.45H242.314V302.89H236.824C235.644 302.89 235.054 303.47 235.054 304.63V311.68Z" fill="white"/>
<g filter="url(#filter1_b_229_1305)">
<circle cx="185.5" cy="152.5" r="101.5" fill="url(#paint1_linear_229_1305)"/>
</g>
<path d="M232 211.98H214.911L203.813 166.976L179.951 211.985H160.873L197.753 142.316L191.818 118.129L142.087 212H123L186.024 93H202.733L210.05 122.566H227.29L215.519 144.878L232 211.98Z" fill="white"/>
<defs>
<filter id="filter0_b_229_1305" x="29" y="-4" width="312" height="372" filterUnits="userSpaceOnUse" color-interpolation-filters="sRGB">
<feFlood flood-opacity="0" result="BackgroundImageFix"/>
<feGaussianBlur in="BackgroundImageFix" stdDeviation="10"/>
<feComposite in2="SourceAlpha" operator="in" result="effect1_backgroundBlur_229_1305"/>
<feBlend mode="normal" in="SourceGraphic" in2="effect1_backgroundBlur_229_1305" result="shape"/>
</filter>
<filter id="filter1_b_229_1305" x="64" y="31" width="243" height="243" filterUnits="userSpaceOnUse" color-interpolation-filters="sRGB">
<feFlood flood-opacity="0" result="BackgroundImageFix"/>
<feGaussianBlur in="BackgroundImageFix" stdDeviation="10"/>
<feComposite in2="SourceAlpha" operator="in" result="effect1_backgroundBlur_229_1305"/>
<feBlend mode="normal" in="SourceGraphic" in2="effect1_backgroundBlur_229_1305" result="shape"/>
</filter>
<linearGradient id="paint0_linear_229_1305" x1="49" y1="16" x2="310.771" y2="355.878" gradientUnits="userSpaceOnUse">
<stop stop-color="white" stop-opacity="0.1"/>
<stop offset="1" stop-color="white" stop-opacity="0.05"/>
</linearGradient>
<linearGradient id="paint1_linear_229_1305" x1="84" y1="51" x2="233.425" y2="287.806" gradientUnits="userSpaceOnUse">
<stop stop-color="white" stop-opacity="0.1"/>
<stop offset="1" stop-color="white" stop-opacity="0.05"/>
</linearGradient>
</defs>
</svg>
