<svg width="261" height="70" viewBox="0 0 261 70" fill="none" xmlns="http://www.w3.org/2000/svg">
<path d="M7.87891 0H18.384V8.09255V61.5034V69.596H7.87891V61.5034H13.1314V8.09255H7.87891V0Z" fill="url(#paint0_linear_2_5053)"/>
<rect y="13.1328" width="5.25253" height="44.6465" fill="#AD1AAF"/>
<rect width="224" height="70" transform="translate(18.3848)" fill="#AD1AAF"/>
<path d="M112.91 41V25.82H119.928C122.23 25.82 123.382 26.9787 123.382 29.296V30.748C123.382 31.2467 123.235 31.672 122.942 32.024L122.172 32.948L123.096 33.718C123.58 34.114 123.822 34.7007 123.822 35.478V37.524C123.822 39.8413 122.67 41 120.368 41H112.91ZM115.132 38.976H120.346C121.182 38.976 121.6 38.5653 121.6 37.744V35.346C121.6 34.51 121.182 34.092 120.346 34.092H115.132V38.976ZM115.132 32.068H119.906C120.742 32.068 121.16 31.65 121.16 30.814V29.076C121.16 28.2547 120.742 27.844 119.906 27.844H115.132V32.068ZM126.824 37.612V29.516H128.958V37.832C128.958 38.6973 129.391 39.13 130.256 39.13H134.282V29.516H136.416V41H130.19C127.946 41 126.824 39.8707 126.824 37.612ZM138.548 29.868L138.79 29.516H140.638L143.762 39.13H144.158L147.304 29.516H149.13L149.372 29.868L144.158 45.4H142.31L142.09 45.048L143.52 41H142.31L138.548 29.868Z" fill="white"/>
<path d="M252.889 0H242.384V8.09255V61.5034V69.596H252.889V61.5034H247.636V8.09255H252.889V0Z" fill="url(#paint1_linear_2_5053)"/>
<rect width="5.25253" height="42.0202" transform="matrix(-1 0 0 1 260.768 14.4453)" fill="#AD1AAF"/>
<defs>
<linearGradient id="paint0_linear_2_5053" x1="44.6466" y1="6.47402" x2="258.853" y2="48.8354" gradientUnits="userSpaceOnUse">
<stop stop-color="#AD1AAF"/>
<stop offset="0.619792" stop-color="#AD1AAF"/>
<stop offset="1" stop-color="#AD1AAF"/>
</linearGradient>
<linearGradient id="paint1_linear_2_5053" x1="216.121" y1="6.47402" x2="1.91433" y2="48.8354" gradientUnits="userSpaceOnUse">
<stop stop-color="#AD1AAF"/>
<stop offset="0.619792" stop-color="#AD1AAF"/>
<stop offset="1" stop-color="#AD1AAF"/>
</linearGradient>
</defs>
</svg>
