<svg width="224" height="70" viewBox="0 0 224 70" fill="none" xmlns="http://www.w3.org/2000/svg">
<rect y="14.5283" width="4.59487" height="42.2642" fill="#AD1AAF"/>
<rect x="5.5" y="0.5" width="213.81" height="69" fill="#AD1AAF" fill-opacity="0.05" stroke="#AD1AAF"/>
<path d="M79.174 37.524V29.296C79.174 26.9787 80.3253 25.82 82.628 25.82H88.744L89.866 26.7V27.844H82.65C81.814 27.844 81.396 28.2547 81.396 29.076V37.744C81.396 38.5653 81.814 38.976 82.65 38.976H89.866V40.12L88.744 41H82.628C80.3253 41 79.174 39.8413 79.174 37.524ZM92.5997 41V30.88C93.113 29.9707 94.0883 29.516 95.5257 29.516H97.7917L98.8037 30.264V31.386H95.9437C95.3717 31.386 94.9683 31.5327 94.7337 31.826V41H92.5997ZM100.912 37.612V32.882C100.912 30.638 102.034 29.516 104.278 29.516H107.138C109.382 29.516 110.504 30.638 110.504 32.882V36.05H103.046V37.832C103.046 38.6973 103.479 39.13 104.344 39.13H110.064V40.252L109.074 41H104.278C102.034 41 100.912 39.8707 100.912 37.612ZM103.046 34.378H108.37V32.662C108.37 31.8113 107.945 31.386 107.094 31.386H104.344C103.479 31.386 103.046 31.8113 103.046 32.662V34.378ZM116.536 41C114.277 41 113.148 39.878 113.148 37.634C113.148 35.39 114.277 34.268 116.536 34.268H120.254V32.662C120.254 31.8113 119.829 31.386 118.978 31.386H114.27V30.264L115.282 29.516H119.022C121.266 29.516 122.388 30.638 122.388 32.882V41H116.536ZM115.282 37.832C115.282 38.6973 115.715 39.13 116.58 39.13H120.254V35.94H116.58C115.715 35.94 115.282 36.3727 115.282 37.238V37.832ZM125.643 37.612V25.82H127.777V29.516H131.847V31.386H127.777V37.832C127.777 38.6973 128.209 39.13 129.075 39.13H132.067V40.252L131.055 41H129.009C126.765 41 125.643 39.8707 125.643 37.612ZM134.406 37.612V32.882C134.406 30.638 135.528 29.516 137.772 29.516H140.632C142.876 29.516 143.998 30.638 143.998 32.882V36.05H136.54V37.832C136.54 38.6973 136.973 39.13 137.838 39.13H143.558V40.252L142.568 41H137.772C135.528 41 134.406 39.8707 134.406 37.612ZM136.54 34.378H141.864V32.662C141.864 31.8113 141.439 31.386 140.588 31.386H137.838C136.973 31.386 136.54 31.8113 136.54 32.662V34.378Z" fill="white"/>
<rect width="4.59487" height="42.2642" transform="matrix(-1 0 0 1 224 14.5283)" fill="#AD1AAF"/>
</svg>
