<svg width="213" height="43" viewBox="0 0 213 43" fill="none" xmlns="http://www.w3.org/2000/svg">
<path d="M6.5 0H14.5V5V38V43H6.5V38H10.5V5H6.5V0Z" fill="url(#paint0_linear_218_1082)"/>
<rect x="0.5" y="10" width="4" height="22" fill="#AD1AAF"/>
<rect width="184" height="43" transform="translate(14.5)" fill="#AD1AAF"/>
<path d="M32.4365 27V14.58H37.2605C40.3565 14.58 41.9045 16.14 41.9045 19.26V22.32C41.9045 25.44 40.3565 27 37.2605 27H32.4365ZM34.2545 25.344H37.3505C39.1745 25.344 40.0865 24.432 40.0865 22.608V18.972C40.0865 17.148 39.1745 16.236 37.3505 16.236H34.2545V25.344ZM44.4541 15.912V14.004H46.3261V15.912H44.4541ZM44.5261 27V17.604H46.2721V27H44.5261ZM48.7188 26.388V25.47H52.8768C53.5848 25.47 53.9388 25.11 53.9388 24.39C53.9388 23.646 53.6508 23.226 53.0748 23.13L51.0048 22.788C49.4808 22.524 48.7188 21.684 48.7188 20.268C48.7188 18.492 49.6428 17.604 51.4908 17.604H54.4248L55.2528 18.216V19.134H51.5268C50.8068 19.134 50.4468 19.494 50.4468 20.214C50.4468 20.886 50.7468 21.276 51.3468 21.384L53.4348 21.726C54.9348 21.978 55.6848 22.842 55.6848 24.318C55.6848 26.106 54.7548 27 52.8948 27H49.5468L48.7188 26.388ZM57.97 24.228V20.358C57.97 18.522 58.888 17.604 60.724 17.604H64.198L65.026 18.216V19.134H60.778C60.07 19.134 59.716 19.482 59.716 20.178V24.408C59.716 25.116 60.07 25.47 60.778 25.47H65.026V26.388L64.198 27H60.724C58.888 27 57.97 26.076 57.97 24.228ZM67.1106 24.228V20.358C67.1106 18.522 68.0286 17.604 69.8646 17.604H72.3846C74.2206 17.604 75.1386 18.522 75.1386 20.358V24.228C75.1386 26.076 74.2206 27 72.3846 27H69.8646C68.0286 27 67.1106 26.076 67.1106 24.228ZM68.8566 24.408C68.8566 25.116 69.2106 25.47 69.9186 25.47H72.3486C73.0446 25.47 73.3926 25.116 73.3926 24.408V20.178C73.3926 19.482 73.0446 19.134 72.3486 19.134H69.9186C69.2106 19.134 68.8566 19.482 68.8566 20.178V24.408ZM77.8015 27V17.604H82.8955C84.7315 17.604 85.6495 18.522 85.6495 20.358V27H83.9035V20.178C83.9035 19.482 83.5555 19.134 82.8595 19.134H79.5475V27H77.8015ZM88.3835 27V17.604H93.4775C95.3135 17.604 96.2315 18.522 96.2315 20.358V27H94.4855V20.178C94.4855 19.482 94.1375 19.134 93.4415 19.134H90.1295V27H88.3835ZM98.8215 24.228V20.358C98.8215 18.522 99.7395 17.604 101.576 17.604H103.916C105.752 17.604 106.67 18.522 106.67 20.358V22.95H100.568V24.408C100.568 25.116 100.922 25.47 101.63 25.47H106.31V26.388L105.5 27H101.576C99.7395 27 98.8215 26.076 98.8215 24.228ZM100.568 21.582H104.924V20.178C104.924 19.482 104.576 19.134 103.88 19.134H101.63C100.922 19.134 100.568 19.482 100.568 20.178V21.582ZM109.193 24.228V20.358C109.193 18.522 110.111 17.604 111.947 17.604H115.421L116.249 18.216V19.134H112.001C111.293 19.134 110.939 19.482 110.939 20.178V24.408C110.939 25.116 111.293 25.47 112.001 25.47H116.249V26.388L115.421 27H111.947C110.111 27 109.193 26.076 109.193 24.228ZM118.405 24.228V14.58H120.151V17.604H123.481V19.134H120.151V24.408C120.151 25.116 120.505 25.47 121.213 25.47H123.661V26.388L122.833 27H121.159C119.323 27 118.405 26.076 118.405 24.228ZM129.162 14.958L129.432 14.58H130.908L133.338 25.344H133.554L136.11 15.894H137.928L140.466 25.344H140.7L143.112 14.58H144.588L144.858 14.958L142.122 27H139.152L137.01 18.99L134.886 27H131.916L129.162 14.958ZM148.501 27C146.653 27 145.729 26.082 145.729 24.246C145.729 22.41 146.653 21.492 148.501 21.492H151.543V20.178C151.543 19.482 151.195 19.134 150.499 19.134H146.647V18.216L147.475 17.604H150.535C152.371 17.604 153.289 18.522 153.289 20.358V27H148.501ZM147.475 24.408C147.475 25.116 147.829 25.47 148.537 25.47H151.543V22.86H148.537C147.829 22.86 147.475 23.214 147.475 23.922V24.408ZM155.952 24.174V13.68H157.698V24.354C157.698 25.158 158.106 25.59 158.922 25.65V27.162C156.942 27.162 155.952 26.166 155.952 24.174ZM160.909 24.174V13.68H162.655V24.354C162.655 25.158 163.063 25.59 163.879 25.65V27.162C161.899 27.162 160.909 26.166 160.909 24.174ZM165.794 24.228V20.358C165.794 18.522 166.712 17.604 168.548 17.604H170.888C172.724 17.604 173.642 18.522 173.642 20.358V22.95H167.54V24.408C167.54 25.116 167.894 25.47 168.602 25.47H173.282V26.388L172.472 27H168.548C166.712 27 165.794 26.076 165.794 24.228ZM167.54 21.582H171.896V20.178C171.896 19.482 171.548 19.134 170.852 19.134H168.602C167.894 19.134 167.54 19.482 167.54 20.178V21.582ZM176.237 24.228V14.58H177.983V17.604H181.313V19.134H177.983V24.408C177.983 25.116 178.337 25.47 179.045 25.47H181.493V26.388L180.665 27H178.991C177.155 27 176.237 26.076 176.237 24.228Z" fill="white"/>
<path d="M206.5 0H198.5V5V38V43H206.5V38H202.5V5H206.5V0Z" fill="url(#paint1_linear_218_1082)"/>
<rect width="4" height="22" transform="matrix(-1 0 0 1 212.5 10)" fill="#AD1AAF"/>
<defs>
<linearGradient id="paint0_linear_218_1082" x1="34.5" y1="3.99999" x2="194.5" y2="43" gradientUnits="userSpaceOnUse">
<stop stop-color="#AD1AAF"/>
<stop offset="0.619792" stop-color="#AD1AAF"/>
<stop offset="1" stop-color="#AD1AAF"/>
</linearGradient>
<linearGradient id="paint1_linear_218_1082" x1="178.5" y1="3.99999" x2="18.5" y2="43" gradientUnits="userSpaceOnUse">
<stop stop-color="#AD1AAF"/>
<stop offset="0.619792" stop-color="#AD1AAF"/>
<stop offset="1" stop-color="#AD1AAF"/>
</linearGradient>
</defs>
</svg>
