<svg width="149" height="43" viewBox="0 0 149 43" fill="none" xmlns="http://www.w3.org/2000/svg">
<path d="M6.5 0H14.5V5V38V43H6.5V38H10.5V5H6.5V0Z" fill="url(#paint0_linear_218_1082)"/>
<rect x="0.5" y="10" width="4" height="22" fill="#AD1AAF"/>
<rect width="120" height="43" transform="translate(14.5)" fill="#AD1AAF"/>
<path d="M36.4717 27V14.58H41.2957C44.3917 14.58 45.9397 16.14 45.9397 19.26V22.32C45.9397 25.44 44.3917 27 41.2957 27H36.4717ZM38.2897 25.344H41.3857C43.2097 25.344 44.1217 24.432 44.1217 22.608V18.972C44.1217 17.148 43.2097 16.236 41.3857 16.236H38.2897V25.344ZM48.4172 24.228V20.358C48.4172 18.522 49.3352 17.604 51.1712 17.604H53.6912C55.5272 17.604 56.4452 18.522 56.4452 20.358V24.228C56.4452 26.076 55.5272 27 53.6912 27H51.1712C49.3352 27 48.4172 26.076 48.4172 24.228ZM50.1632 24.408C50.1632 25.116 50.5172 25.47 51.2252 25.47H53.6552C54.3512 25.47 54.6992 25.116 54.6992 24.408V20.178C54.6992 19.482 54.3512 19.134 53.6552 19.134H51.2252C50.5172 19.134 50.1632 19.482 50.1632 20.178V24.408ZM58.1181 17.892L58.3341 17.604H59.7741L61.5561 25.47H61.7721L63.8961 17.604H65.8581L67.9821 25.47H68.1981L69.9801 17.604H71.4201L71.6181 17.892L69.5121 27H66.7941L64.8681 19.638L62.9601 27H60.2421L58.1181 17.892ZM73.4519 27V17.604H78.5459C80.3819 17.604 81.2999 18.522 81.2999 20.358V27H79.5539V20.178C79.5539 19.482 79.2059 19.134 78.5099 19.134H75.1979V27H73.4519ZM83.9619 24.174V13.68H85.7079V24.354C85.7079 25.158 86.1159 25.59 86.9319 25.65V27.162C84.9519 27.162 83.9619 26.166 83.9619 24.174ZM88.8469 24.228V20.358C88.8469 18.522 89.7649 17.604 91.6009 17.604H94.1209C95.9569 17.604 96.8749 18.522 96.8749 20.358V24.228C96.8749 26.076 95.9569 27 94.1209 27H91.6009C89.7649 27 88.8469 26.076 88.8469 24.228ZM90.5929 24.408C90.5929 25.116 90.9469 25.47 91.6549 25.47H94.0849C94.7809 25.47 95.1289 25.116 95.1289 24.408V20.178C95.1289 19.482 94.7809 19.134 94.0849 19.134H91.6549C90.9469 19.134 90.5929 19.482 90.5929 20.178V24.408ZM101.806 27C99.9578 27 99.0338 26.082 99.0338 24.246C99.0338 22.41 99.9578 21.492 101.806 21.492H104.848V20.178C104.848 19.482 104.5 19.134 103.804 19.134H99.9518V18.216L100.78 17.604H103.84C105.676 17.604 106.594 18.522 106.594 20.358V27H101.806ZM100.78 24.408C100.78 25.116 101.134 25.47 101.842 25.47H104.848V22.86H101.842C101.134 22.86 100.78 23.214 100.78 23.922V24.408ZM109.185 24.228V20.358C109.185 18.522 110.103 17.604 111.939 17.604H115.287V13.68H117.033V27H111.939C110.103 27 109.185 26.076 109.185 24.228ZM110.931 24.408C110.931 25.116 111.285 25.47 111.993 25.47H115.287V19.134H111.993C111.285 19.134 110.931 19.482 110.931 20.178V24.408Z" fill="white"/>
<path d="M142.5 0H134.5V5V38V43H142.5V38H138.5V5H142.5V0Z" fill="url(#paint1_linear_218_1082)"/>
<rect width="4" height="22" transform="matrix(-1 0 0 1 148.5 10)" fill="#AD1AAF"/>
<defs>
<linearGradient id="paint0_linear_218_1082" x1="34.5" y1="3.99999" x2="194.5" y2="43" gradientUnits="userSpaceOnUse">
<stop stop-color="#AD1AAF"/>
<stop offset="0.619792" stop-color="#AD1AAF"/>
<stop offset="1" stop-color="#AD1AAF"/>
</linearGradient>
<linearGradient id="paint1_linear_218_1082" x1="114.5" y1="3.99999" x2="-45.5" y2="43" gradientUnits="userSpaceOnUse">
<stop stop-color="#AD1AAF"/>
<stop offset="0.619792" stop-color="#AD1AAF"/>
<stop offset="1" stop-color="#AD1AAF"/>
</linearGradient>
</defs>
</svg>
