<svg width="260" height="70" viewBox="0 0 260 70" fill="none" xmlns="http://www.w3.org/2000/svg">
<path d="M7.87891 0H18.384V8.09255V61.5034V69.596H7.87891V61.5034H13.1314V8.09255H7.87891V0Z" fill="url(#paint0_linear_218_1090)"/>
<rect y="13.1313" width="5.25253" height="44.6465" fill="#AD1AAF"/>
<rect width="224" height="70" transform="translate(18)" fill="#AD1AAF"/>
<path d="M93.1352 41V25.82H103.167V27.844H95.3572V32.068H102.507V34.092H95.3572V38.976H103.167V41H93.1352ZM104.9 40.626L108.882 35.148L105.054 29.89L105.23 29.516H107.21L110.092 33.586L112.996 29.516H114.954L115.152 29.89L111.324 35.148L115.284 40.626L115.108 41H113.128L110.092 36.732L107.056 41H105.098L104.9 40.626ZM117.644 45.4V29.516H123.87C126.114 29.516 127.236 30.638 127.236 32.882V37.612C127.236 39.8707 126.114 41 123.87 41H119.778V45.4H117.644ZM119.778 39.13H123.826C124.676 39.13 125.102 38.6973 125.102 37.832V32.662C125.102 31.8113 124.676 31.386 123.826 31.386H119.778V39.13ZM130.403 37.546V24.72H132.537V37.766C132.537 38.7487 133.036 39.2767 134.033 39.35V41.198C131.613 41.198 130.403 39.9807 130.403 37.546ZM136.374 37.612V32.882C136.374 30.638 137.496 29.516 139.74 29.516H142.82C145.064 29.516 146.186 30.638 146.186 32.882V37.612C146.186 39.8707 145.064 41 142.82 41H139.74C137.496 41 136.374 39.8707 136.374 37.612ZM138.508 37.832C138.508 38.6973 138.941 39.13 139.806 39.13H142.776C143.627 39.13 144.052 38.6973 144.052 37.832V32.662C144.052 31.8113 143.627 31.386 142.776 31.386H139.806C138.941 31.386 138.508 31.8113 138.508 32.662V37.832ZM149.353 41V30.88C149.866 29.9707 150.841 29.516 152.279 29.516H154.545L155.557 30.264V31.386H152.697C152.125 31.386 151.721 31.5327 151.487 31.826V41H149.353ZM157.665 37.612V32.882C157.665 30.638 158.787 29.516 161.031 29.516H163.891C166.135 29.516 167.257 30.638 167.257 32.882V36.05H159.799V37.832C159.799 38.6973 160.232 39.13 161.097 39.13H166.817V40.252L165.827 41H161.031C158.787 41 157.665 39.8707 157.665 37.612ZM159.799 34.378H165.123V32.662C165.123 31.8113 164.698 31.386 163.847 31.386H161.097C160.232 31.386 159.799 31.8113 159.799 32.662V34.378Z" fill="white"/>
<path d="M252.121 0H241.616V8.09255V61.5034V69.596H252.121V61.5034H246.869V8.09255H252.121V0Z" fill="url(#paint1_linear_218_1090)"/>
<rect width="5.25253" height="42.0202" transform="matrix(-1 0 0 1 260 14.4443)" fill="#AD1AAF"/>
<defs>
<linearGradient id="paint0_linear_218_1090" x1="44.6466" y1="6.47402" x2="258.853" y2="48.8354" gradientUnits="userSpaceOnUse">
<stop stop-color="#AD1AAF"/>
<stop offset="0.619792" stop-color="#AD1AAF"/>
<stop offset="1" stop-color="#AD1AAF"/>
</linearGradient>
<linearGradient id="paint1_linear_218_1090" x1="215.353" y1="6.47402" x2="1.14675" y2="48.8354" gradientUnits="userSpaceOnUse">
<stop stop-color="#AD1AAF"/>
<stop offset="0.619792" stop-color="#AD1AAF"/>
<stop offset="1" stop-color="#AD1AAF"/>
</linearGradient>
</defs>
</svg>
