<svg width="371" height="364" viewBox="0 0 371 364" fill="none" xmlns="http://www.w3.org/2000/svg">
<g filter="url(#filter0_b_229_1305)">
<rect x="49" y="16" width="272" height="332" rx="15" fill="url(#paint0_linear_229_1305)"/>
</g>
<path d="M95.3644 311.26V300.04C95.3644 296.88 96.9344 295.3 100.074 295.3H109.014L110.544 296.5V298.06H100.104C98.9644 298.06 98.3944 298.62 98.3944 299.74V311.56C98.3944 312.68 98.9644 313.24 100.104 313.24H108.114V306.58H103.344V303.82H111.144V316H100.074C96.9344 316 95.3644 314.42 95.3644 311.26ZM115.281 311.38V304.93C115.281 301.87 116.811 300.34 119.871 300.34H124.071C127.131 300.34 128.661 301.87 128.661 304.93V311.38C128.661 314.46 127.131 316 124.071 316H119.871C116.811 316 115.281 314.46 115.281 311.38ZM118.191 311.68C118.191 312.86 118.781 313.45 119.961 313.45H124.011C125.171 313.45 125.751 312.86 125.751 311.68V304.63C125.751 303.47 125.171 302.89 124.011 302.89H119.961C118.781 302.89 118.191 303.47 118.191 304.63V311.68ZM132.859 311.38V304.93C132.859 301.87 134.389 300.34 137.449 300.34H141.649C144.709 300.34 146.239 301.87 146.239 304.93V311.38C146.239 314.46 144.709 316 141.649 316H137.449C134.389 316 132.859 314.46 132.859 311.38ZM135.769 311.68C135.769 312.86 136.359 313.45 137.539 313.45H141.589C142.749 313.45 143.329 312.86 143.329 311.68V304.63C143.329 303.47 142.749 302.89 141.589 302.89H137.539C136.359 302.89 135.769 303.47 135.769 304.63V311.68ZM150.377 311.38V304.93C150.377 301.87 151.917 300.34 154.997 300.34H163.517V317.38C163.517 320.46 161.977 322 158.897 322H153.017L151.637 320.98V319.45H158.837C160.017 319.45 160.607 318.86 160.607 317.68V316H154.997C151.917 316 150.377 314.46 150.377 311.38ZM153.287 311.68C153.287 312.86 153.877 313.45 155.057 313.45H160.607V302.89H155.057C153.877 302.89 153.287 303.47 153.287 304.63V311.68ZM168.018 311.29V293.8H170.928V311.59C170.928 312.93 171.608 313.65 172.968 313.75V316.27C169.668 316.27 168.018 314.61 168.018 311.29ZM176.16 311.38V304.93C176.16 301.87 177.69 300.34 180.75 300.34H184.65C187.71 300.34 189.24 301.87 189.24 304.93V309.25H179.07V311.68C179.07 312.86 179.66 313.45 180.84 313.45H188.64V314.98L187.29 316H180.75C177.69 316 176.16 314.46 176.16 311.38ZM179.07 306.97H186.33V304.63C186.33 303.47 185.75 302.89 184.59 302.89H180.84C179.66 302.89 179.07 303.47 179.07 304.63V306.97ZM200.892 311.26V300.04C200.892 296.88 202.462 295.3 205.602 295.3H213.942L215.472 296.5V298.06H205.632C204.492 298.06 203.922 298.62 203.922 299.74V311.56C203.922 312.68 204.492 313.24 205.632 313.24H215.472V314.8L213.942 316H205.602C202.462 316 200.892 314.42 200.892 311.26ZM219.199 311.29V293.8H222.109V311.59C222.109 312.93 222.789 313.65 224.149 313.75V316.27C220.849 316.27 219.199 314.61 219.199 311.29ZM227.341 311.38V304.93C227.341 301.87 228.871 300.34 231.931 300.34H236.131C239.191 300.34 240.721 301.87 240.721 304.93V311.38C240.721 314.46 239.191 316 236.131 316H231.931C228.871 316 227.341 314.46 227.341 311.38ZM230.251 311.68C230.251 312.86 230.841 313.45 232.021 313.45H236.071C237.231 313.45 237.811 312.86 237.811 311.68V304.63C237.811 303.47 237.231 302.89 236.071 302.89H232.021C230.841 302.89 230.251 303.47 230.251 304.63V311.68ZM245.039 311.38V300.34H247.949V311.68C247.949 312.86 248.539 313.45 249.719 313.45H255.209V300.34H258.119V316H249.629C246.569 316 245.039 314.46 245.039 311.38ZM262.556 311.38V304.93C262.556 301.87 264.086 300.34 267.146 300.34H272.726V293.8H275.636V316H267.146C264.086 316 262.556 314.46 262.556 311.38ZM265.466 311.68C265.466 312.86 266.056 313.45 267.236 313.45H272.726V302.89H267.236C266.056 302.89 265.466 303.47 265.466 304.63V311.68Z" fill="white"/>
<g filter="url(#filter1_b_229_1305)">
<circle cx="185.5" cy="152.5" r="101.5" fill="url(#paint1_linear_229_1305)"/>
</g>
<path d="M196.798 134.967H199.528L207.308 126.743L207.69 123.251C203.233 119.093 197.847 116.204 192.04 114.858C186.232 113.512 180.197 113.753 174.502 115.558C168.808 117.363 163.643 120.673 159.495 125.175C155.347 129.676 152.353 135.221 150.797 141.286C151.664 140.91 152.624 140.85 153.527 141.113L169.088 138.4C169.088 138.4 169.88 137.015 170.289 137.102C173.623 133.231 178.231 130.854 183.169 130.457C188.107 130.06 193.002 131.673 196.852 134.967H196.798Z" fill="#EA4335"/>
<path d="M218.392 141.286C216.604 134.325 212.932 128.067 207.827 123.28L196.907 134.822C199.183 136.788 201.007 139.274 202.241 142.093C203.475 144.912 204.088 147.991 204.032 151.097V153.146C205.309 153.146 206.572 153.411 207.751 153.928C208.931 154.444 210.002 155.201 210.904 156.155C211.807 157.108 212.523 158.241 213.011 159.487C213.5 160.734 213.751 162.069 213.751 163.418C213.751 164.767 213.5 166.103 213.011 167.35C212.523 168.596 211.807 169.728 210.904 170.682C210.002 171.636 208.931 172.393 207.751 172.909C206.572 173.425 205.309 173.691 204.032 173.691H184.595L182.656 175.769V188.09L184.595 190.139H204.032C209.46 190.184 214.757 188.381 219.141 184.996C223.524 181.612 226.76 176.826 228.371 171.347C229.981 165.868 229.88 159.987 228.083 154.573C226.286 149.159 222.888 144.5 218.392 141.286Z" fill="#4285F4"/>
<path d="M165.128 190.024H184.566V173.576H165.128C163.743 173.575 162.374 173.261 161.115 172.652L158.385 173.547L150.55 181.771L149.867 184.656C154.261 188.163 159.622 190.049 165.128 190.024Z" fill="#34A853"/>
<path d="M165.129 136.669C159.862 136.702 154.737 138.473 150.469 141.735C146.201 144.997 143.003 149.586 141.322 154.862C139.641 160.138 139.561 165.837 141.093 171.163C142.626 176.489 145.693 181.176 149.868 184.57L161.143 172.653C159.71 171.968 158.456 170.927 157.488 169.618C156.519 168.308 155.866 166.77 155.584 165.135C155.301 163.5 155.399 161.818 155.867 160.231C156.335 158.645 157.161 157.202 158.272 156.027C159.384 154.852 160.749 153.979 162.25 153.484C163.751 152.989 165.343 152.887 166.89 153.185C168.436 153.484 169.891 154.174 171.13 155.198C172.369 156.221 173.354 157.547 174.001 159.061L185.276 147.144C182.91 143.874 179.86 141.227 176.365 139.409C172.869 137.592 169.024 136.654 165.129 136.669Z" fill="#FBBC05"/>
<defs>
<filter id="filter0_b_229_1305" x="29" y="-4" width="312" height="372" filterUnits="userSpaceOnUse" color-interpolation-filters="sRGB">
<feFlood flood-opacity="0" result="BackgroundImageFix"/>
<feGaussianBlur in="BackgroundImageFix" stdDeviation="10"/>
<feComposite in2="SourceAlpha" operator="in" result="effect1_backgroundBlur_229_1305"/>
<feBlend mode="normal" in="SourceGraphic" in2="effect1_backgroundBlur_229_1305" result="shape"/>
</filter>
<filter id="filter1_b_229_1305" x="64" y="31" width="243" height="243" filterUnits="userSpaceOnUse" color-interpolation-filters="sRGB">
<feFlood flood-opacity="0" result="BackgroundImageFix"/>
<feGaussianBlur in="BackgroundImageFix" stdDeviation="10"/>
<feComposite in2="SourceAlpha" operator="in" result="effect1_backgroundBlur_229_1305"/>
<feBlend mode="normal" in="SourceGraphic" in2="effect1_backgroundBlur_229_1305" result="shape"/>
</filter>
<linearGradient id="paint0_linear_229_1305" x1="49" y1="16" x2="310.771" y2="355.878" gradientUnits="userSpaceOnUse">
<stop stop-color="white" stop-opacity="0.1"/>
<stop offset="1" stop-color="white" stop-opacity="0.05"/>
</linearGradient>
<linearGradient id="paint1_linear_229_1305" x1="84" y1="51" x2="233.425" y2="287.806" gradientUnits="userSpaceOnUse">
<stop stop-color="white" stop-opacity="0.1"/>
<stop offset="1" stop-color="white" stop-opacity="0.05"/>
</linearGradient>
</defs>
</svg>
