<svg width="1516" height="192" viewBox="0 0 1516 192" fill="none" xmlns="http://www.w3.org/2000/svg">
<g filter="url(#filter0_b_218_1029)">
<circle cx="84" cy="53" r="53" fill="url(#paint0_linear_218_1029)"/>
</g>
<path d="M102.666 48.9997H101.333V40.9997C101.333 40.646 101.192 40.3069 100.942 40.0569C100.692 39.8068 100.353 39.6663 99.9992 39.6663H67.9992C67.6835 39.6715 67.3762 39.5644 67.132 39.3642C66.8879 39.164 66.7227 38.8836 66.6659 38.573V38.093C66.7227 37.7824 66.8879 37.502 67.132 37.3018C67.3762 37.1016 67.6835 36.9945 67.9992 36.9997H99.4392C99.7928 36.9997 100.132 36.8592 100.382 36.6091C100.632 36.3591 100.773 36.02 100.773 35.6663C100.773 35.3127 100.632 34.9736 100.382 34.7235C100.132 34.4735 99.7928 34.333 99.4392 34.333H67.9992C66.9383 34.333 65.9209 34.7544 65.1708 35.5046C64.4206 36.2547 63.9992 37.2721 63.9992 38.333C63.9898 38.4929 63.9898 38.6531 63.9992 38.813V66.2397C64.0044 66.9576 64.151 67.6674 64.4306 68.3286C64.7102 68.9899 65.1173 69.5896 65.6286 70.0935C66.1399 70.5974 66.7455 70.9957 67.4108 71.2655C68.0761 71.5354 68.788 71.6716 69.5059 71.6663H99.9992C100.353 71.6663 100.692 71.5259 100.942 71.2758C101.192 71.0258 101.333 70.6866 101.333 70.333V62.333H102.666C103.019 62.333 103.359 62.1925 103.609 61.9425C103.859 61.6924 103.999 61.3533 103.999 60.9997V50.333C103.999 49.9794 103.859 49.6402 103.609 49.3902C103.359 49.1401 103.019 48.9997 102.666 48.9997ZM98.6659 68.9997H69.5059C68.7643 69.0068 68.0498 68.7209 67.518 68.204C66.9861 67.6871 66.6799 66.9812 66.6659 66.2397V42.173C67.0987 42.2984 67.549 42.3525 67.9992 42.333H98.6659V48.9997H89.3325C87.5644 48.9997 85.8687 49.702 84.6185 50.9523C83.3682 52.2025 82.6659 53.8982 82.6659 55.6663C82.6659 57.4344 83.3682 59.1301 84.6185 60.3804C85.8687 61.6306 87.5644 62.333 89.3325 62.333H98.6659V68.9997ZM101.333 59.6663H89.3325C88.2717 59.6663 87.2543 59.2449 86.5041 58.4948C85.754 57.7446 85.3325 56.7272 85.3325 55.6663C85.3325 54.6055 85.754 53.5881 86.5041 52.8379C87.2543 52.0878 88.2717 51.6663 89.3325 51.6663H101.333V59.6663Z" fill="#F81DFB"/>
<path d="M90.6797 57.667C91.7843 57.667 92.6797 56.7716 92.6797 55.667C92.6797 54.5624 91.7843 53.667 90.6797 53.667C89.5751 53.667 88.6797 54.5624 88.6797 55.667C88.6797 56.7716 89.5751 57.667 90.6797 57.667Z" fill="#908294"/>
<path d="M1.92 154.328V145.112C1.92 142.664 3.144 141.44 5.592 141.44H12.36L13.44 142.28V143.264H5.568C4.48 143.264 3.936 143.808 3.936 144.896V154.544C3.936 155.632 4.48 156.176 5.568 156.176H13.44V157.16L12.36 158H5.592C3.144 158 1.92 156.776 1.92 154.328ZM16.3764 154.4V149.12C16.3764 146.72 17.5764 145.52 19.9764 145.52H23.3364C25.7364 145.52 26.9364 146.72 26.9364 149.12V154.4C26.9364 156.8 25.7364 158 23.3364 158H19.9764C17.5764 158 16.3764 156.8 16.3764 154.4ZM18.2964 154.64C18.2964 155.76 18.8564 156.32 19.9764 156.32H23.3364C24.4564 156.32 25.0164 155.76 25.0164 154.64V148.88C25.0164 147.76 24.4564 147.2 23.3364 147.2H19.9764C18.8564 147.2 18.2964 147.76 18.2964 148.88V154.64ZM30.5841 158V145.52H37.3041C39.7041 145.52 40.9041 146.72 40.9041 149.12V158H38.9841V148.88C38.9841 147.76 38.4241 147.2 37.3041 147.2H32.5041V158H30.5841ZM44.6466 158V145.52H51.3666C53.7666 145.52 54.9666 146.72 54.9666 149.12V158H53.0466V148.88C53.0466 147.76 52.4866 147.2 51.3666 147.2H46.5666V158H44.6466ZM58.5171 154.4V149.12C58.5171 146.72 59.7171 145.52 62.1171 145.52H65.2371C67.6371 145.52 68.8371 146.72 68.8371 149.12V152.504H60.4371V154.64C60.4371 155.76 60.9971 156.32 62.1171 156.32H68.3571V157.28L67.3971 158H62.1171C59.7171 158 58.5171 156.8 58.5171 154.4ZM60.4371 150.944H66.9171V148.88C66.9171 147.76 66.3571 147.2 65.2371 147.2H62.1171C60.9971 147.2 60.4371 147.76 60.4371 148.88V150.944ZM72.2983 154.4V149.12C72.2983 146.72 73.4983 145.52 75.8983 145.52H80.6023L81.5623 146.24V147.2H75.8983C74.7783 147.2 74.2183 147.76 74.2183 148.88V154.64C74.2183 155.76 74.7783 156.32 75.8983 156.32H81.5623V157.28L80.6023 158H75.8983C73.4983 158 72.2983 156.8 72.2983 154.4ZM84.4881 154.4V141.44H86.4081V145.52H90.9681V147.2H86.4081V154.64C86.4081 155.76 86.9681 156.32 88.0881 156.32H91.2081V157.28L90.2481 158H88.0881C85.6881 158 84.4881 156.8 84.4881 154.4ZM98.5481 141.872L98.8601 141.44H100.468L103.924 156.176H104.236L107.86 143.264H109.876L113.476 156.176H113.812L117.268 141.44H118.876L119.188 141.872L115.372 158H112.036L108.868 146.528L105.7 158H102.364L98.5481 141.872ZM124.052 158C121.636 158 120.428 156.792 120.428 154.376C120.428 151.96 121.636 150.752 124.052 150.752H128.444V148.88C128.444 147.76 127.884 147.2 126.764 147.2H121.628V146.24L122.588 145.52H126.764C129.164 145.52 130.364 146.72 130.364 149.12V158H124.052ZM122.348 154.64C122.348 155.76 122.908 156.32 124.028 156.32H128.444V152.312H124.028C122.908 152.312 122.348 152.872 122.348 153.992V154.64ZM134.012 154.592V140.24H135.932V154.784C135.932 155.888 136.492 156.472 137.612 156.536V158.192C135.212 158.192 134.012 156.992 134.012 154.592ZM140.246 154.592V140.24H142.166V154.784C142.166 155.888 142.726 156.472 143.846 156.536V158.192C141.446 158.192 140.246 156.992 140.246 154.592ZM146.384 154.4V149.12C146.384 146.72 147.584 145.52 149.984 145.52H153.104C155.504 145.52 156.704 146.72 156.704 149.12V152.504H148.304V154.64C148.304 155.76 148.864 156.32 149.984 156.32H156.224V157.28L155.264 158H149.984C147.584 158 146.384 156.8 146.384 154.4ZM148.304 150.944H154.784V148.88C154.784 147.76 154.224 147.2 153.104 147.2H149.984C148.864 147.2 148.304 147.76 148.304 148.88V150.944ZM160.262 154.4V141.44H162.182V145.52H166.742V147.2H162.182V154.64C162.182 155.76 162.742 156.32 163.862 156.32H166.982V157.28L166.022 158H163.862C161.462 158 160.262 156.8 160.262 154.4Z" fill="white"/>
<path d="M183 82C182.448 82 182 82.4477 182 83C182 83.5523 182.448 84 183 84L183 82ZM354.774 83L349 77.2265L343.227 83L349 88.7735L354.774 83ZM188.929 84C189.481 84 189.929 83.5523 189.929 83C189.929 82.4477 189.481 82 188.929 82L188.929 84ZM200.786 82C200.233 82 199.786 82.4477 199.786 83C199.786 83.5523 200.233 84 200.786 84L200.786 82ZM212.643 84C213.195 84 213.643 83.5523 213.643 83C213.643 82.4477 213.195 82 212.643 82L212.643 84ZM224.5 82C223.948 82 223.5 82.4477 223.5 83C223.5 83.5523 223.948 84 224.5 84L224.5 82ZM236.357 84C236.909 84 237.357 83.5523 237.357 83C237.357 82.4477 236.909 82 236.357 82L236.357 84ZM248.214 82C247.662 82 247.214 82.4477 247.214 83C247.214 83.5523 247.662 84 248.214 84L248.214 82ZM260.071 84C260.624 84 261.071 83.5523 261.071 83C261.071 82.4477 260.624 82 260.071 82L260.071 84ZM271.929 82C271.376 82 270.929 82.4477 270.929 83C270.929 83.5523 271.376 84 271.929 84L271.929 82ZM283.786 84C284.338 84 284.786 83.5523 284.786 83C284.786 82.4477 284.338 82 283.786 82L283.786 84ZM295.643 82C295.091 82 294.643 82.4477 294.643 83C294.643 83.5523 295.091 84 295.643 84L295.643 82ZM307.5 84C308.052 84 308.5 83.5523 308.5 83C308.5 82.4477 308.052 82 307.5 82L307.5 84ZM319.357 82C318.805 82 318.357 82.4477 318.357 83C318.357 83.5523 318.805 84 319.357 84L319.357 82ZM331.214 84C331.767 84 332.214 83.5523 332.214 83C332.214 82.4477 331.767 82 331.214 82L331.214 84ZM343.071 82C342.519 82 342.071 82.4477 342.071 83C342.071 83.5523 342.519 84 343.071 84L343.071 82ZM183 84L188.929 84L188.929 82L183 82L183 84ZM200.786 84L212.643 84L212.643 82L200.786 82L200.786 84ZM224.5 84L236.357 84L236.357 82L224.5 82L224.5 84ZM248.214 84L260.071 84L260.071 82L248.214 82L248.214 84ZM271.929 84L283.786 84L283.786 82L271.929 82L271.929 84ZM295.643 84L307.5 84L307.5 82L295.643 82L295.643 84ZM319.357 84L331.214 84L331.214 82L319.357 82L319.357 84ZM343.071 84L349 84L349 82L343.071 82L343.071 84Z" fill="white"/>
<g filter="url(#filter1_b_218_1029)">
<circle cx="501.5" cy="53" r="53" fill="url(#paint1_linear_218_1029)"/>
</g>
<g clip-path="url(#clip0_218_1029)">
<path d="M485 39.5C484.602 39.5 484.221 39.342 483.939 39.0607C483.658 38.7794 483.5 38.3978 483.5 38C483.5 37.6022 483.658 37.2206 483.939 36.9393C484.221 36.658 484.602 36.5 485 36.5H518C518.398 36.5 518.779 36.658 519.061 36.9393C519.342 37.2206 519.5 37.6022 519.5 38C519.5 38.3978 519.342 38.7794 519.061 39.0607C518.779 39.342 518.398 39.5 518 39.5H485ZM491 33.5C490.602 33.5 490.221 33.342 489.939 33.0607C489.658 32.7794 489.5 32.3978 489.5 32C489.5 31.6022 489.658 31.2206 489.939 30.9393C490.221 30.658 490.602 30.5 491 30.5H512C512.398 30.5 512.779 30.658 513.061 30.9393C513.342 31.2206 513.5 31.6022 513.5 32C513.5 32.3978 513.342 32.7794 513.061 33.0607C512.779 33.342 512.398 33.5 512 33.5H491ZM477.5 68C477.5 69.1935 477.974 70.3381 478.818 71.182C479.662 72.0259 480.807 72.5 482 72.5H521C522.193 72.5 523.338 72.0259 524.182 71.182C525.026 70.3381 525.5 69.1935 525.5 68V47C525.5 45.8065 525.026 44.6619 524.182 43.818C523.338 42.9741 522.193 42.5 521 42.5H482C480.807 42.5 479.662 42.9741 478.818 43.818C477.974 44.6619 477.5 45.8065 477.5 47V68ZM482 69.5C481.602 69.5 481.221 69.342 480.939 69.0607C480.658 68.7794 480.5 68.3978 480.5 68V47C480.5 46.6022 480.658 46.2206 480.939 45.9393C481.221 45.658 481.602 45.5 482 45.5H521C521.398 45.5 521.779 45.658 522.061 45.9393C522.342 46.2206 522.5 46.6022 522.5 47V68C522.5 68.3978 522.342 68.7794 522.061 69.0607C521.779 69.342 521.398 69.5 521 69.5H482Z" fill="#F81DFB"/>
</g>
<path d="M403.808 142.16V151.76C403.808 153.92 403.232 155.544 402.08 156.632C400.928 157.704 399.248 158.24 397.04 158.24C394.832 158.24 393.152 157.704 392 156.632C390.848 155.544 390.272 153.92 390.272 151.76V142.16H393.584V151.616C393.584 152.944 393.864 153.928 394.424 154.568C395 155.208 395.872 155.528 397.04 155.528C398.208 155.528 399.072 155.208 399.632 154.568C400.192 153.928 400.472 152.944 400.472 151.616V142.16H403.808ZM407.216 163.04V146H410.168L410.384 149.816L409.976 149.384C410.12 148.68 410.384 148.056 410.768 147.512C411.168 146.968 411.672 146.544 412.28 146.24C412.888 145.92 413.568 145.76 414.32 145.76C415.296 145.76 416.168 146.008 416.936 146.504C417.704 147 418.304 147.712 418.736 148.64C419.184 149.552 419.408 150.664 419.408 151.976C419.408 153.288 419.184 154.416 418.736 155.36C418.288 156.288 417.672 157 416.888 157.496C416.12 157.992 415.24 158.24 414.248 158.24C413.192 158.24 412.312 157.944 411.608 157.352C410.92 156.76 410.448 156.016 410.192 155.12L410.504 154.616V163.04H407.216ZM413.288 155.72C414.168 155.72 414.856 155.408 415.352 154.784C415.864 154.144 416.12 153.216 416.12 152C416.12 150.784 415.872 149.864 415.376 149.24C414.896 148.6 414.216 148.28 413.336 148.28C412.776 148.28 412.28 148.432 411.848 148.736C411.432 149.024 411.104 149.448 410.864 150.008C410.624 150.552 410.504 151.216 410.504 152C410.504 152.768 410.616 153.432 410.84 153.992C411.064 154.552 411.384 154.984 411.8 155.288C412.232 155.576 412.728 155.72 413.288 155.72ZM425.503 140.744V154.304C425.503 154.864 425.599 155.256 425.791 155.48C425.983 155.704 426.303 155.816 426.751 155.816C427.023 155.816 427.247 155.8 427.423 155.768C427.599 155.72 427.823 155.656 428.095 155.576L427.807 157.736C427.535 157.896 427.191 158.016 426.775 158.096C426.375 158.192 425.975 158.24 425.575 158.24C424.407 158.24 423.551 157.96 423.007 157.4C422.479 156.824 422.215 155.912 422.215 154.664V140.744H425.503ZM435.399 145.76C436.615 145.76 437.679 146.008 438.591 146.504C439.519 147 440.239 147.712 440.751 148.64C441.279 149.568 441.543 150.688 441.543 152C441.543 153.296 441.279 154.416 440.751 155.36C440.239 156.288 439.519 157 438.591 157.496C437.679 157.992 436.615 158.24 435.399 158.24C434.199 158.24 433.135 157.992 432.207 157.496C431.279 157 430.551 156.288 430.023 155.36C429.511 154.416 429.255 153.296 429.255 152C429.255 150.688 429.511 149.568 430.023 148.64C430.551 147.712 431.279 147 432.207 146.504C433.135 146.008 434.199 145.76 435.399 145.76ZM435.399 148.208C434.791 148.208 434.271 148.352 433.839 148.64C433.423 148.912 433.103 149.328 432.879 149.888C432.655 150.448 432.543 151.152 432.543 152C432.543 152.848 432.655 153.552 432.879 154.112C433.103 154.672 433.423 155.096 433.839 155.384C434.271 155.656 434.791 155.792 435.399 155.792C435.991 155.792 436.495 155.656 436.911 155.384C437.343 155.096 437.671 154.672 437.895 154.112C438.119 153.552 438.231 152.848 438.231 152C438.231 151.152 438.119 150.448 437.895 149.888C437.671 149.328 437.343 148.912 436.911 148.64C436.495 148.352 435.991 148.208 435.399 148.208ZM451.064 150.344C451.064 149.656 450.864 149.12 450.464 148.736C450.08 148.352 449.568 148.16 448.928 148.16C448.336 148.16 447.816 148.312 447.368 148.616C446.92 148.92 446.592 149.424 446.384 150.128L443.576 149.264C443.848 148.208 444.44 147.36 445.352 146.72C446.28 146.08 447.52 145.76 449.072 145.76C450.128 145.76 451.048 145.928 451.832 146.264C452.616 146.584 453.224 147.072 453.656 147.728C454.104 148.384 454.328 149.208 454.328 150.2V155.072C454.328 155.68 454.616 155.984 455.192 155.984C455.464 155.984 455.72 155.944 455.96 155.864L455.768 157.904C455.352 158.112 454.832 158.216 454.208 158.216C453.648 158.216 453.144 158.12 452.696 157.928C452.248 157.736 451.896 157.448 451.64 157.064C451.384 156.664 451.256 156.168 451.256 155.576V155.48L451.832 155.384C451.736 155.992 451.472 156.512 451.04 156.944C450.608 157.36 450.08 157.68 449.456 157.904C448.848 158.128 448.216 158.24 447.56 158.24C446.744 158.24 446.04 158.12 445.448 157.88C444.856 157.624 444.4 157.256 444.08 156.776C443.76 156.296 443.6 155.704 443.6 155C443.6 154.104 443.888 153.376 444.464 152.816C445.04 152.24 445.864 151.848 446.936 151.64L451.448 150.728L451.424 152.768L448.544 153.344C448 153.456 447.584 153.608 447.296 153.8C447.024 153.976 446.888 154.272 446.888 154.688C446.888 155.088 447.032 155.392 447.32 155.6C447.624 155.808 447.984 155.912 448.4 155.912C448.736 155.912 449.064 155.872 449.384 155.792C449.704 155.712 449.992 155.584 450.248 155.408C450.504 155.232 450.704 154.992 450.848 154.688C450.992 154.384 451.064 154.016 451.064 153.584V150.344ZM462.494 158.24C461.502 158.24 460.614 157.992 459.83 157.496C459.062 157 458.454 156.288 458.006 155.36C457.574 154.432 457.358 153.32 457.358 152.024C457.358 150.696 457.59 149.568 458.054 148.64C458.518 147.696 459.142 146.984 459.926 146.504C460.726 146.008 461.622 145.76 462.614 145.76C463.67 145.76 464.542 146.064 465.23 146.672C465.918 147.28 466.366 148.064 466.574 149.024L466.262 149.408V140.744H469.55V158H466.598L466.382 154.352L466.79 154.544C466.678 155.296 466.422 155.952 466.022 156.512C465.622 157.056 465.118 157.48 464.51 157.784C463.902 158.088 463.23 158.24 462.494 158.24ZM463.454 155.72C464.03 155.72 464.526 155.576 464.942 155.288C465.358 154.984 465.678 154.544 465.902 153.968C466.142 153.392 466.262 152.704 466.262 151.904C466.262 151.136 466.15 150.488 465.926 149.96C465.702 149.416 465.382 149 464.966 148.712C464.55 148.424 464.062 148.28 463.502 148.28C462.606 148.28 461.902 148.6 461.39 149.24C460.894 149.864 460.646 150.784 460.646 152C460.646 153.216 460.894 154.144 461.39 154.784C461.886 155.408 462.574 155.72 463.454 155.72ZM486.461 141.92C487.901 141.92 489.165 142.168 490.253 142.664C491.341 143.16 492.269 143.896 493.037 144.872L491.189 147.008C490.533 146.176 489.813 145.568 489.029 145.184C488.261 144.784 487.365 144.584 486.341 144.584C485.669 144.584 485.109 144.672 484.661 144.848C484.229 145.024 483.909 145.256 483.701 145.544C483.509 145.832 483.413 146.152 483.413 146.504C483.413 146.936 483.581 147.304 483.917 147.608C484.253 147.896 484.829 148.136 485.645 148.328L488.597 149C490.165 149.352 491.285 149.88 491.957 150.584C492.645 151.272 492.989 152.168 492.989 153.272C492.989 154.312 492.717 155.208 492.173 155.96C491.629 156.696 490.869 157.264 489.893 157.664C488.917 158.048 487.797 158.24 486.533 158.24C485.429 158.24 484.413 158.112 483.485 157.856C482.573 157.584 481.757 157.216 481.037 156.752C480.317 156.288 479.717 155.752 479.237 155.144L481.109 152.912C481.477 153.424 481.933 153.88 482.477 154.28C483.021 154.68 483.637 155 484.325 155.24C485.029 155.464 485.765 155.576 486.533 155.576C487.189 155.576 487.741 155.504 488.189 155.36C488.653 155.2 488.997 154.984 489.221 154.712C489.461 154.424 489.581 154.08 489.581 153.68C489.581 153.264 489.437 152.912 489.149 152.624C488.877 152.32 488.365 152.088 487.613 151.928L484.397 151.208C483.469 150.984 482.669 150.696 481.997 150.344C481.341 149.976 480.837 149.512 480.485 148.952C480.149 148.376 479.981 147.696 479.981 146.912C479.981 145.968 480.237 145.12 480.749 144.368C481.261 143.616 481.997 143.024 482.957 142.592C483.933 142.144 485.101 141.92 486.461 141.92ZM500.035 142.328V154.088C500.035 154.664 500.179 155.088 500.467 155.36C500.771 155.616 501.179 155.744 501.691 155.744C502.091 155.744 502.443 155.688 502.747 155.576C503.051 155.448 503.323 155.28 503.563 155.072L504.091 157.256C503.707 157.56 503.227 157.8 502.651 157.976C502.075 158.152 501.467 158.24 500.827 158.24C500.027 158.24 499.315 158.12 498.691 157.88C498.083 157.64 497.603 157.256 497.251 156.728C496.915 156.2 496.747 155.496 496.747 154.616V143.24L500.035 142.328ZM503.875 146V148.448H494.539V146H503.875ZM511.571 145.76C512.787 145.76 513.851 146.008 514.763 146.504C515.691 147 516.411 147.712 516.923 148.64C517.451 149.568 517.715 150.688 517.715 152C517.715 153.296 517.451 154.416 516.923 155.36C516.411 156.288 515.691 157 514.763 157.496C513.851 157.992 512.787 158.24 511.571 158.24C510.371 158.24 509.307 157.992 508.379 157.496C507.451 157 506.723 156.288 506.195 155.36C505.683 154.416 505.427 153.296 505.427 152C505.427 150.688 505.683 149.568 506.195 148.64C506.723 147.712 507.451 147 508.379 146.504C509.307 146.008 510.371 145.76 511.571 145.76ZM511.571 148.208C510.963 148.208 510.443 148.352 510.011 148.64C509.595 148.912 509.275 149.328 509.051 149.888C508.827 150.448 508.715 151.152 508.715 152C508.715 152.848 508.827 153.552 509.051 154.112C509.275 154.672 509.595 155.096 510.011 155.384C510.443 155.656 510.963 155.792 511.571 155.792C512.163 155.792 512.667 155.656 513.083 155.384C513.515 155.096 513.843 154.672 514.067 154.112C514.291 153.552 514.403 152.848 514.403 152C514.403 151.152 514.291 150.448 514.067 149.888C513.843 149.328 513.515 148.912 513.083 148.64C512.667 148.352 512.163 148.208 511.571 148.208ZM520.466 158V146H523.322L523.538 148.352C523.858 147.52 524.322 146.88 524.93 146.432C525.554 145.984 526.33 145.76 527.258 145.76C527.53 145.76 527.778 145.784 528.002 145.832C528.226 145.88 528.41 145.944 528.554 146.024L528.17 148.784C528.01 148.72 527.81 148.672 527.57 148.64C527.346 148.608 527.05 148.592 526.682 148.592C526.202 148.592 525.738 148.712 525.29 148.952C524.842 149.176 524.474 149.528 524.186 150.008C523.898 150.472 523.754 151.064 523.754 151.784V158H520.466ZM532.247 144.272C531.559 144.272 531.047 144.128 530.711 143.84C530.375 143.536 530.207 143.096 530.207 142.52C530.207 141.928 530.375 141.488 530.711 141.2C531.047 140.896 531.559 140.744 532.247 140.744C532.935 140.744 533.447 140.896 533.783 141.2C534.119 141.488 534.287 141.928 534.287 142.52C534.287 143.096 534.119 143.536 533.783 143.84C533.447 144.128 532.935 144.272 532.247 144.272ZM533.879 146V158H530.591V146H533.879ZM542.933 158.24C541.669 158.24 540.565 157.992 539.621 157.496C538.693 157 537.973 156.288 537.461 155.36C536.949 154.432 536.693 153.312 536.693 152C536.693 150.688 536.949 149.568 537.461 148.64C537.973 147.712 538.685 147 539.597 146.504C540.525 146.008 541.581 145.76 542.765 145.76C543.981 145.76 545.013 146.008 545.861 146.504C546.709 146.984 547.357 147.648 547.805 148.496C548.253 149.328 548.477 150.28 548.477 151.352C548.477 151.672 548.469 151.976 548.453 152.264C548.437 152.552 548.413 152.808 548.381 153.032H538.805V150.752H546.941L545.357 151.328C545.357 150.32 545.125 149.544 544.661 149C544.213 148.456 543.573 148.184 542.741 148.184C542.133 148.184 541.605 148.328 541.157 148.616C540.725 148.904 540.397 149.336 540.173 149.912C539.949 150.472 539.837 151.184 539.837 152.048C539.837 152.896 539.957 153.6 540.197 154.16C540.453 154.704 540.805 155.112 541.253 155.384C541.717 155.656 542.269 155.792 542.909 155.792C543.613 155.792 544.181 155.656 544.613 155.384C545.045 155.112 545.381 154.736 545.621 154.256L548.237 155.264C547.981 155.888 547.589 156.424 547.061 156.872C546.549 157.32 545.933 157.664 545.213 157.904C544.509 158.128 543.749 158.24 542.933 158.24ZM556.063 158.24C554.847 158.24 553.735 158.024 552.727 157.592C551.735 157.16 550.927 156.552 550.303 155.768L552.199 153.848C552.583 154.424 553.095 154.896 553.735 155.264C554.375 155.632 555.135 155.816 556.015 155.816C556.639 155.816 557.135 155.728 557.503 155.552C557.887 155.36 558.079 155.064 558.079 154.664C558.079 154.408 557.991 154.192 557.815 154.016C557.639 153.824 557.287 153.672 556.759 153.56L554.647 153.128C553.255 152.84 552.263 152.408 551.671 151.832C551.095 151.24 550.807 150.48 550.807 149.552C550.807 148.896 550.999 148.28 551.383 147.704C551.783 147.128 552.375 146.664 553.159 146.312C553.943 145.944 554.919 145.76 556.087 145.76C557.287 145.76 558.327 145.952 559.207 146.336C560.103 146.704 560.807 147.256 561.319 147.992L559.351 149.912C558.999 149.352 558.535 148.928 557.959 148.64C557.399 148.336 556.807 148.184 556.183 148.184C555.735 148.184 555.351 148.232 555.031 148.328C554.711 148.424 554.471 148.56 554.311 148.736C554.151 148.896 554.071 149.104 554.071 149.36C554.071 149.616 554.183 149.84 554.407 150.032C554.631 150.208 555.039 150.36 555.631 150.488L558.079 150.992C559.263 151.232 560.111 151.64 560.623 152.216C561.135 152.776 561.391 153.456 561.391 154.256C561.391 155.024 561.183 155.712 560.767 156.32C560.367 156.912 559.767 157.384 558.967 157.736C558.183 158.072 557.215 158.24 556.063 158.24ZM583.541 144.824H574.997V148.856H581.741V151.52H574.997V158H571.685V142.16H583.541V144.824ZM590.298 145.76C591.514 145.76 592.578 146.008 593.49 146.504C594.418 147 595.138 147.712 595.65 148.64C596.178 149.568 596.442 150.688 596.442 152C596.442 153.296 596.178 154.416 595.65 155.36C595.138 156.288 594.418 157 593.49 157.496C592.578 157.992 591.514 158.24 590.298 158.24C589.098 158.24 588.034 157.992 587.106 157.496C586.178 157 585.45 156.288 584.922 155.36C584.41 154.416 584.154 153.296 584.154 152C584.154 150.688 584.41 149.568 584.922 148.64C585.45 147.712 586.178 147 587.106 146.504C588.034 146.008 589.098 145.76 590.298 145.76ZM590.298 148.208C589.69 148.208 589.17 148.352 588.738 148.64C588.322 148.912 588.002 149.328 587.778 149.888C587.554 150.448 587.442 151.152 587.442 152C587.442 152.848 587.554 153.552 587.778 154.112C588.002 154.672 588.322 155.096 588.738 155.384C589.17 155.656 589.69 155.792 590.298 155.792C590.89 155.792 591.394 155.656 591.81 155.384C592.242 155.096 592.57 154.672 592.794 154.112C593.018 153.552 593.13 152.848 593.13 152C593.13 151.152 593.018 150.448 592.794 149.888C592.57 149.328 592.242 148.912 591.81 148.64C591.394 148.352 590.89 148.208 590.298 148.208ZM599.193 158V146H602.049L602.265 148.352C602.585 147.52 603.049 146.88 603.657 146.432C604.281 145.984 605.057 145.76 605.985 145.76C606.257 145.76 606.505 145.784 606.729 145.832C606.953 145.88 607.137 145.944 607.281 146.024L606.897 148.784C606.737 148.72 606.537 148.672 606.297 148.64C606.073 148.608 605.777 148.592 605.409 148.592C604.929 148.592 604.465 148.712 604.017 148.952C603.569 149.176 603.201 149.528 602.913 150.008C602.625 150.472 602.481 151.064 602.481 151.784V158H599.193ZM363.877 170.16V172.824H358.573V186H355.261V172.824H349.933V170.16H363.877ZM369.448 186.24C368.184 186.24 367.08 185.992 366.136 185.496C365.208 185 364.488 184.288 363.976 183.36C363.464 182.432 363.208 181.312 363.208 180C363.208 178.688 363.464 177.568 363.976 176.64C364.488 175.712 365.2 175 366.112 174.504C367.04 174.008 368.096 173.76 369.28 173.76C370.496 173.76 371.528 174.008 372.376 174.504C373.224 174.984 373.872 175.648 374.32 176.496C374.768 177.328 374.992 178.28 374.992 179.352C374.992 179.672 374.984 179.976 374.968 180.264C374.952 180.552 374.928 180.808 374.896 181.032H365.32V178.752H373.456L371.872 179.328C371.872 178.32 371.64 177.544 371.176 177C370.728 176.456 370.088 176.184 369.256 176.184C368.648 176.184 368.12 176.328 367.672 176.616C367.24 176.904 366.912 177.336 366.688 177.912C366.464 178.472 366.352 179.184 366.352 180.048C366.352 180.896 366.472 181.6 366.712 182.16C366.968 182.704 367.32 183.112 367.768 183.384C368.232 183.656 368.784 183.792 369.424 183.792C370.128 183.792 370.696 183.656 371.128 183.384C371.56 183.112 371.896 182.736 372.136 182.256L374.752 183.264C374.496 183.888 374.104 184.424 373.576 184.872C373.064 185.32 372.448 185.664 371.728 185.904C371.024 186.128 370.264 186.24 369.448 186.24ZM379.88 174L383.048 179.256L383.936 179.232L388.736 186H384.92L381.632 180.624L380.672 180.528L376.04 174H379.88ZM388.664 174L384.032 180.456L383.048 180.384L379.544 186H375.824L380.792 179.184L381.728 179.304L384.944 174H388.664ZM395.128 170.328V182.088C395.128 182.664 395.272 183.088 395.56 183.36C395.864 183.616 396.272 183.744 396.784 183.744C397.184 183.744 397.536 183.688 397.84 183.576C398.144 183.448 398.416 183.28 398.656 183.072L399.184 185.256C398.8 185.56 398.32 185.8 397.744 185.976C397.168 186.152 396.56 186.24 395.92 186.24C395.12 186.24 394.408 186.12 393.784 185.88C393.176 185.64 392.696 185.256 392.344 184.728C392.008 184.2 391.84 183.496 391.84 182.616V171.24L395.128 170.328ZM398.968 174V176.448H389.632V174H398.968ZM409.508 178.224V181.056H401.036V178.224H409.508ZM424.018 170.16V172.824H418.714V186H415.402V172.824H410.074V170.16H424.018ZM429.493 173.76C430.709 173.76 431.773 174.008 432.685 174.504C433.613 175 434.333 175.712 434.845 176.64C435.373 177.568 435.637 178.688 435.637 180C435.637 181.296 435.373 182.416 434.845 183.36C434.333 184.288 433.613 185 432.685 185.496C431.773 185.992 430.709 186.24 429.493 186.24C428.293 186.24 427.229 185.992 426.301 185.496C425.373 185 424.645 184.288 424.117 183.36C423.605 182.416 423.349 181.296 423.349 180C423.349 178.688 423.605 177.568 424.117 176.64C424.645 175.712 425.373 175 426.301 174.504C427.229 174.008 428.293 173.76 429.493 173.76ZM429.493 176.208C428.885 176.208 428.365 176.352 427.933 176.64C427.517 176.912 427.197 177.328 426.973 177.888C426.749 178.448 426.637 179.152 426.637 180C426.637 180.848 426.749 181.552 426.973 182.112C427.197 182.672 427.517 183.096 427.933 183.384C428.365 183.656 428.885 183.792 429.493 183.792C430.085 183.792 430.589 183.656 431.005 183.384C431.437 183.096 431.765 182.672 431.989 182.112C432.213 181.552 432.325 180.848 432.325 180C432.325 179.152 432.213 178.448 431.989 177.888C431.765 177.328 431.437 176.912 431.005 176.64C430.589 176.352 430.085 176.208 429.493 176.208ZM447.148 178.224V181.056H438.676V178.224H447.148ZM464.476 186H461.044L459.724 182.136H453.652L452.332 186H448.948L454.732 170.16H458.692L464.476 186ZM454.396 179.688H458.98L456.676 172.776L454.396 179.688ZM470.549 186.24C469.749 186.24 469.029 186.096 468.389 185.808C467.749 185.52 467.237 185.064 466.853 184.44C466.485 183.8 466.301 182.976 466.301 181.968V174H469.589V181.176C469.589 182.104 469.781 182.752 470.165 183.12C470.549 183.472 471.101 183.648 471.821 183.648C472.157 183.648 472.485 183.592 472.805 183.48C473.125 183.352 473.405 183.16 473.645 182.904C473.901 182.648 474.101 182.32 474.245 181.92C474.389 181.504 474.461 181.016 474.461 180.456V174H477.749V186H474.821L474.701 183.912C474.301 184.712 473.749 185.304 473.045 185.688C472.357 186.056 471.525 186.24 470.549 186.24ZM485.744 186.24C484.752 186.24 483.864 185.992 483.08 185.496C482.312 185 481.704 184.288 481.256 183.36C480.824 182.432 480.608 181.32 480.608 180.024C480.608 178.696 480.84 177.568 481.304 176.64C481.768 175.696 482.392 174.984 483.176 174.504C483.976 174.008 484.872 173.76 485.864 173.76C486.92 173.76 487.792 174.064 488.48 174.672C489.168 175.28 489.616 176.064 489.824 177.024L489.512 177.408V168.744H492.8V186H489.848L489.632 182.352L490.04 182.544C489.928 183.296 489.672 183.952 489.272 184.512C488.872 185.056 488.368 185.48 487.76 185.784C487.152 186.088 486.48 186.24 485.744 186.24ZM486.704 183.72C487.28 183.72 487.776 183.576 488.192 183.288C488.608 182.984 488.928 182.544 489.152 181.968C489.392 181.392 489.512 180.704 489.512 179.904C489.512 179.136 489.4 178.488 489.176 177.96C488.952 177.416 488.632 177 488.216 176.712C487.8 176.424 487.312 176.28 486.752 176.28C485.856 176.28 485.152 176.6 484.64 177.24C484.144 177.864 483.896 178.784 483.896 180C483.896 181.216 484.144 182.144 484.64 182.784C485.136 183.408 485.824 183.72 486.704 183.72ZM497.911 172.272C497.223 172.272 496.711 172.128 496.375 171.84C496.039 171.536 495.871 171.096 495.871 170.52C495.871 169.928 496.039 169.488 496.375 169.2C496.711 168.896 497.223 168.744 497.911 168.744C498.599 168.744 499.111 168.896 499.447 169.2C499.783 169.488 499.951 169.928 499.951 170.52C499.951 171.096 499.783 171.536 499.447 171.84C499.111 172.128 498.599 172.272 497.911 172.272ZM499.543 174V186H496.255V174H499.543ZM508.501 173.76C509.717 173.76 510.781 174.008 511.693 174.504C512.621 175 513.341 175.712 513.853 176.64C514.381 177.568 514.645 178.688 514.645 180C514.645 181.296 514.381 182.416 513.853 183.36C513.341 184.288 512.621 185 511.693 185.496C510.781 185.992 509.717 186.24 508.501 186.24C507.301 186.24 506.237 185.992 505.309 185.496C504.381 185 503.653 184.288 503.125 183.36C502.613 182.416 502.357 181.296 502.357 180C502.357 178.688 502.613 177.568 503.125 176.64C503.653 175.712 504.381 175 505.309 174.504C506.237 174.008 507.301 173.76 508.501 173.76ZM508.501 176.208C507.893 176.208 507.373 176.352 506.941 176.64C506.525 176.912 506.205 177.328 505.981 177.888C505.757 178.448 505.645 179.152 505.645 180C505.645 180.848 505.757 181.552 505.981 182.112C506.205 182.672 506.525 183.096 506.941 183.384C507.373 183.656 507.893 183.792 508.501 183.792C509.093 183.792 509.597 183.656 510.013 183.384C510.445 183.096 510.773 182.672 510.997 182.112C511.221 181.552 511.333 180.848 511.333 180C511.333 179.152 511.221 178.448 510.997 177.888C510.773 177.328 510.445 176.912 510.013 176.64C509.597 176.352 509.093 176.208 508.501 176.208ZM538.628 181.632C538.324 182.656 537.844 183.512 537.188 184.2C536.532 184.888 535.756 185.4 534.86 185.736C533.964 186.072 532.98 186.24 531.908 186.24C530.34 186.24 528.98 185.912 527.828 185.256C526.692 184.6 525.812 183.664 525.188 182.448C524.58 181.232 524.276 179.776 524.276 178.08C524.276 176.384 524.58 174.928 525.188 173.712C525.812 172.496 526.692 171.56 527.828 170.904C528.98 170.248 530.324 169.92 531.86 169.92C532.948 169.92 533.932 170.072 534.812 170.376C535.692 170.664 536.436 171.112 537.044 171.72C537.668 172.328 538.124 173.096 538.412 174.024L535.412 175.296C535.14 174.336 534.724 173.656 534.164 173.256C533.604 172.84 532.884 172.632 532.004 172.632C531.14 172.632 530.38 172.84 529.724 173.256C529.084 173.672 528.588 174.288 528.236 175.104C527.884 175.904 527.708 176.896 527.708 178.08C527.708 179.248 527.868 180.24 528.188 181.056C528.524 181.872 529.012 182.488 529.652 182.904C530.292 183.32 531.076 183.528 532.004 183.528C532.868 183.528 533.612 183.296 534.236 182.832C534.876 182.368 535.324 181.664 535.58 180.72L538.628 181.632ZM546.587 173.76C547.803 173.76 548.867 174.008 549.779 174.504C550.707 175 551.427 175.712 551.939 176.64C552.467 177.568 552.731 178.688 552.731 180C552.731 181.296 552.467 182.416 551.939 183.36C551.427 184.288 550.707 185 549.779 185.496C548.867 185.992 547.803 186.24 546.587 186.24C545.387 186.24 544.323 185.992 543.395 185.496C542.467 185 541.739 184.288 541.211 183.36C540.699 182.416 540.443 181.296 540.443 180C540.443 178.688 540.699 177.568 541.211 176.64C541.739 175.712 542.467 175 543.395 174.504C544.323 174.008 545.387 173.76 546.587 173.76ZM546.587 176.208C545.979 176.208 545.459 176.352 545.027 176.64C544.611 176.912 544.291 177.328 544.067 177.888C543.843 178.448 543.731 179.152 543.731 180C543.731 180.848 543.843 181.552 544.067 182.112C544.291 182.672 544.611 183.096 545.027 183.384C545.459 183.656 545.979 183.792 546.587 183.792C547.179 183.792 547.683 183.656 548.099 183.384C548.531 183.096 548.859 182.672 549.083 182.112C549.307 181.552 549.419 180.848 549.419 180C549.419 179.152 549.307 178.448 549.083 177.888C548.859 177.328 548.531 176.912 548.099 176.64C547.683 176.352 547.179 176.208 546.587 176.208ZM555.482 186V174H558.434L558.626 177.6L558.218 177.216C558.41 176.432 558.714 175.784 559.13 175.272C559.546 174.76 560.05 174.384 560.642 174.144C561.25 173.888 561.914 173.76 562.634 173.76C563.466 173.76 564.202 173.92 564.842 174.24C565.498 174.56 566.01 175.048 566.378 175.704C566.762 176.344 566.954 177.152 566.954 178.128V186H563.666V179.064C563.666 178.04 563.466 177.336 563.066 176.952C562.666 176.552 562.146 176.352 561.506 176.352C561.058 176.352 560.618 176.464 560.186 176.688C559.77 176.896 559.426 177.24 559.154 177.72C558.898 178.2 558.77 178.84 558.77 179.64V186H555.482ZM577.909 174H581.317L576.757 186H572.965L568.405 174H571.909L574.885 183.48L577.909 174ZM588.566 186.24C587.302 186.24 586.198 185.992 585.254 185.496C584.326 185 583.606 184.288 583.094 183.36C582.582 182.432 582.326 181.312 582.326 180C582.326 178.688 582.582 177.568 583.094 176.64C583.606 175.712 584.318 175 585.23 174.504C586.158 174.008 587.214 173.76 588.398 173.76C589.614 173.76 590.646 174.008 591.494 174.504C592.342 174.984 592.99 175.648 593.438 176.496C593.886 177.328 594.11 178.28 594.11 179.352C594.11 179.672 594.102 179.976 594.086 180.264C594.07 180.552 594.046 180.808 594.014 181.032H584.438V178.752H592.574L590.99 179.328C590.99 178.32 590.758 177.544 590.294 177C589.846 176.456 589.206 176.184 588.374 176.184C587.766 176.184 587.238 176.328 586.79 176.616C586.358 176.904 586.03 177.336 585.806 177.912C585.582 178.472 585.47 179.184 585.47 180.048C585.47 180.896 585.59 181.6 585.83 182.16C586.086 182.704 586.438 183.112 586.886 183.384C587.35 183.656 587.902 183.792 588.542 183.792C589.246 183.792 589.814 183.656 590.246 183.384C590.678 183.112 591.014 182.736 591.254 182.256L593.87 183.264C593.614 183.888 593.222 184.424 592.694 184.872C592.182 185.32 591.566 185.664 590.846 185.904C590.142 186.128 589.382 186.24 588.566 186.24ZM596.896 186V174H599.752L599.968 176.352C600.288 175.52 600.752 174.88 601.36 174.432C601.984 173.984 602.76 173.76 603.688 173.76C603.96 173.76 604.208 173.784 604.432 173.832C604.656 173.88 604.84 173.944 604.984 174.024L604.6 176.784C604.44 176.72 604.24 176.672 604 176.64C603.776 176.608 603.48 176.592 603.112 176.592C602.632 176.592 602.168 176.712 601.72 176.952C601.272 177.176 600.904 177.528 600.616 178.008C600.328 178.472 600.184 179.064 600.184 179.784V186H596.896ZM611.493 186.24C610.277 186.24 609.165 186.024 608.157 185.592C607.165 185.16 606.357 184.552 605.733 183.768L607.629 181.848C608.013 182.424 608.525 182.896 609.165 183.264C609.805 183.632 610.565 183.816 611.445 183.816C612.069 183.816 612.565 183.728 612.933 183.552C613.317 183.36 613.509 183.064 613.509 182.664C613.509 182.408 613.421 182.192 613.245 182.016C613.069 181.824 612.717 181.672 612.189 181.56L610.077 181.128C608.685 180.84 607.693 180.408 607.101 179.832C606.525 179.24 606.237 178.48 606.237 177.552C606.237 176.896 606.429 176.28 606.813 175.704C607.213 175.128 607.805 174.664 608.589 174.312C609.373 173.944 610.349 173.76 611.517 173.76C612.717 173.76 613.757 173.952 614.637 174.336C615.533 174.704 616.237 175.256 616.749 175.992L614.781 177.912C614.429 177.352 613.965 176.928 613.389 176.64C612.829 176.336 612.237 176.184 611.613 176.184C611.165 176.184 610.781 176.232 610.461 176.328C610.141 176.424 609.901 176.56 609.741 176.736C609.581 176.896 609.501 177.104 609.501 177.36C609.501 177.616 609.613 177.84 609.837 178.032C610.061 178.208 610.469 178.36 611.061 178.488L613.509 178.992C614.693 179.232 615.541 179.64 616.053 180.216C616.565 180.776 616.821 181.456 616.821 182.256C616.821 183.024 616.613 183.712 616.197 184.32C615.797 184.912 615.197 185.384 614.397 185.736C613.613 186.072 612.645 186.24 611.493 186.24ZM621.099 172.272C620.411 172.272 619.899 172.128 619.563 171.84C619.227 171.536 619.059 171.096 619.059 170.52C619.059 169.928 619.227 169.488 619.563 169.2C619.899 168.896 620.411 168.744 621.099 168.744C621.787 168.744 622.299 168.896 622.635 169.2C622.971 169.488 623.139 169.928 623.139 170.52C623.139 171.096 622.971 171.536 622.635 171.84C622.299 172.128 621.787 172.272 621.099 172.272ZM622.731 174V186H619.443V174H622.731ZM631.688 173.76C632.904 173.76 633.968 174.008 634.88 174.504C635.808 175 636.528 175.712 637.04 176.64C637.568 177.568 637.832 178.688 637.832 180C637.832 181.296 637.568 182.416 637.04 183.36C636.528 184.288 635.808 185 634.88 185.496C633.968 185.992 632.904 186.24 631.688 186.24C630.488 186.24 629.424 185.992 628.496 185.496C627.568 185 626.84 184.288 626.312 183.36C625.8 182.416 625.544 181.296 625.544 180C625.544 178.688 625.8 177.568 626.312 176.64C626.84 175.712 627.568 175 628.496 174.504C629.424 174.008 630.488 173.76 631.688 173.76ZM631.688 176.208C631.08 176.208 630.56 176.352 630.128 176.64C629.712 176.912 629.392 177.328 629.168 177.888C628.944 178.448 628.832 179.152 628.832 180C628.832 180.848 628.944 181.552 629.168 182.112C629.392 182.672 629.712 183.096 630.128 183.384C630.56 183.656 631.08 183.792 631.688 183.792C632.28 183.792 632.784 183.656 633.2 183.384C633.632 183.096 633.96 182.672 634.184 182.112C634.408 181.552 634.52 180.848 634.52 180C634.52 179.152 634.408 178.448 634.184 177.888C633.96 177.328 633.632 176.912 633.2 176.64C632.784 176.352 632.28 176.208 631.688 176.208ZM640.583 186V174H643.535L643.727 177.6L643.319 177.216C643.511 176.432 643.815 175.784 644.231 175.272C644.647 174.76 645.151 174.384 645.743 174.144C646.351 173.888 647.015 173.76 647.735 173.76C648.567 173.76 649.303 173.92 649.943 174.24C650.599 174.56 651.111 175.048 651.479 175.704C651.863 176.344 652.055 177.152 652.055 178.128V186H648.767V179.064C648.767 178.04 648.567 177.336 648.167 176.952C647.767 176.552 647.247 176.352 646.607 176.352C646.159 176.352 645.719 176.464 645.287 176.688C644.871 176.896 644.527 177.24 644.255 177.72C643.999 178.2 643.871 178.84 643.871 179.64V186H640.583Z" fill="white"/>
<path d="M654 95C653.448 95 653 95.4477 653 96C653 96.5523 653.448 97 654 97L654 95ZM825.774 96L820 90.2265L814.227 96L820 101.774L825.774 96ZM659.929 97C660.481 97 660.929 96.5523 660.929 96C660.929 95.4477 660.481 95 659.929 95L659.929 97ZM671.786 95C671.233 95 670.786 95.4477 670.786 96C670.786 96.5523 671.233 97 671.786 97L671.786 95ZM683.643 97C684.195 97 684.643 96.5523 684.643 96C684.643 95.4477 684.195 95 683.643 95L683.643 97ZM695.5 95C694.948 95 694.5 95.4477 694.5 96C694.5 96.5523 694.948 97 695.5 97L695.5 95ZM707.357 97C707.909 97 708.357 96.5523 708.357 96C708.357 95.4477 707.909 95 707.357 95L707.357 97ZM719.214 95C718.662 95 718.214 95.4477 718.214 96C718.214 96.5523 718.662 97 719.214 97L719.214 95ZM731.071 97C731.624 97 732.071 96.5523 732.071 96C732.071 95.4477 731.624 95 731.071 95L731.071 97ZM742.929 95C742.376 95 741.929 95.4477 741.929 96C741.929 96.5523 742.376 97 742.929 97L742.929 95ZM754.786 97C755.338 97 755.786 96.5523 755.786 96C755.786 95.4477 755.338 95 754.786 95L754.786 97ZM766.643 95C766.091 95 765.643 95.4477 765.643 96C765.643 96.5523 766.091 97 766.643 97L766.643 95ZM778.5 97C779.052 97 779.5 96.5523 779.5 96C779.5 95.4477 779.052 95 778.5 95L778.5 97ZM790.357 95C789.805 95 789.357 95.4477 789.357 96C789.357 96.5523 789.805 97 790.357 97L790.357 95ZM802.214 97C802.767 97 803.214 96.5523 803.214 96C803.214 95.4477 802.767 95 802.214 95L802.214 97ZM814.071 95C813.519 95 813.071 95.4477 813.071 96C813.071 96.5523 813.519 97 814.071 97L814.071 95ZM654 97L659.929 97L659.929 95L654 95L654 97ZM671.786 97L683.643 97L683.643 95L671.786 95L671.786 97ZM695.5 97L707.357 97L707.357 95L695.5 95L695.5 97ZM719.214 97L731.071 97L731.071 95L719.214 95L719.214 97ZM742.929 97L754.786 97L754.786 95L742.929 95L742.929 97ZM766.643 97L778.5 97L778.5 95L766.643 95L766.643 97ZM790.357 97L802.214 97L802.214 95L790.357 95L790.357 97ZM814.071 97L820 97L820 95L814.071 95L814.071 97Z" fill="white"/>
<g filter="url(#filter2_b_218_1029)">
<circle cx="973.5" cy="53" r="53" fill="url(#paint2_linear_218_1029)"/>
</g>
<path d="M971.632 45.0078L972 44.9978H987C988.66 44.9977 990.257 45.6326 991.464 46.7725C992.67 47.9123 993.395 49.4706 993.49 51.1278L993.5 51.4978V66.4978C993.5 68.1581 992.865 69.7555 991.725 70.9623C990.584 72.1691 989.025 72.8939 987.368 72.9878L987 72.9978H972C970.34 72.998 968.742 72.3627 967.535 71.2225C966.329 70.0823 965.604 68.5235 965.51 66.8658L965.5 66.4998V51.4998C965.5 49.8396 966.135 48.2422 967.275 47.0354C968.415 45.8286 969.974 45.1038 971.632 45.0098V45.0078ZM987 47.9978H972C971.121 47.9979 970.275 48.3282 969.629 48.9232C968.983 49.5182 968.584 50.3344 968.512 51.2098L968.5 51.4978V66.4978C968.5 67.3765 968.831 68.2231 969.426 68.8693C970.021 69.5155 970.838 69.914 971.714 69.9858L972 69.9978H987C987.879 69.9978 988.725 69.6672 989.371 69.0718C990.017 68.4763 990.416 67.6596 990.488 66.7838L990.5 66.4978V51.4978C990.5 50.5696 990.131 49.6793 989.475 49.023C988.818 48.3666 987.928 47.9978 987 47.9978V47.9978ZM979.5 50.9998C979.898 50.9998 980.279 51.1579 980.561 51.4392C980.842 51.7205 981 52.102 981 52.4998V57.4958H986C986.398 57.4958 986.779 57.6539 987.061 57.9352C987.342 58.2165 987.5 58.598 987.5 58.9958C987.5 59.3937 987.342 59.7752 987.061 60.0565C986.779 60.3378 986.398 60.4958 986 60.4958H981V65.4998C981 65.8977 980.842 66.2792 980.561 66.5605C980.279 66.8418 979.898 66.9998 979.5 66.9998C979.102 66.9998 978.72 66.8418 978.439 66.5605C978.158 66.2792 978 65.8977 978 65.4998V60.4958H973C972.602 60.4958 972.22 60.3378 971.939 60.0565C971.658 59.7752 971.5 59.3937 971.5 58.9958C971.5 58.598 971.658 58.2165 971.939 57.9352C972.22 57.6539 972.602 57.4958 973 57.4958H978V52.4998C978 52.102 978.158 51.7205 978.439 51.4392C978.72 51.1579 979.102 50.9998 979.5 50.9998ZM980.664 37.4658L980.768 37.8198L982.154 42.9958H979.048L977.872 38.5958C977.753 38.1516 977.548 37.7352 977.268 37.3703C976.988 37.0054 976.639 36.6993 976.241 36.4693C975.843 36.2394 975.403 36.0902 974.947 36.0302C974.491 35.9702 974.028 36.0007 973.584 36.1198L959.096 40.0038C958.25 40.2306 957.52 40.7662 957.05 41.5049C956.58 42.2435 956.403 43.1316 956.556 43.9938L956.62 44.2898L960.504 58.7778C960.686 59.4586 961.069 60.0686 961.604 60.5279C962.139 60.9871 962.799 61.2743 963.5 61.3518V64.3638C962.199 64.2863 960.952 63.8202 959.92 63.0257C958.888 62.2312 958.118 61.145 957.71 59.9078L957.606 59.5558L953.724 45.0658C953.294 43.4626 953.494 41.7556 954.282 40.2948C955.07 38.8341 956.388 37.7303 957.964 37.2098L958.32 37.1058L972.808 33.2238C974.411 32.7938 976.118 32.9935 977.579 33.7819C979.04 34.5703 980.143 35.8876 980.664 37.4638V37.4658Z" fill="#F81DFB"/>
<path d="M839.351 144.16V160H836.351V151.744L836.519 147.112H836.471L832.079 160H829.367L824.999 147.112H824.951L825.119 151.744V160H822.119V144.16H826.919L829.775 152.8L830.783 156.376H830.831L831.863 152.824L834.695 144.16H839.351ZM844.79 146.272C844.102 146.272 843.59 146.128 843.254 145.84C842.918 145.536 842.75 145.096 842.75 144.52C842.75 143.928 842.918 143.488 843.254 143.2C843.59 142.896 844.102 142.744 844.79 142.744C845.478 142.744 845.99 142.896 846.326 143.2C846.662 143.488 846.83 143.928 846.83 144.52C846.83 145.096 846.662 145.536 846.326 145.84C845.99 146.128 845.478 146.272 844.79 146.272ZM846.422 148V160H843.134V148H846.422ZM849.908 160V148H852.86L853.052 151.6L852.644 151.216C852.836 150.432 853.14 149.784 853.556 149.272C853.972 148.76 854.476 148.384 855.068 148.144C855.676 147.888 856.34 147.76 857.06 147.76C857.892 147.76 858.628 147.92 859.268 148.24C859.924 148.56 860.436 149.048 860.804 149.704C861.188 150.344 861.38 151.152 861.38 152.128V160H858.092V153.064C858.092 152.04 857.892 151.336 857.492 150.952C857.092 150.552 856.572 150.352 855.932 150.352C855.484 150.352 855.044 150.464 854.612 150.688C854.196 150.896 853.852 151.24 853.58 151.72C853.324 152.2 853.196 152.84 853.196 153.64V160H849.908ZM868.921 144.328V156.088C868.921 156.664 869.065 157.088 869.353 157.36C869.657 157.616 870.065 157.744 870.577 157.744C870.977 157.744 871.329 157.688 871.633 157.576C871.937 157.448 872.209 157.28 872.449 157.072L872.977 159.256C872.593 159.56 872.113 159.8 871.537 159.976C870.961 160.152 870.353 160.24 869.713 160.24C868.913 160.24 868.201 160.12 867.577 159.88C866.969 159.64 866.489 159.256 866.137 158.728C865.801 158.2 865.633 157.496 865.633 156.616V145.24L868.921 144.328ZM872.761 148V150.448H863.425V148H872.761ZM896.266 144.16V160H892.474L886.93 150.688L885.562 148.096H885.538L885.634 150.832V160H882.658V144.16H886.426L891.97 153.448L893.338 156.064H893.386L893.29 153.328V144.16H896.266ZM912.256 146.824H903.712V150.856H910.456V153.52H903.712V160H900.4V144.16H912.256V146.824ZM927.623 144.16V146.824H922.319V160H919.007V146.824H913.679V144.16H927.623ZM950.733 155.632C950.429 156.656 949.949 157.512 949.293 158.2C948.637 158.888 947.861 159.4 946.965 159.736C946.069 160.072 945.085 160.24 944.013 160.24C942.445 160.24 941.085 159.912 939.933 159.256C938.797 158.6 937.917 157.664 937.293 156.448C936.685 155.232 936.381 153.776 936.381 152.08C936.381 150.384 936.685 148.928 937.293 147.712C937.917 146.496 938.797 145.56 939.933 144.904C941.085 144.248 942.429 143.92 943.965 143.92C945.053 143.92 946.037 144.072 946.917 144.376C947.797 144.664 948.541 145.112 949.149 145.72C949.773 146.328 950.229 147.096 950.517 148.024L947.517 149.296C947.245 148.336 946.829 147.656 946.269 147.256C945.709 146.84 944.989 146.632 944.109 146.632C943.245 146.632 942.485 146.84 941.829 147.256C941.189 147.672 940.693 148.288 940.341 149.104C939.989 149.904 939.813 150.896 939.813 152.08C939.813 153.248 939.973 154.24 940.293 155.056C940.629 155.872 941.117 156.488 941.757 156.904C942.397 157.32 943.181 157.528 944.109 157.528C944.973 157.528 945.717 157.296 946.341 156.832C946.981 156.368 947.429 155.664 947.685 154.72L950.733 155.632ZM958.692 147.76C959.908 147.76 960.972 148.008 961.884 148.504C962.812 149 963.532 149.712 964.044 150.64C964.572 151.568 964.836 152.688 964.836 154C964.836 155.296 964.572 156.416 964.044 157.36C963.532 158.288 962.812 159 961.884 159.496C960.972 159.992 959.908 160.24 958.692 160.24C957.492 160.24 956.428 159.992 955.5 159.496C954.572 159 953.844 158.288 953.316 157.36C952.804 156.416 952.548 155.296 952.548 154C952.548 152.688 952.804 151.568 953.316 150.64C953.844 149.712 954.572 149 955.5 148.504C956.428 148.008 957.492 147.76 958.692 147.76ZM958.692 150.208C958.084 150.208 957.564 150.352 957.132 150.64C956.716 150.912 956.396 151.328 956.172 151.888C955.948 152.448 955.836 153.152 955.836 154C955.836 154.848 955.948 155.552 956.172 156.112C956.396 156.672 956.716 157.096 957.132 157.384C957.564 157.656 958.084 157.792 958.692 157.792C959.284 157.792 959.788 157.656 960.204 157.384C960.636 157.096 960.964 156.672 961.188 156.112C961.412 155.552 961.524 154.848 961.524 154C961.524 153.152 961.412 152.448 961.188 151.888C960.964 151.328 960.636 150.912 960.204 150.64C959.788 150.352 959.284 150.208 958.692 150.208ZM975.319 148H978.727L974.167 160H970.375L965.815 148H969.319L972.295 157.48L975.319 148ZM985.976 160.24C984.712 160.24 983.608 159.992 982.664 159.496C981.736 159 981.016 158.288 980.504 157.36C979.992 156.432 979.736 155.312 979.736 154C979.736 152.688 979.992 151.568 980.504 150.64C981.016 149.712 981.728 149 982.64 148.504C983.568 148.008 984.624 147.76 985.808 147.76C987.024 147.76 988.056 148.008 988.904 148.504C989.752 148.984 990.4 149.648 990.848 150.496C991.296 151.328 991.52 152.28 991.52 153.352C991.52 153.672 991.512 153.976 991.496 154.264C991.48 154.552 991.456 154.808 991.424 155.032H981.848V152.752H989.984L988.4 153.328C988.4 152.32 988.168 151.544 987.704 151C987.256 150.456 986.616 150.184 985.784 150.184C985.176 150.184 984.648 150.328 984.2 150.616C983.768 150.904 983.44 151.336 983.216 151.912C982.992 152.472 982.88 153.184 982.88 154.048C982.88 154.896 983 155.6 983.24 156.16C983.496 156.704 983.848 157.112 984.296 157.384C984.76 157.656 985.312 157.792 985.952 157.792C986.656 157.792 987.224 157.656 987.656 157.384C988.088 157.112 988.424 156.736 988.664 156.256L991.28 157.264C991.024 157.888 990.632 158.424 990.104 158.872C989.592 159.32 988.976 159.664 988.256 159.904C987.552 160.128 986.792 160.24 985.976 160.24ZM994.306 160V148H997.162L997.378 150.352C997.698 149.52 998.162 148.88 998.77 148.432C999.394 147.984 1000.17 147.76 1001.1 147.76C1001.37 147.76 1001.62 147.784 1001.84 147.832C1002.07 147.88 1002.25 147.944 1002.39 148.024L1002.01 150.784C1001.85 150.72 1001.65 150.672 1001.41 150.64C1001.19 150.608 1000.89 150.592 1000.52 150.592C1000.04 150.592 999.578 150.712 999.13 150.952C998.682 151.176 998.314 151.528 998.026 152.008C997.738 152.472 997.594 153.064 997.594 153.784V160H994.306ZM1008.9 160.24C1007.69 160.24 1006.58 160.024 1005.57 159.592C1004.58 159.16 1003.77 158.552 1003.14 157.768L1005.04 155.848C1005.42 156.424 1005.94 156.896 1006.58 157.264C1007.22 157.632 1007.98 157.816 1008.86 157.816C1009.48 157.816 1009.98 157.728 1010.34 157.552C1010.73 157.36 1010.92 157.064 1010.92 156.664C1010.92 156.408 1010.83 156.192 1010.66 156.016C1010.48 155.824 1010.13 155.672 1009.6 155.56L1007.49 155.128C1006.1 154.84 1005.1 154.408 1004.51 153.832C1003.94 153.24 1003.65 152.48 1003.65 151.552C1003.65 150.896 1003.84 150.28 1004.22 149.704C1004.62 149.128 1005.22 148.664 1006 148.312C1006.78 147.944 1007.76 147.76 1008.93 147.76C1010.13 147.76 1011.17 147.952 1012.05 148.336C1012.94 148.704 1013.65 149.256 1014.16 149.992L1012.19 151.912C1011.84 151.352 1011.38 150.928 1010.8 150.64C1010.24 150.336 1009.65 150.184 1009.02 150.184C1008.58 150.184 1008.19 150.232 1007.87 150.328C1007.55 150.424 1007.31 150.56 1007.15 150.736C1006.99 150.896 1006.91 151.104 1006.91 151.36C1006.91 151.616 1007.02 151.84 1007.25 152.032C1007.47 152.208 1007.88 152.36 1008.47 152.488L1010.92 152.992C1012.1 153.232 1012.95 153.64 1013.46 154.216C1013.98 154.776 1014.23 155.456 1014.23 156.256C1014.23 157.024 1014.02 157.712 1013.61 158.32C1013.21 158.912 1012.61 159.384 1011.81 159.736C1011.02 160.072 1010.06 160.24 1008.9 160.24ZM1031.17 144.16C1032.39 144.16 1033.43 144.368 1034.29 144.784C1035.16 145.184 1035.82 145.768 1036.28 146.536C1036.76 147.288 1037 148.2 1037 149.272C1037 150.344 1036.76 151.264 1036.28 152.032C1035.82 152.784 1035.16 153.368 1034.29 153.784C1033.43 154.184 1032.39 154.384 1031.17 154.384H1027.84V160H1024.52V144.16H1031.17ZM1030.67 151.768C1031.66 151.768 1032.4 151.56 1032.9 151.144C1033.4 150.712 1033.64 150.088 1033.64 149.272C1033.64 148.44 1033.4 147.816 1032.9 147.4C1032.4 146.984 1031.66 146.776 1030.67 146.776H1027.84V151.768H1030.67ZM1044.97 160.24C1043.7 160.24 1042.6 159.992 1041.66 159.496C1040.73 159 1040.01 158.288 1039.5 157.36C1038.98 156.432 1038.73 155.312 1038.73 154C1038.73 152.688 1038.98 151.568 1039.5 150.64C1040.01 149.712 1040.72 149 1041.63 148.504C1042.56 148.008 1043.62 147.76 1044.8 147.76C1046.02 147.76 1047.05 148.008 1047.9 148.504C1048.74 148.984 1049.39 149.648 1049.84 150.496C1050.29 151.328 1050.51 152.28 1050.51 153.352C1050.51 153.672 1050.5 153.976 1050.49 154.264C1050.47 154.552 1050.45 154.808 1050.42 155.032H1040.84V152.752H1048.98L1047.39 153.328C1047.39 152.32 1047.16 151.544 1046.7 151C1046.25 150.456 1045.61 150.184 1044.78 150.184C1044.17 150.184 1043.64 150.328 1043.19 150.616C1042.76 150.904 1042.43 151.336 1042.21 151.912C1041.98 152.472 1041.87 153.184 1041.87 154.048C1041.87 154.896 1041.99 155.6 1042.23 156.16C1042.49 156.704 1042.84 157.112 1043.29 157.384C1043.75 157.656 1044.3 157.792 1044.94 157.792C1045.65 157.792 1046.22 157.656 1046.65 157.384C1047.08 157.112 1047.42 156.736 1047.66 156.256L1050.27 157.264C1050.02 157.888 1049.62 158.424 1049.1 158.872C1048.58 159.32 1047.97 159.664 1047.25 159.904C1046.54 160.128 1045.78 160.24 1044.97 160.24ZM1053.3 160V148H1056.15L1056.37 150.352C1056.69 149.52 1057.15 148.88 1057.76 148.432C1058.39 147.984 1059.16 147.76 1060.09 147.76C1060.36 147.76 1060.61 147.784 1060.83 147.832C1061.06 147.88 1061.24 147.944 1061.39 148.024L1061 150.784C1060.84 150.72 1060.64 150.672 1060.4 150.64C1060.18 150.608 1059.88 150.592 1059.51 150.592C1059.03 150.592 1058.57 150.712 1058.12 150.952C1057.67 151.176 1057.31 151.528 1057.02 152.008C1056.73 152.472 1056.59 153.064 1056.59 153.784V160H1053.3ZM1084.21 155.632C1083.91 156.656 1083.43 157.512 1082.77 158.2C1082.11 158.888 1081.34 159.4 1080.44 159.736C1079.55 160.072 1078.56 160.24 1077.49 160.24C1075.92 160.24 1074.56 159.912 1073.41 159.256C1072.27 158.6 1071.39 157.664 1070.77 156.448C1070.16 155.232 1069.86 153.776 1069.86 152.08C1069.86 150.384 1070.16 148.928 1070.77 147.712C1071.39 146.496 1072.27 145.56 1073.41 144.904C1074.56 144.248 1075.91 143.92 1077.44 143.92C1078.53 143.92 1079.51 144.072 1080.39 144.376C1081.27 144.664 1082.02 145.112 1082.63 145.72C1083.25 146.328 1083.71 147.096 1083.99 148.024L1080.99 149.296C1080.72 148.336 1080.31 147.656 1079.75 147.256C1079.19 146.84 1078.47 146.632 1077.59 146.632C1076.72 146.632 1075.96 146.84 1075.31 147.256C1074.67 147.672 1074.17 148.288 1073.82 149.104C1073.47 149.904 1073.29 150.896 1073.29 152.08C1073.29 153.248 1073.45 154.24 1073.77 155.056C1074.11 155.872 1074.59 156.488 1075.23 156.904C1075.87 157.32 1076.66 157.528 1077.59 157.528C1078.45 157.528 1079.19 157.296 1079.82 156.832C1080.46 156.368 1080.91 155.664 1081.16 154.72L1084.21 155.632ZM1092.17 147.76C1093.38 147.76 1094.45 148.008 1095.36 148.504C1096.29 149 1097.01 149.712 1097.52 150.64C1098.05 151.568 1098.31 152.688 1098.31 154C1098.31 155.296 1098.05 156.416 1097.52 157.36C1097.01 158.288 1096.29 159 1095.36 159.496C1094.45 159.992 1093.38 160.24 1092.17 160.24C1090.97 160.24 1089.9 159.992 1088.98 159.496C1088.05 159 1087.32 158.288 1086.79 157.36C1086.28 156.416 1086.02 155.296 1086.02 154C1086.02 152.688 1086.28 151.568 1086.79 150.64C1087.32 149.712 1088.05 149 1088.98 148.504C1089.9 148.008 1090.97 147.76 1092.17 147.76ZM1092.17 150.208C1091.56 150.208 1091.04 150.352 1090.61 150.64C1090.19 150.912 1089.87 151.328 1089.65 151.888C1089.42 152.448 1089.31 153.152 1089.31 154C1089.31 154.848 1089.42 155.552 1089.65 156.112C1089.87 156.672 1090.19 157.096 1090.61 157.384C1091.04 157.656 1091.56 157.792 1092.17 157.792C1092.76 157.792 1093.26 157.656 1093.68 157.384C1094.11 157.096 1094.44 156.672 1094.66 156.112C1094.89 155.552 1095 154.848 1095 154C1095 153.152 1094.89 152.448 1094.66 151.888C1094.44 151.328 1094.11 150.912 1093.68 150.64C1093.26 150.352 1092.76 150.208 1092.17 150.208ZM1101.06 165.04V148H1104.02L1104.23 151.816L1103.82 151.384C1103.97 150.68 1104.23 150.056 1104.62 149.512C1105.02 148.968 1105.52 148.544 1106.13 148.24C1106.74 147.92 1107.42 147.76 1108.17 147.76C1109.14 147.76 1110.02 148.008 1110.78 148.504C1111.55 149 1112.15 149.712 1112.58 150.64C1113.03 151.552 1113.26 152.664 1113.26 153.976C1113.26 155.288 1113.03 156.416 1112.58 157.36C1112.14 158.288 1111.52 159 1110.74 159.496C1109.97 159.992 1109.09 160.24 1108.1 160.24C1107.04 160.24 1106.16 159.944 1105.46 159.352C1104.77 158.76 1104.3 158.016 1104.04 157.12L1104.35 156.616V165.04H1101.06ZM1107.14 157.72C1108.02 157.72 1108.7 157.408 1109.2 156.784C1109.71 156.144 1109.97 155.216 1109.97 154C1109.97 152.784 1109.72 151.864 1109.22 151.24C1108.74 150.6 1108.06 150.28 1107.18 150.28C1106.62 150.28 1106.13 150.432 1105.7 150.736C1105.28 151.024 1104.95 151.448 1104.71 152.008C1104.47 152.552 1104.35 153.216 1104.35 154C1104.35 154.768 1104.46 155.432 1104.69 155.992C1104.91 156.552 1105.23 156.984 1105.65 157.288C1106.08 157.576 1106.58 157.72 1107.14 157.72ZM1126.85 148L1122 160.744C1121.62 161.832 1121.19 162.696 1120.71 163.336C1120.24 163.976 1119.7 164.44 1119.08 164.728C1118.47 165.016 1117.74 165.16 1116.89 165.16C1116.27 165.16 1115.69 165.08 1115.16 164.92C1114.65 164.776 1114.2 164.584 1113.82 164.344L1114.52 161.968C1114.82 162.208 1115.14 162.376 1115.48 162.472C1115.81 162.584 1116.2 162.64 1116.63 162.64C1117.08 162.64 1117.46 162.544 1117.78 162.352C1118.12 162.16 1118.4 161.776 1118.62 161.2L1119.03 160.168L1117.71 157.048L1114.04 148H1117.68L1119.96 155.2L1120.59 157.6L1121.33 155.056L1123.52 148H1126.85Z" fill="white"/>
<path d="M1170 82C1169.45 82 1169 82.4477 1169 83C1169 83.5523 1169.45 84 1170 84V82ZM1300.77 83L1295 77.2265L1289.23 83L1295 88.7735L1300.77 83ZM1176.25 84C1176.8 84 1177.25 83.5523 1177.25 83C1177.25 82.4477 1176.8 82 1176.25 82V84ZM1188.75 82C1188.2 82 1187.75 82.4477 1187.75 83C1187.75 83.5523 1188.2 84 1188.75 84V82ZM1201.25 84C1201.8 84 1202.25 83.5523 1202.25 83C1202.25 82.4477 1201.8 82 1201.25 82V84ZM1213.75 82C1213.2 82 1212.75 82.4477 1212.75 83C1212.75 83.5523 1213.2 84 1213.75 84V82ZM1226.25 84C1226.8 84 1227.25 83.5523 1227.25 83C1227.25 82.4477 1226.8 82 1226.25 82V84ZM1238.75 82C1238.2 82 1237.75 82.4477 1237.75 83C1237.75 83.5523 1238.2 84 1238.75 84V82ZM1251.25 84C1251.8 84 1252.25 83.5523 1252.25 83C1252.25 82.4477 1251.8 82 1251.25 82V84ZM1263.75 82C1263.2 82 1262.75 82.4477 1262.75 83C1262.75 83.5523 1263.2 84 1263.75 84V82ZM1276.25 84C1276.8 84 1277.25 83.5523 1277.25 83C1277.25 82.4477 1276.8 82 1276.25 82V84ZM1288.75 82C1288.2 82 1287.75 82.4477 1287.75 83C1287.75 83.5523 1288.2 84 1288.75 84V82ZM1170 84H1176.25V82H1170V84ZM1188.75 84L1201.25 84V82L1188.75 82V84ZM1213.75 84H1226.25V82H1213.75V84ZM1238.75 84H1251.25V82H1238.75V84ZM1263.75 84H1276.25V82H1263.75V84ZM1288.75 84H1295V82H1288.75V84Z" fill="white"/>
<g filter="url(#filter3_b_218_1029)">
<circle cx="1405.5" cy="53" r="53" fill="url(#paint3_linear_218_1029)"/>
</g>
<path d="M1422.5 43L1405.5 33L1388.5 43V63L1405.5 73L1422.5 63V43Z" stroke="#F81DFB" stroke-width="3" stroke-linejoin="round"/>
<path d="M1405.5 51V59" stroke="#F81DFB" stroke-width="3" stroke-linecap="round" stroke-linejoin="round"/>
<path d="M1413.5 47V59" stroke="#F81DFB" stroke-width="3" stroke-linecap="round" stroke-linejoin="round"/>
<path d="M1397.5 55V59" stroke="#F81DFB" stroke-width="3" stroke-linecap="round" stroke-linejoin="round"/>
<path d="M1300.38 157.336H1308.73V160H1297.06V144.16H1300.38V157.336ZM1312.8 146.272C1312.11 146.272 1311.6 146.128 1311.26 145.84C1310.93 145.536 1310.76 145.096 1310.76 144.52C1310.76 143.928 1310.93 143.488 1311.26 143.2C1311.6 142.896 1312.11 142.744 1312.8 142.744C1313.49 142.744 1314 142.896 1314.33 143.2C1314.67 143.488 1314.84 143.928 1314.84 144.52C1314.84 145.096 1314.67 145.536 1314.33 145.84C1314 146.128 1313.49 146.272 1312.8 146.272ZM1314.43 148V160H1311.14V148H1314.43ZM1322.72 160.24C1321.5 160.24 1320.39 160.024 1319.38 159.592C1318.39 159.16 1317.58 158.552 1316.96 157.768L1318.85 155.848C1319.24 156.424 1319.75 156.896 1320.39 157.264C1321.03 157.632 1321.79 157.816 1322.67 157.816C1323.29 157.816 1323.79 157.728 1324.16 157.552C1324.54 157.36 1324.73 157.064 1324.73 156.664C1324.73 156.408 1324.64 156.192 1324.47 156.016C1324.29 155.824 1323.94 155.672 1323.41 155.56L1321.3 155.128C1319.91 154.84 1318.92 154.408 1318.32 153.832C1317.75 153.24 1317.46 152.48 1317.46 151.552C1317.46 150.896 1317.65 150.28 1318.04 149.704C1318.44 149.128 1319.03 148.664 1319.81 148.312C1320.6 147.944 1321.57 147.76 1322.74 147.76C1323.94 147.76 1324.98 147.952 1325.86 148.336C1326.76 148.704 1327.46 149.256 1327.97 149.992L1326 151.912C1325.65 151.352 1325.19 150.928 1324.61 150.64C1324.05 150.336 1323.46 150.184 1322.84 150.184C1322.39 150.184 1322 150.232 1321.68 150.328C1321.36 150.424 1321.12 150.56 1320.96 150.736C1320.8 150.896 1320.72 151.104 1320.72 151.36C1320.72 151.616 1320.84 151.84 1321.06 152.032C1321.28 152.208 1321.69 152.36 1322.28 152.488L1324.73 152.992C1325.92 153.232 1326.76 153.64 1327.28 154.216C1327.79 154.776 1328.04 155.456 1328.04 156.256C1328.04 157.024 1327.84 157.712 1327.42 158.32C1327.02 158.912 1326.42 159.384 1325.62 159.736C1324.84 160.072 1323.87 160.24 1322.72 160.24ZM1334.91 144.328V156.088C1334.91 156.664 1335.06 157.088 1335.35 157.36C1335.65 157.616 1336.06 157.744 1336.57 157.744C1336.97 157.744 1337.32 157.688 1337.63 157.576C1337.93 157.448 1338.2 157.28 1338.44 157.072L1338.97 159.256C1338.59 159.56 1338.11 159.8 1337.53 159.976C1336.95 160.152 1336.35 160.24 1335.71 160.24C1334.91 160.24 1334.19 160.12 1333.57 159.88C1332.96 159.64 1332.48 159.256 1332.13 158.728C1331.79 158.2 1331.63 157.496 1331.63 156.616V145.24L1334.91 144.328ZM1338.75 148V150.448H1329.42V148H1338.75ZM1360.69 144.16V146.824H1355.38V160H1352.07V146.824H1346.74V144.16H1360.69ZM1362.77 160V142.744H1366.06V150.04C1366.45 149.272 1366.97 148.704 1367.65 148.336C1368.32 147.952 1369.08 147.76 1369.93 147.76C1370.76 147.76 1371.49 147.92 1372.13 148.24C1372.79 148.56 1373.3 149.048 1373.67 149.704C1374.05 150.344 1374.25 151.152 1374.25 152.128V160H1370.96V153.088C1370.96 152.048 1370.76 151.336 1370.36 150.952C1369.96 150.552 1369.45 150.352 1368.82 150.352C1368.36 150.352 1367.91 150.464 1367.48 150.688C1367.06 150.896 1366.72 151.248 1366.45 151.744C1366.19 152.224 1366.06 152.864 1366.06 153.664V160H1362.77ZM1383.2 160.24C1381.94 160.24 1380.83 159.992 1379.89 159.496C1378.96 159 1378.24 158.288 1377.73 157.36C1377.22 156.432 1376.96 155.312 1376.96 154C1376.96 152.688 1377.22 151.568 1377.73 150.64C1378.24 149.712 1378.95 149 1379.87 148.504C1380.79 148.008 1381.85 147.76 1383.03 147.76C1384.25 147.76 1385.28 148.008 1386.13 148.504C1386.98 148.984 1387.63 149.648 1388.07 150.496C1388.52 151.328 1388.75 152.28 1388.75 153.352C1388.75 153.672 1388.74 153.976 1388.72 154.264C1388.71 154.552 1388.68 154.808 1388.65 155.032H1379.07V152.752H1387.21L1385.63 153.328C1385.63 152.32 1385.39 151.544 1384.93 151C1384.48 150.456 1383.84 150.184 1383.01 150.184C1382.4 150.184 1381.87 150.328 1381.43 150.616C1380.99 150.904 1380.67 151.336 1380.44 151.912C1380.22 152.472 1380.11 153.184 1380.11 154.048C1380.11 154.896 1380.23 155.6 1380.47 156.16C1380.72 156.704 1381.07 157.112 1381.52 157.384C1381.99 157.656 1382.54 157.792 1383.18 157.792C1383.88 157.792 1384.45 157.656 1384.88 157.384C1385.31 157.112 1385.65 156.736 1385.89 156.256L1388.51 157.264C1388.25 157.888 1387.86 158.424 1387.33 158.872C1386.82 159.32 1386.2 159.664 1385.48 159.904C1384.78 160.128 1384.02 160.24 1383.2 160.24ZM1391.53 160V148H1394.48L1394.6 150.16C1395 149.36 1395.55 148.76 1396.24 148.36C1396.94 147.96 1397.72 147.76 1398.56 147.76C1399.43 147.76 1400.2 147.96 1400.89 148.36C1401.6 148.76 1402.12 149.352 1402.48 150.136C1402.73 149.608 1403.08 149.168 1403.51 148.816C1403.94 148.464 1404.42 148.2 1404.95 148.024C1405.48 147.848 1406.01 147.76 1406.56 147.76C1407.34 147.76 1408.05 147.92 1408.69 148.24C1409.35 148.56 1409.87 149.04 1410.25 149.68C1410.64 150.32 1410.83 151.136 1410.83 152.128V160H1407.54V152.776C1407.54 151.896 1407.35 151.272 1406.96 150.904C1406.58 150.536 1406.08 150.352 1405.48 150.352C1405 150.352 1404.55 150.472 1404.13 150.712C1403.73 150.952 1403.41 151.312 1403.17 151.792C1402.95 152.256 1402.84 152.84 1402.84 153.544V160H1399.55V152.776C1399.55 151.896 1399.35 151.272 1398.95 150.904C1398.56 150.536 1398.07 150.352 1397.46 150.352C1397.04 150.352 1396.63 150.464 1396.21 150.688C1395.81 150.912 1395.48 151.264 1395.2 151.744C1394.95 152.224 1394.82 152.856 1394.82 153.64V160H1391.53ZM1433.75 146.824H1425.2V150.856H1431.95V153.52H1425.2V160H1421.89V144.16H1433.75V146.824ZM1440.5 147.76C1441.72 147.76 1442.78 148.008 1443.7 148.504C1444.62 149 1445.34 149.712 1445.86 150.64C1446.38 151.568 1446.65 152.688 1446.65 154C1446.65 155.296 1446.38 156.416 1445.86 157.36C1445.34 158.288 1444.62 159 1443.7 159.496C1442.78 159.992 1441.72 160.24 1440.5 160.24C1439.3 160.24 1438.24 159.992 1437.31 159.496C1436.38 159 1435.66 158.288 1435.13 157.36C1434.62 156.416 1434.36 155.296 1434.36 154C1434.36 152.688 1434.62 151.568 1435.13 150.64C1435.66 149.712 1436.38 149 1437.31 148.504C1438.24 148.008 1439.3 147.76 1440.5 147.76ZM1440.5 150.208C1439.9 150.208 1439.38 150.352 1438.94 150.64C1438.53 150.912 1438.21 151.328 1437.98 151.888C1437.76 152.448 1437.65 153.152 1437.65 154C1437.65 154.848 1437.76 155.552 1437.98 156.112C1438.21 156.672 1438.53 157.096 1438.94 157.384C1439.38 157.656 1439.9 157.792 1440.5 157.792C1441.1 157.792 1441.6 157.656 1442.02 157.384C1442.45 157.096 1442.78 156.672 1443 156.112C1443.22 155.552 1443.34 154.848 1443.34 154C1443.34 153.152 1443.22 152.448 1443 151.888C1442.78 151.328 1442.45 150.912 1442.02 150.64C1441.6 150.352 1441.1 150.208 1440.5 150.208ZM1449.4 160V148H1452.26L1452.47 150.352C1452.79 149.52 1453.26 148.88 1453.86 148.432C1454.49 147.984 1455.26 147.76 1456.19 147.76C1456.46 147.76 1456.71 147.784 1456.94 147.832C1457.16 147.88 1457.34 147.944 1457.49 148.024L1457.1 150.784C1456.94 150.72 1456.74 150.672 1456.5 150.64C1456.28 150.608 1455.98 150.592 1455.62 150.592C1455.14 150.592 1454.67 150.712 1454.22 150.952C1453.78 151.176 1453.41 151.528 1453.12 152.008C1452.83 152.472 1452.69 153.064 1452.69 153.784V160H1449.4ZM1472.54 143.92C1473.98 143.92 1475.24 144.168 1476.33 144.664C1477.42 145.16 1478.34 145.896 1479.11 146.872L1477.26 149.008C1476.61 148.176 1475.89 147.568 1475.1 147.184C1474.34 146.784 1473.44 146.584 1472.42 146.584C1471.74 146.584 1471.18 146.672 1470.74 146.848C1470.3 147.024 1469.98 147.256 1469.78 147.544C1469.58 147.832 1469.49 148.152 1469.49 148.504C1469.49 148.936 1469.66 149.304 1469.99 149.608C1470.33 149.896 1470.9 150.136 1471.72 150.328L1474.67 151C1476.24 151.352 1477.36 151.88 1478.03 152.584C1478.72 153.272 1479.06 154.168 1479.06 155.272C1479.06 156.312 1478.79 157.208 1478.25 157.96C1477.7 158.696 1476.94 159.264 1475.97 159.664C1474.99 160.048 1473.87 160.24 1472.61 160.24C1471.5 160.24 1470.49 160.112 1469.56 159.856C1468.65 159.584 1467.83 159.216 1467.11 158.752C1466.39 158.288 1465.79 157.752 1465.31 157.144L1467.18 154.912C1467.55 155.424 1468.01 155.88 1468.55 156.28C1469.1 156.68 1469.71 157 1470.4 157.24C1471.1 157.464 1471.84 157.576 1472.61 157.576C1473.26 157.576 1473.82 157.504 1474.26 157.36C1474.73 157.2 1475.07 156.984 1475.3 156.712C1475.54 156.424 1475.66 156.08 1475.66 155.68C1475.66 155.264 1475.51 154.912 1475.22 154.624C1474.95 154.32 1474.44 154.088 1473.69 153.928L1470.47 153.208C1469.54 152.984 1468.74 152.696 1468.07 152.344C1467.42 151.976 1466.91 151.512 1466.56 150.952C1466.22 150.376 1466.06 149.696 1466.06 148.912C1466.06 147.968 1466.31 147.12 1466.82 146.368C1467.34 145.616 1468.07 145.024 1469.03 144.592C1470.01 144.144 1471.18 143.92 1472.54 143.92ZM1488.56 152.344C1488.56 151.656 1488.36 151.12 1487.96 150.736C1487.58 150.352 1487.06 150.16 1486.42 150.16C1485.83 150.16 1485.31 150.312 1484.86 150.616C1484.42 150.92 1484.09 151.424 1483.88 152.128L1481.07 151.264C1481.34 150.208 1481.94 149.36 1482.85 148.72C1483.78 148.08 1485.02 147.76 1486.57 147.76C1487.62 147.76 1488.54 147.928 1489.33 148.264C1490.11 148.584 1490.72 149.072 1491.15 149.728C1491.6 150.384 1491.82 151.208 1491.82 152.2V157.072C1491.82 157.68 1492.11 157.984 1492.69 157.984C1492.96 157.984 1493.22 157.944 1493.46 157.864L1493.26 159.904C1492.85 160.112 1492.33 160.216 1491.7 160.216C1491.14 160.216 1490.64 160.12 1490.19 159.928C1489.74 159.736 1489.39 159.448 1489.14 159.064C1488.88 158.664 1488.75 158.168 1488.75 157.576V157.48L1489.33 157.384C1489.23 157.992 1488.97 158.512 1488.54 158.944C1488.1 159.36 1487.58 159.68 1486.95 159.904C1486.34 160.128 1485.71 160.24 1485.06 160.24C1484.24 160.24 1483.54 160.12 1482.94 159.88C1482.35 159.624 1481.9 159.256 1481.58 158.776C1481.26 158.296 1481.1 157.704 1481.1 157C1481.1 156.104 1481.38 155.376 1481.96 154.816C1482.54 154.24 1483.36 153.848 1484.43 153.64L1488.94 152.728L1488.92 154.768L1486.04 155.344C1485.5 155.456 1485.08 155.608 1484.79 155.8C1484.52 155.976 1484.38 156.272 1484.38 156.688C1484.38 157.088 1484.53 157.392 1484.82 157.6C1485.12 157.808 1485.48 157.912 1485.9 157.912C1486.23 157.912 1486.56 157.872 1486.88 157.792C1487.2 157.712 1487.49 157.584 1487.74 157.408C1488 157.232 1488.2 156.992 1488.34 156.688C1488.49 156.384 1488.56 156.016 1488.56 155.584V152.344ZM1498.74 142.744V156.304C1498.74 156.864 1498.84 157.256 1499.03 157.48C1499.22 157.704 1499.54 157.816 1499.99 157.816C1500.26 157.816 1500.49 157.8 1500.66 157.768C1500.84 157.72 1501.06 157.656 1501.33 157.576L1501.05 159.736C1500.77 159.896 1500.43 160.016 1500.01 160.096C1499.61 160.192 1499.21 160.24 1498.81 160.24C1497.65 160.24 1496.79 159.96 1496.25 159.4C1495.72 158.824 1495.45 157.912 1495.45 156.664V142.744H1498.74ZM1508.73 160.24C1507.47 160.24 1506.37 159.992 1505.42 159.496C1504.49 159 1503.77 158.288 1503.26 157.36C1502.75 156.432 1502.49 155.312 1502.49 154C1502.49 152.688 1502.75 151.568 1503.26 150.64C1503.77 149.712 1504.49 149 1505.4 148.504C1506.33 148.008 1507.38 147.76 1508.57 147.76C1509.78 147.76 1510.81 148.008 1511.66 148.504C1512.51 148.984 1513.16 149.648 1513.61 150.496C1514.05 151.328 1514.28 152.28 1514.28 153.352C1514.28 153.672 1514.27 153.976 1514.25 154.264C1514.24 154.552 1514.21 154.808 1514.18 155.032H1504.61V152.752H1512.74L1511.16 153.328C1511.16 152.32 1510.93 151.544 1510.46 151C1510.01 150.456 1509.37 150.184 1508.54 150.184C1507.93 150.184 1507.41 150.328 1506.96 150.616C1506.53 150.904 1506.2 151.336 1505.97 151.912C1505.75 152.472 1505.64 153.184 1505.64 154.048C1505.64 154.896 1505.76 155.6 1506 156.16C1506.25 156.704 1506.61 157.112 1507.05 157.384C1507.52 157.656 1508.07 157.792 1508.71 157.792C1509.41 157.792 1509.98 157.656 1510.41 157.384C1510.85 157.112 1511.18 156.736 1511.42 156.256L1514.04 157.264C1513.78 157.888 1513.39 158.424 1512.86 158.872C1512.35 159.32 1511.73 159.664 1511.01 159.904C1510.31 160.128 1509.55 160.24 1508.73 160.24Z" fill="white"/>
<defs>
<filter id="filter0_b_218_1029" x="11" y="-20" width="146" height="146" filterUnits="userSpaceOnUse" color-interpolation-filters="sRGB">
<feFlood flood-opacity="0" result="BackgroundImageFix"/>
<feGaussianBlur in="BackgroundImageFix" stdDeviation="10"/>
<feComposite in2="SourceAlpha" operator="in" result="effect1_backgroundBlur_218_1029"/>
<feBlend mode="normal" in="SourceGraphic" in2="effect1_backgroundBlur_218_1029" result="shape"/>
</filter>
<filter id="filter1_b_218_1029" x="428.5" y="-20" width="146" height="146" filterUnits="userSpaceOnUse" color-interpolation-filters="sRGB">
<feFlood flood-opacity="0" result="BackgroundImageFix"/>
<feGaussianBlur in="BackgroundImageFix" stdDeviation="10"/>
<feComposite in2="SourceAlpha" operator="in" result="effect1_backgroundBlur_218_1029"/>
<feBlend mode="normal" in="SourceGraphic" in2="effect1_backgroundBlur_218_1029" result="shape"/>
</filter>
<filter id="filter2_b_218_1029" x="900.5" y="-20" width="146" height="146" filterUnits="userSpaceOnUse" color-interpolation-filters="sRGB">
<feFlood flood-opacity="0" result="BackgroundImageFix"/>
<feGaussianBlur in="BackgroundImageFix" stdDeviation="10"/>
<feComposite in2="SourceAlpha" operator="in" result="effect1_backgroundBlur_218_1029"/>
<feBlend mode="normal" in="SourceGraphic" in2="effect1_backgroundBlur_218_1029" result="shape"/>
</filter>
<filter id="filter3_b_218_1029" x="1332.5" y="-20" width="146" height="146" filterUnits="userSpaceOnUse" color-interpolation-filters="sRGB">
<feFlood flood-opacity="0" result="BackgroundImageFix"/>
<feGaussianBlur in="BackgroundImageFix" stdDeviation="10"/>
<feComposite in2="SourceAlpha" operator="in" result="effect1_backgroundBlur_218_1029"/>
<feBlend mode="normal" in="SourceGraphic" in2="effect1_backgroundBlur_218_1029" result="shape"/>
</filter>
<linearGradient id="paint0_linear_218_1029" x1="31" y1="0" x2="109.025" y2="123.652" gradientUnits="userSpaceOnUse">
<stop stop-color="white" stop-opacity="0.1"/>
<stop offset="1" stop-color="white" stop-opacity="0.05"/>
</linearGradient>
<linearGradient id="paint1_linear_218_1029" x1="448.5" y1="0" x2="526.525" y2="123.652" gradientUnits="userSpaceOnUse">
<stop stop-color="white" stop-opacity="0.1"/>
<stop offset="1" stop-color="white" stop-opacity="0.05"/>
</linearGradient>
<linearGradient id="paint2_linear_218_1029" x1="920.5" y1="0" x2="998.525" y2="123.652" gradientUnits="userSpaceOnUse">
<stop stop-color="white" stop-opacity="0.1"/>
<stop offset="1" stop-color="white" stop-opacity="0.05"/>
</linearGradient>
<linearGradient id="paint3_linear_218_1029" x1="1352.5" y1="0" x2="1430.52" y2="123.652" gradientUnits="userSpaceOnUse">
<stop stop-color="white" stop-opacity="0.1"/>
<stop offset="1" stop-color="white" stop-opacity="0.05"/>
</linearGradient>
<clipPath id="clip0_218_1029">
<rect width="48" height="48" fill="white" transform="translate(477.5 29)"/>
</clipPath>
</defs>
</svg>
