<svg width="473" height="1545" viewBox="0 0 473 1545" fill="none" xmlns="http://www.w3.org/2000/svg">
<g clip-path="url(#clip0_234_1351)">
<g filter="url(#filter0_b_234_1351)">
<circle cx="108.5" cy="53" r="53" fill="url(#paint0_linear_234_1351)"/>
</g>
<path d="M127.167 48.9997H125.834V40.9997C125.834 40.646 125.693 40.3069 125.443 40.0569C125.193 39.8068 124.854 39.6663 124.5 39.6663H92.5002C92.1845 39.6715 91.8772 39.5644 91.633 39.3642C91.3888 39.164 91.2236 38.8836 91.1668 38.573V38.093C91.2236 37.7824 91.3888 37.502 91.633 37.3018C91.8772 37.1016 92.1845 36.9945 92.5002 36.9997H123.94C124.294 36.9997 124.633 36.8592 124.883 36.6091C125.133 36.3591 125.274 36.02 125.274 35.6663C125.274 35.3127 125.133 34.9736 124.883 34.7235C124.633 34.4735 124.294 34.333 123.94 34.333H92.5002C91.4393 34.333 90.4219 34.7544 89.6718 35.5046C88.9216 36.2547 88.5002 37.2721 88.5002 38.333C88.4908 38.4929 88.4908 38.6531 88.5002 38.813V66.2397C88.5054 66.9576 88.652 67.6674 88.9316 68.3286C89.2111 68.9899 89.6182 69.5896 90.1296 70.0935C90.6409 70.5974 91.2465 70.9957 91.9118 71.2655C92.577 71.5354 93.289 71.6716 94.0068 71.6663H124.5C124.854 71.6663 125.193 71.5259 125.443 71.2758C125.693 71.0258 125.834 70.6866 125.834 70.333V62.333H127.167C127.52 62.333 127.86 62.1925 128.11 61.9425C128.36 61.6924 128.5 61.3533 128.5 60.9997V50.333C128.5 49.9794 128.36 49.6402 128.11 49.3902C127.86 49.1401 127.52 48.9997 127.167 48.9997ZM123.167 68.9997H94.0068C93.2653 69.0068 92.5508 68.7209 92.019 68.204C91.4871 67.6871 91.1809 66.9812 91.1668 66.2397V42.173C91.5996 42.2984 92.05 42.3525 92.5002 42.333H123.167V48.9997H113.834C112.065 48.9997 110.37 49.702 109.119 50.9523C107.869 52.2025 107.167 53.8982 107.167 55.6663C107.167 57.4344 107.869 59.1301 109.119 60.3804C110.37 61.6306 112.065 62.333 113.834 62.333H123.167V68.9997ZM125.834 59.6663H113.834C112.773 59.6663 111.755 59.2449 111.005 58.4948C110.255 57.7446 109.834 56.7272 109.834 55.6663C109.834 54.6055 110.255 53.5881 111.005 52.8379C111.755 52.0878 112.773 51.6663 113.834 51.6663H125.834V59.6663Z" fill="#F81DFB"/>
<path d="M115.18 57.667C116.284 57.667 117.18 56.7716 117.18 55.667C117.18 54.5624 116.284 53.667 115.18 53.667C114.075 53.667 113.18 54.5624 113.18 55.667C113.18 56.7716 114.075 57.667 115.18 57.667Z" fill="#908294"/>
<path d="M23.8 154.088V145.352C23.8 142.744 25.104 141.44 27.712 141.44H34.24L35.656 142.544V144.104H27.784C27.08 144.104 26.728 144.448 26.728 145.136V154.304C26.728 154.992 27.08 155.336 27.784 155.336H35.656V156.896L34.24 158H27.712C25.104 158 23.8 156.696 23.8 154.088ZM38.4674 154.208V149.192C38.4674 146.664 39.7314 145.4 42.2594 145.4H45.6194C48.1314 145.4 49.3874 146.664 49.3874 149.192V154.208C49.3874 156.736 48.1314 158 45.6194 158H42.2594C39.7314 158 38.4674 156.736 38.4674 154.208ZM41.2754 154.448C41.2754 155.184 41.6434 155.552 42.3794 155.552H45.4754C46.2114 155.552 46.5794 155.184 46.5794 154.448V148.952C46.5794 148.216 46.2114 147.848 45.4754 147.848H42.3794C41.6434 147.848 41.2754 148.216 41.2754 148.952V154.448ZM52.7922 158V145.4H59.7042C62.2162 145.4 63.4722 146.664 63.4722 149.192V158H60.6642V148.952C60.6642 148.216 60.2962 147.848 59.5602 147.848H55.6002V158H52.7922ZM66.9719 158V145.4H73.8839C76.3959 145.4 77.6519 146.664 77.6519 149.192V158H74.8439V148.952C74.8439 148.216 74.4759 147.848 73.7399 147.848H69.7799V158H66.9719ZM80.9596 154.208V149.192C80.9596 146.664 82.2236 145.4 84.7516 145.4H87.8716C90.3836 145.4 91.6396 146.664 91.6396 149.192V152.744H83.7676V154.448C83.7676 155.184 84.1356 155.552 84.8716 155.552H91.1596V157.064L89.8876 158H84.7516C82.2236 158 80.9596 156.736 80.9596 154.208ZM83.7676 150.56H88.8316V148.952C88.8316 148.216 88.4636 147.848 87.7276 147.848H84.8716C84.1356 147.848 83.7676 148.216 83.7676 148.952V150.56ZM94.858 154.208V149.192C94.858 146.664 96.122 145.4 98.65 145.4H103.186L104.458 146.336V147.848H98.77C98.034 147.848 97.666 148.216 97.666 148.952V154.448C97.666 155.184 98.034 155.552 98.77 155.552H104.458V157.064L103.186 158H98.65C96.122 158 94.858 156.736 94.858 154.208ZM107.259 154.208V141.44H110.067V145.4H114.363V147.848H110.067V154.448C110.067 155.184 110.435 155.552 111.171 155.552H114.603V157.064L113.331 158H111.051C108.523 158 107.259 156.736 107.259 154.208ZM121.93 142.016L122.338 141.44H124.738L127.69 155.336H127.954L131.098 143.12H134.002L137.122 155.336H137.41L140.362 141.44H142.762L143.17 142.016L139.738 158H135.01L132.538 148.256L130.09 158H125.386L121.93 142.016ZM148.068 158C145.54 158 144.276 156.752 144.276 154.256C144.276 151.76 145.54 150.512 148.068 150.512H151.764V148.952C151.764 148.216 151.396 147.848 150.66 147.848H145.572V146.336L146.82 145.4H150.804C153.316 145.4 154.572 146.664 154.572 149.192V158H148.068ZM147.084 154.448C147.084 155.184 147.452 155.552 148.188 155.552H151.764V152.696H148.188C147.452 152.696 147.084 153.056 147.084 153.776V154.448ZM157.977 153.824V140.24H160.785V154.112C160.785 155.152 161.313 155.712 162.369 155.792V158.216C159.441 158.216 157.977 156.752 157.977 153.824ZM164.985 153.824V140.24H167.793V154.112C167.793 155.152 168.321 155.712 169.377 155.792V158.216C166.449 158.216 164.985 156.752 164.985 153.824ZM171.897 154.208V149.192C171.897 146.664 173.161 145.4 175.689 145.4H178.809C181.321 145.4 182.577 146.664 182.577 149.192V152.744H174.705V154.448C174.705 155.184 175.073 155.552 175.809 155.552H182.097V157.064L180.825 158H175.689C173.161 158 171.897 156.736 171.897 154.208ZM174.705 150.56H179.769V148.952C179.769 148.216 179.401 147.848 178.665 147.848H175.809C175.073 147.848 174.705 148.216 174.705 148.952V150.56ZM185.892 154.208V141.44H188.7V145.4H192.996V147.848H188.7V154.448C188.7 155.184 189.068 155.552 189.804 155.552H193.236V157.064L191.964 158H189.684C187.156 158 185.892 156.736 185.892 154.208Z" fill="white"/>
<path d="M210 82C209.448 82 209 82.4477 209 83C209 83.5523 209.448 84 210 84L210 82ZM381.774 83L376 77.2265L370.227 83L376 88.7735L381.774 83ZM215.929 84C216.481 84 216.929 83.5523 216.929 83C216.929 82.4477 216.481 82 215.929 82L215.929 84ZM227.786 82C227.233 82 226.786 82.4477 226.786 83C226.786 83.5523 227.233 84 227.786 84L227.786 82ZM239.643 84C240.195 84 240.643 83.5523 240.643 83C240.643 82.4477 240.195 82 239.643 82L239.643 84ZM251.5 82C250.948 82 250.5 82.4477 250.5 83C250.5 83.5523 250.948 84 251.5 84L251.5 82ZM263.357 84C263.909 84 264.357 83.5523 264.357 83C264.357 82.4477 263.909 82 263.357 82L263.357 84ZM275.214 82C274.662 82 274.214 82.4477 274.214 83C274.214 83.5523 274.662 84 275.214 84L275.214 82ZM287.071 84C287.624 84 288.071 83.5523 288.071 83C288.071 82.4477 287.624 82 287.071 82L287.071 84ZM298.929 82C298.376 82 297.929 82.4477 297.929 83C297.929 83.5523 298.376 84 298.929 84L298.929 82ZM310.786 84C311.338 84 311.786 83.5523 311.786 83C311.786 82.4477 311.338 82 310.786 82L310.786 84ZM322.643 82C322.091 82 321.643 82.4477 321.643 83C321.643 83.5523 322.091 84 322.643 84L322.643 82ZM334.5 84C335.052 84 335.5 83.5523 335.5 83C335.5 82.4477 335.052 82 334.5 82L334.5 84ZM346.357 82C345.805 82 345.357 82.4477 345.357 83C345.357 83.5523 345.805 84 346.357 84L346.357 82ZM358.214 84C358.767 84 359.214 83.5523 359.214 83C359.214 82.4477 358.767 82 358.214 82L358.214 84ZM370.071 82C369.519 82 369.071 82.4477 369.071 83C369.071 83.5523 369.519 84 370.071 84L370.071 82ZM210 84L215.929 84L215.929 82L210 82L210 84ZM227.786 84L239.643 84L239.643 82L227.786 82L227.786 84ZM251.5 84L263.357 84L263.357 82L251.5 82L251.5 84ZM275.214 84L287.071 84L287.071 82L275.214 82L275.214 84ZM298.929 84L310.786 84L310.786 82L298.929 82L298.929 84ZM322.643 84L334.5 84L334.5 82L322.643 82L322.643 84ZM346.357 84L358.214 84L358.214 82L346.357 82L346.357 84ZM370.071 84L376 84L376 82L370.071 82L370.071 84Z" fill="white"/>
<path d="M385.459 134.504C385.45 133.952 384.996 133.511 384.444 133.52C383.891 133.528 383.451 133.983 383.459 134.535L385.459 134.504ZM387.087 306.273L392.772 300.412L386.91 294.727L381.226 300.588L387.087 306.273ZM332.96 877.004C332.952 876.452 332.497 876.011 331.945 876.02C331.393 876.028 330.952 876.483 330.96 877.035L332.96 877.004ZM334.588 1048.77L340.273 1042.91L334.412 1037.23L328.727 1043.09L334.588 1048.77ZM383.55 140.463C383.558 141.015 384.013 141.456 384.565 141.447C385.117 141.439 385.558 140.984 385.55 140.432L383.55 140.463ZM385.731 152.288C385.723 151.736 385.268 151.295 384.716 151.303C384.164 151.312 383.723 151.766 383.731 152.318L385.731 152.288ZM383.913 164.174C383.921 164.726 384.376 165.167 384.928 165.159C385.48 165.15 385.921 164.696 385.912 164.144L383.913 164.174ZM386.094 175.999C386.085 175.447 385.631 175.006 385.079 175.015C384.526 175.023 384.086 175.478 384.094 176.03L386.094 175.999ZM384.275 187.886C384.284 188.438 384.738 188.879 385.291 188.87C385.843 188.862 386.284 188.407 386.275 187.855L384.275 187.886ZM386.457 199.711C386.448 199.159 385.994 198.718 385.441 198.726C384.889 198.735 384.448 199.189 384.457 199.741L386.457 199.711ZM384.638 211.597C384.647 212.149 385.101 212.59 385.653 212.582C386.206 212.573 386.647 212.119 386.638 211.567L384.638 211.597ZM386.819 223.422C386.811 222.87 386.357 222.429 385.804 222.438C385.252 222.446 384.811 222.901 384.82 223.453L386.819 223.422ZM385.001 235.309C385.01 235.861 385.464 236.302 386.016 236.293C386.569 236.285 387.009 235.83 387.001 235.278L385.001 235.309ZM387.182 247.134C387.174 246.582 386.719 246.141 386.167 246.149C385.615 246.158 385.174 246.612 385.183 247.164L387.182 247.134ZM385.364 259.02C385.372 259.572 385.827 260.013 386.379 260.005C386.931 259.996 387.372 259.542 387.364 258.99L385.364 259.02ZM387.545 270.845C387.537 270.293 387.082 269.852 386.53 269.861C385.978 269.869 385.537 270.324 385.545 270.876L387.545 270.845ZM385.727 282.732C385.735 283.284 386.19 283.725 386.742 283.716C387.294 283.708 387.735 283.253 387.727 282.701L385.727 282.732ZM387.908 294.557C387.899 294.005 387.445 293.564 386.893 293.572C386.341 293.581 385.9 294.035 385.908 294.588L387.908 294.557ZM331.051 882.963C331.059 883.515 331.514 883.956 332.066 883.947C332.618 883.939 333.059 883.484 333.051 882.932L331.051 882.963ZM333.232 894.788C333.224 894.236 332.769 893.795 332.217 893.803C331.665 893.812 331.224 894.266 331.232 894.818L333.232 894.788ZM331.414 906.674C331.422 907.226 331.877 907.667 332.429 907.659C332.981 907.65 333.422 907.196 333.414 906.644L331.414 906.674ZM333.595 918.499C333.587 917.947 333.132 917.506 332.58 917.515C332.028 917.523 331.587 917.978 331.595 918.53L333.595 918.499ZM331.777 930.386C331.785 930.938 332.24 931.379 332.792 931.37C333.344 931.362 333.785 930.907 333.776 930.355L331.777 930.386ZM333.958 942.211C333.949 941.659 333.495 941.218 332.943 941.226C332.39 941.235 331.95 941.689 331.958 942.241L333.958 942.211ZM332.14 954.097C332.148 954.649 332.602 955.09 333.155 955.082C333.707 955.073 334.148 954.619 334.139 954.067L332.14 954.097ZM334.321 965.922C334.312 965.37 333.858 964.929 333.306 964.938C332.753 964.946 332.312 965.401 332.321 965.953L334.321 965.922ZM332.502 977.809C332.511 978.361 332.965 978.802 333.518 978.793C334.07 978.785 334.511 978.33 334.502 977.778L332.502 977.809ZM334.684 989.634C334.675 989.082 334.221 988.641 333.668 988.649C333.116 988.658 332.675 989.112 332.684 989.664L334.684 989.634ZM332.865 1001.52C332.874 1002.07 333.328 1002.51 333.88 1002.5C334.433 1002.5 334.873 1002.04 334.865 1001.49L332.865 1001.52ZM335.046 1013.35C335.038 1012.79 334.583 1012.35 334.031 1012.36C333.479 1012.37 333.038 1012.82 333.047 1013.38L335.046 1013.35ZM333.228 1025.23C333.236 1025.78 333.691 1026.22 334.243 1026.22C334.795 1026.21 335.236 1025.75 335.228 1025.2L333.228 1025.23ZM335.409 1037.06C335.401 1036.5 334.946 1036.06 334.394 1036.07C333.842 1036.08 333.401 1036.54 333.409 1037.09L335.409 1037.06ZM383.459 134.535L383.55 140.463L385.55 140.432L385.459 134.504L383.459 134.535ZM383.731 152.318L383.913 164.174L385.912 164.144L385.731 152.288L383.731 152.318ZM384.094 176.03L384.275 187.886L386.275 187.855L386.094 175.999L384.094 176.03ZM384.457 199.741L384.638 211.597L386.638 211.567L386.457 199.711L384.457 199.741ZM384.82 223.453L385.001 235.309L387.001 235.278L386.819 223.422L384.82 223.453ZM385.183 247.164L385.364 259.02L387.364 258.99L387.182 247.134L385.183 247.164ZM385.545 270.876L385.727 282.732L387.727 282.701L387.545 270.845L385.545 270.876ZM385.908 294.588L385.999 300.515L387.999 300.485L387.908 294.557L385.908 294.588ZM330.96 877.035L331.051 882.963L333.051 882.932L332.96 877.004L330.96 877.035ZM331.232 894.818L331.414 906.674L333.414 906.644L333.232 894.788L331.232 894.818ZM331.595 918.53L331.777 930.386L333.776 930.355L333.595 918.499L331.595 918.53ZM331.958 942.241L332.14 954.097L334.139 954.067L333.958 942.211L331.958 942.241ZM332.321 965.953L332.502 977.809L334.502 977.778L334.321 965.922L332.321 965.953ZM332.684 989.664L332.865 1001.52L334.865 1001.49L334.684 989.634L332.684 989.664ZM333.047 1013.38L333.228 1025.23L335.228 1025.2L335.046 1013.35L333.047 1013.38ZM333.409 1037.09L333.5 1043.02L335.5 1042.98L335.409 1037.06L333.409 1037.09Z" fill="white"/>
<path d="M77.9999 517.985C77.9914 517.432 77.5369 516.992 76.9847 517C76.4325 517.009 75.9917 517.463 76.0001 518.015L77.9999 517.985ZM79.6281 689.753L85.3126 683.892L79.4514 678.208L73.767 684.069L79.6281 689.753ZM76.0908 523.943C76.0993 524.495 76.5538 524.936 77.106 524.928C77.6582 524.919 78.099 524.465 78.0906 523.913L76.0908 523.943ZM78.272 535.768C78.2636 535.216 77.809 534.775 77.2568 534.784C76.7046 534.792 76.2638 535.247 76.2722 535.799L78.272 535.768ZM76.4536 547.655C76.4621 548.207 76.9166 548.648 77.4688 548.639C78.0211 548.631 78.4619 548.176 78.4534 547.624L76.4536 547.655ZM78.6348 559.48C78.6264 558.928 78.1719 558.487 77.6196 558.495C77.0674 558.504 76.6266 558.958 76.6351 559.51L78.6348 559.48ZM76.8165 571.366C76.8249 571.918 77.2794 572.359 77.8317 572.351C78.3839 572.342 78.8247 571.888 78.8162 571.336L76.8165 571.366ZM78.9977 583.191C78.9892 582.639 78.5347 582.198 77.9825 582.207C77.4303 582.215 76.9894 582.67 76.9979 583.222L78.9977 583.191ZM77.1793 595.078C77.1878 595.63 77.6423 596.071 78.1945 596.062C78.7467 596.054 79.1875 595.599 79.1791 595.047L77.1793 595.078ZM79.3605 606.903C79.352 606.351 78.8975 605.91 78.3453 605.918C77.7931 605.927 77.3523 606.381 77.3607 606.933L79.3605 606.903ZM77.5421 618.789C77.5506 619.341 78.0051 619.782 78.5573 619.774C79.1095 619.765 79.5503 619.311 79.5419 618.759L77.5421 618.789ZM79.7233 630.614C79.7149 630.062 79.2603 629.621 78.7081 629.63C78.1559 629.638 77.7151 630.093 77.7235 630.645L79.7233 630.614ZM77.905 642.501C77.9134 643.053 78.3679 643.494 78.9201 643.485C79.4724 643.477 79.9132 643.022 79.9047 642.47L77.905 642.501ZM80.0861 654.326C80.0777 653.774 79.6232 653.333 79.0709 653.341C78.5187 653.35 78.0779 653.804 78.0864 654.356L80.0861 654.326ZM78.2678 666.212C78.2762 666.764 78.7307 667.205 79.283 667.197C79.8352 667.188 80.276 666.734 80.2675 666.182L78.2678 666.212ZM80.449 678.037C80.4405 677.485 79.986 677.044 79.4338 677.053C78.8816 677.061 78.4407 677.516 78.4492 678.068L80.449 678.037ZM76.0001 518.015L76.0908 523.943L78.0906 523.913L77.9999 517.985L76.0001 518.015ZM76.2722 535.799L76.4536 547.655L78.4534 547.624L78.272 535.768L76.2722 535.799ZM76.6351 559.51L76.8165 571.366L78.8162 571.336L78.6348 559.48L76.6351 559.51ZM76.9979 583.222L77.1793 595.078L79.1791 595.047L78.9977 583.191L76.9979 583.222ZM77.3607 606.933L77.5421 618.789L79.5419 618.759L79.3605 606.903L77.3607 606.933ZM77.7235 630.645L77.905 642.501L79.9047 642.47L79.7233 630.614L77.7235 630.645ZM78.0864 654.356L78.2678 666.212L80.2675 666.182L80.0861 654.326L78.0864 654.356ZM78.4492 678.068L78.5399 683.996L80.5397 683.965L80.449 678.037L78.4492 678.068Z" fill="white"/>
<g filter="url(#filter1_b_234_1351)">
<circle cx="130.5" cy="325" r="53" fill="url(#paint1_linear_234_1351)"/>
</g>
<g clip-path="url(#clip1_234_1351)">
<path d="M114 311.5C113.602 311.5 113.221 311.342 112.939 311.061C112.658 310.779 112.5 310.398 112.5 310C112.5 309.602 112.658 309.221 112.939 308.939C113.221 308.658 113.602 308.5 114 308.5H147C147.398 308.5 147.779 308.658 148.061 308.939C148.342 309.221 148.5 309.602 148.5 310C148.5 310.398 148.342 310.779 148.061 311.061C147.779 311.342 147.398 311.5 147 311.5H114ZM120 305.5C119.602 305.5 119.221 305.342 118.939 305.061C118.658 304.779 118.5 304.398 118.5 304C118.5 303.602 118.658 303.221 118.939 302.939C119.221 302.658 119.602 302.5 120 302.5H141C141.398 302.5 141.779 302.658 142.061 302.939C142.342 303.221 142.5 303.602 142.5 304C142.5 304.398 142.342 304.779 142.061 305.061C141.779 305.342 141.398 305.5 141 305.5H120ZM106.5 340C106.5 341.193 106.974 342.338 107.818 343.182C108.662 344.026 109.807 344.5 111 344.5H150C151.193 344.5 152.338 344.026 153.182 343.182C154.026 342.338 154.5 341.193 154.5 340V319C154.5 317.807 154.026 316.662 153.182 315.818C152.338 314.974 151.193 314.5 150 314.5H111C109.807 314.5 108.662 314.974 107.818 315.818C106.974 316.662 106.5 317.807 106.5 319V340ZM111 341.5C110.602 341.5 110.221 341.342 109.939 341.061C109.658 340.779 109.5 340.398 109.5 340V319C109.5 318.602 109.658 318.221 109.939 317.939C110.221 317.658 110.602 317.5 111 317.5H150C150.398 317.5 150.779 317.658 151.061 317.939C151.342 318.221 151.5 318.602 151.5 319V340C151.5 340.398 151.342 340.779 151.061 341.061C150.779 341.342 150.398 341.5 150 341.5H111Z" fill="#F81DFB"/>
</g>
<path d="M32.8075 414.16V423.76C32.8075 425.92 32.2315 427.544 31.0795 428.632C29.9275 429.704 28.2475 430.24 26.0395 430.24C23.8315 430.24 22.1515 429.704 20.9995 428.632C19.8475 427.544 19.2715 425.92 19.2715 423.76V414.16H22.5835V423.616C22.5835 424.944 22.8635 425.928 23.4235 426.568C23.9995 427.208 24.8715 427.528 26.0395 427.528C27.2075 427.528 28.0715 427.208 28.6315 426.568C29.1915 425.928 29.4715 424.944 29.4715 423.616V414.16H32.8075ZM36.2163 435.04V418H39.1683L39.3843 421.816L38.9763 421.384C39.1203 420.68 39.3843 420.056 39.7683 419.512C40.1683 418.968 40.6723 418.544 41.2803 418.24C41.8883 417.92 42.5683 417.76 43.3203 417.76C44.2963 417.76 45.1683 418.008 45.9363 418.504C46.7043 419 47.3043 419.712 47.7363 420.64C48.1843 421.552 48.4083 422.664 48.4083 423.976C48.4083 425.288 48.1843 426.416 47.7363 427.36C47.2883 428.288 46.6723 429 45.8883 429.496C45.1203 429.992 44.2403 430.24 43.2483 430.24C42.1923 430.24 41.3123 429.944 40.6083 429.352C39.9203 428.76 39.4483 428.016 39.1923 427.12L39.5043 426.616V435.04H36.2163ZM42.2883 427.72C43.1683 427.72 43.8563 427.408 44.3523 426.784C44.8643 426.144 45.1203 425.216 45.1203 424C45.1203 422.784 44.8723 421.864 44.3763 421.24C43.8963 420.6 43.2163 420.28 42.3363 420.28C41.7763 420.28 41.2803 420.432 40.8483 420.736C40.4323 421.024 40.1043 421.448 39.8643 422.008C39.6243 422.552 39.5043 423.216 39.5043 424C39.5043 424.768 39.6163 425.432 39.8403 425.992C40.0643 426.552 40.3843 426.984 40.8003 427.288C41.2323 427.576 41.7283 427.72 42.2883 427.72ZM54.5032 412.744V426.304C54.5032 426.864 54.5992 427.256 54.7912 427.48C54.9832 427.704 55.3032 427.816 55.7512 427.816C56.0232 427.816 56.2472 427.8 56.4232 427.768C56.5992 427.72 56.8232 427.656 57.0952 427.576L56.8072 429.736C56.5352 429.896 56.1912 430.016 55.7752 430.096C55.3752 430.192 54.9752 430.24 54.5752 430.24C53.4072 430.24 52.5512 429.96 52.0072 429.4C51.4792 428.824 51.2152 427.912 51.2152 426.664V412.744H54.5032ZM64.3992 417.76C65.6152 417.76 66.6792 418.008 67.5912 418.504C68.5192 419 69.2392 419.712 69.7512 420.64C70.2792 421.568 70.5432 422.688 70.5432 424C70.5432 425.296 70.2792 426.416 69.7512 427.36C69.2392 428.288 68.5192 429 67.5912 429.496C66.6792 429.992 65.6152 430.24 64.3992 430.24C63.1992 430.24 62.1352 429.992 61.2072 429.496C60.2792 429 59.5512 428.288 59.0232 427.36C58.5112 426.416 58.2552 425.296 58.2552 424C58.2552 422.688 58.5112 421.568 59.0232 420.64C59.5512 419.712 60.2792 419 61.2072 418.504C62.1352 418.008 63.1992 417.76 64.3992 417.76ZM64.3992 420.208C63.7912 420.208 63.2712 420.352 62.8392 420.64C62.4232 420.912 62.1032 421.328 61.8792 421.888C61.6552 422.448 61.5432 423.152 61.5432 424C61.5432 424.848 61.6552 425.552 61.8792 426.112C62.1032 426.672 62.4232 427.096 62.8392 427.384C63.2712 427.656 63.7912 427.792 64.3992 427.792C64.9912 427.792 65.4952 427.656 65.9112 427.384C66.3432 427.096 66.6712 426.672 66.8952 426.112C67.1192 425.552 67.2312 424.848 67.2312 424C67.2312 423.152 67.1192 422.448 66.8952 421.888C66.6712 421.328 66.3432 420.912 65.9112 420.64C65.4952 420.352 64.9912 420.208 64.3992 420.208ZM80.0641 422.344C80.0641 421.656 79.8641 421.12 79.4641 420.736C79.0801 420.352 78.5681 420.16 77.9281 420.16C77.3361 420.16 76.8161 420.312 76.3681 420.616C75.9201 420.92 75.5921 421.424 75.3841 422.128L72.5761 421.264C72.8481 420.208 73.4401 419.36 74.3521 418.72C75.2801 418.08 76.5201 417.76 78.0721 417.76C79.1281 417.76 80.0481 417.928 80.8321 418.264C81.6161 418.584 82.2241 419.072 82.6561 419.728C83.1041 420.384 83.3281 421.208 83.3281 422.2V427.072C83.3281 427.68 83.6161 427.984 84.1921 427.984C84.4641 427.984 84.7201 427.944 84.9601 427.864L84.7681 429.904C84.3521 430.112 83.8321 430.216 83.2081 430.216C82.6481 430.216 82.1441 430.12 81.6961 429.928C81.2481 429.736 80.8961 429.448 80.6401 429.064C80.3841 428.664 80.2561 428.168 80.2561 427.576V427.48L80.8321 427.384C80.7361 427.992 80.4721 428.512 80.0401 428.944C79.6081 429.36 79.0801 429.68 78.4561 429.904C77.8481 430.128 77.2161 430.24 76.5601 430.24C75.7441 430.24 75.0401 430.12 74.4481 429.88C73.8561 429.624 73.4001 429.256 73.0801 428.776C72.7601 428.296 72.6001 427.704 72.6001 427C72.6001 426.104 72.8881 425.376 73.4641 424.816C74.0401 424.24 74.8641 423.848 75.9361 423.64L80.4481 422.728L80.4241 424.768L77.5441 425.344C77.0001 425.456 76.5841 425.608 76.2961 425.8C76.0241 425.976 75.8881 426.272 75.8881 426.688C75.8881 427.088 76.0321 427.392 76.3201 427.6C76.6241 427.808 76.9841 427.912 77.4001 427.912C77.7361 427.912 78.0641 427.872 78.3841 427.792C78.7041 427.712 78.9921 427.584 79.2481 427.408C79.5041 427.232 79.7041 426.992 79.8481 426.688C79.9921 426.384 80.0641 426.016 80.0641 425.584V422.344ZM91.4945 430.24C90.5025 430.24 89.6145 429.992 88.8305 429.496C88.0625 429 87.4545 428.288 87.0065 427.36C86.5745 426.432 86.3585 425.32 86.3585 424.024C86.3585 422.696 86.5905 421.568 87.0545 420.64C87.5185 419.696 88.1425 418.984 88.9265 418.504C89.7265 418.008 90.6225 417.76 91.6145 417.76C92.6705 417.76 93.5425 418.064 94.2305 418.672C94.9185 419.28 95.3665 420.064 95.5745 421.024L95.2625 421.408V412.744H98.5505V430H95.5985L95.3825 426.352L95.7905 426.544C95.6785 427.296 95.4225 427.952 95.0225 428.512C94.6225 429.056 94.1185 429.48 93.5105 429.784C92.9025 430.088 92.2305 430.24 91.4945 430.24ZM92.4545 427.72C93.0305 427.72 93.5265 427.576 93.9425 427.288C94.3585 426.984 94.6785 426.544 94.9025 425.968C95.1425 425.392 95.2625 424.704 95.2625 423.904C95.2625 423.136 95.1505 422.488 94.9265 421.96C94.7025 421.416 94.3825 421 93.9665 420.712C93.5505 420.424 93.0625 420.28 92.5025 420.28C91.6065 420.28 90.9025 420.6 90.3905 421.24C89.8945 421.864 89.6465 422.784 89.6465 424C89.6465 425.216 89.8945 426.144 90.3905 426.784C90.8865 427.408 91.5745 427.72 92.4545 427.72ZM115.461 413.92C116.901 413.92 118.165 414.168 119.253 414.664C120.341 415.16 121.269 415.896 122.037 416.872L120.189 419.008C119.533 418.176 118.813 417.568 118.029 417.184C117.261 416.784 116.365 416.584 115.341 416.584C114.669 416.584 114.109 416.672 113.661 416.848C113.229 417.024 112.909 417.256 112.701 417.544C112.509 417.832 112.413 418.152 112.413 418.504C112.413 418.936 112.581 419.304 112.917 419.608C113.253 419.896 113.829 420.136 114.645 420.328L117.597 421C119.165 421.352 120.285 421.88 120.957 422.584C121.645 423.272 121.989 424.168 121.989 425.272C121.989 426.312 121.717 427.208 121.173 427.96C120.629 428.696 119.869 429.264 118.893 429.664C117.917 430.048 116.797 430.24 115.533 430.24C114.429 430.24 113.413 430.112 112.485 429.856C111.573 429.584 110.757 429.216 110.037 428.752C109.317 428.288 108.717 427.752 108.237 427.144L110.109 424.912C110.477 425.424 110.933 425.88 111.477 426.28C112.021 426.68 112.637 427 113.325 427.24C114.029 427.464 114.765 427.576 115.533 427.576C116.189 427.576 116.741 427.504 117.189 427.36C117.653 427.2 117.997 426.984 118.221 426.712C118.461 426.424 118.581 426.08 118.581 425.68C118.581 425.264 118.437 424.912 118.149 424.624C117.877 424.32 117.365 424.088 116.613 423.928L113.397 423.208C112.469 422.984 111.669 422.696 110.997 422.344C110.341 421.976 109.837 421.512 109.485 420.952C109.149 420.376 108.981 419.696 108.981 418.912C108.981 417.968 109.237 417.12 109.749 416.368C110.261 415.616 110.997 415.024 111.957 414.592C112.933 414.144 114.101 413.92 115.461 413.92ZM129.035 414.328V426.088C129.035 426.664 129.179 427.088 129.467 427.36C129.771 427.616 130.179 427.744 130.691 427.744C131.091 427.744 131.443 427.688 131.747 427.576C132.051 427.448 132.323 427.28 132.563 427.072L133.091 429.256C132.707 429.56 132.227 429.8 131.651 429.976C131.075 430.152 130.467 430.24 129.827 430.24C129.027 430.24 128.315 430.12 127.691 429.88C127.083 429.64 126.603 429.256 126.251 428.728C125.915 428.2 125.747 427.496 125.747 426.616V415.24L129.035 414.328ZM132.875 418V420.448H123.539V418H132.875ZM140.571 417.76C141.787 417.76 142.851 418.008 143.763 418.504C144.691 419 145.411 419.712 145.923 420.64C146.451 421.568 146.715 422.688 146.715 424C146.715 425.296 146.451 426.416 145.923 427.36C145.411 428.288 144.691 429 143.763 429.496C142.851 429.992 141.787 430.24 140.571 430.24C139.371 430.24 138.307 429.992 137.379 429.496C136.451 429 135.723 428.288 135.195 427.36C134.683 426.416 134.427 425.296 134.427 424C134.427 422.688 134.683 421.568 135.195 420.64C135.723 419.712 136.451 419 137.379 418.504C138.307 418.008 139.371 417.76 140.571 417.76ZM140.571 420.208C139.963 420.208 139.443 420.352 139.011 420.64C138.595 420.912 138.275 421.328 138.051 421.888C137.827 422.448 137.715 423.152 137.715 424C137.715 424.848 137.827 425.552 138.051 426.112C138.275 426.672 138.595 427.096 139.011 427.384C139.443 427.656 139.963 427.792 140.571 427.792C141.163 427.792 141.667 427.656 142.083 427.384C142.515 427.096 142.843 426.672 143.067 426.112C143.291 425.552 143.403 424.848 143.403 424C143.403 423.152 143.291 422.448 143.067 421.888C142.843 421.328 142.515 420.912 142.083 420.64C141.667 420.352 141.163 420.208 140.571 420.208ZM149.466 430V418H152.322L152.538 420.352C152.858 419.52 153.322 418.88 153.93 418.432C154.554 417.984 155.33 417.76 156.258 417.76C156.53 417.76 156.778 417.784 157.002 417.832C157.226 417.88 157.41 417.944 157.554 418.024L157.17 420.784C157.01 420.72 156.81 420.672 156.57 420.64C156.346 420.608 156.05 420.592 155.682 420.592C155.202 420.592 154.738 420.712 154.29 420.952C153.842 421.176 153.474 421.528 153.186 422.008C152.898 422.472 152.754 423.064 152.754 423.784V430H149.466ZM161.247 416.272C160.559 416.272 160.047 416.128 159.711 415.84C159.375 415.536 159.207 415.096 159.207 414.52C159.207 413.928 159.375 413.488 159.711 413.2C160.047 412.896 160.559 412.744 161.247 412.744C161.935 412.744 162.447 412.896 162.783 413.2C163.119 413.488 163.287 413.928 163.287 414.52C163.287 415.096 163.119 415.536 162.783 415.84C162.447 416.128 161.935 416.272 161.247 416.272ZM162.879 418V430H159.591V418H162.879ZM171.933 430.24C170.669 430.24 169.565 429.992 168.621 429.496C167.693 429 166.973 428.288 166.461 427.36C165.949 426.432 165.693 425.312 165.693 424C165.693 422.688 165.949 421.568 166.461 420.64C166.973 419.712 167.685 419 168.597 418.504C169.525 418.008 170.581 417.76 171.765 417.76C172.981 417.76 174.013 418.008 174.861 418.504C175.709 418.984 176.357 419.648 176.805 420.496C177.253 421.328 177.477 422.28 177.477 423.352C177.477 423.672 177.469 423.976 177.453 424.264C177.437 424.552 177.413 424.808 177.381 425.032H167.805V422.752H175.941L174.357 423.328C174.357 422.32 174.125 421.544 173.661 421C173.213 420.456 172.573 420.184 171.741 420.184C171.133 420.184 170.605 420.328 170.157 420.616C169.725 420.904 169.397 421.336 169.173 421.912C168.949 422.472 168.837 423.184 168.837 424.048C168.837 424.896 168.957 425.6 169.197 426.16C169.453 426.704 169.805 427.112 170.253 427.384C170.717 427.656 171.269 427.792 171.909 427.792C172.613 427.792 173.181 427.656 173.613 427.384C174.045 427.112 174.381 426.736 174.621 426.256L177.237 427.264C176.981 427.888 176.589 428.424 176.061 428.872C175.549 429.32 174.933 429.664 174.213 429.904C173.509 430.128 172.749 430.24 171.933 430.24ZM185.063 430.24C183.847 430.24 182.735 430.024 181.727 429.592C180.735 429.16 179.927 428.552 179.303 427.768L181.199 425.848C181.583 426.424 182.095 426.896 182.735 427.264C183.375 427.632 184.135 427.816 185.015 427.816C185.639 427.816 186.135 427.728 186.503 427.552C186.887 427.36 187.079 427.064 187.079 426.664C187.079 426.408 186.991 426.192 186.815 426.016C186.639 425.824 186.287 425.672 185.759 425.56L183.647 425.128C182.255 424.84 181.263 424.408 180.671 423.832C180.095 423.24 179.807 422.48 179.807 421.552C179.807 420.896 179.999 420.28 180.383 419.704C180.783 419.128 181.375 418.664 182.159 418.312C182.943 417.944 183.919 417.76 185.087 417.76C186.287 417.76 187.327 417.952 188.207 418.336C189.103 418.704 189.807 419.256 190.319 419.992L188.351 421.912C187.999 421.352 187.535 420.928 186.959 420.64C186.399 420.336 185.807 420.184 185.183 420.184C184.735 420.184 184.351 420.232 184.031 420.328C183.711 420.424 183.471 420.56 183.311 420.736C183.151 420.896 183.071 421.104 183.071 421.36C183.071 421.616 183.183 421.84 183.407 422.032C183.631 422.208 184.039 422.36 184.631 422.488L187.079 422.992C188.263 423.232 189.111 423.64 189.623 424.216C190.135 424.776 190.391 425.456 190.391 426.256C190.391 427.024 190.183 427.712 189.767 428.32C189.367 428.912 188.767 429.384 187.967 429.736C187.183 430.072 186.215 430.24 185.063 430.24ZM212.541 416.824H203.997V420.856H210.741V423.52H203.997V430H200.685V414.16H212.541V416.824ZM219.298 417.76C220.514 417.76 221.578 418.008 222.49 418.504C223.418 419 224.138 419.712 224.65 420.64C225.178 421.568 225.442 422.688 225.442 424C225.442 425.296 225.178 426.416 224.65 427.36C224.138 428.288 223.418 429 222.49 429.496C221.578 429.992 220.514 430.24 219.298 430.24C218.098 430.24 217.034 429.992 216.106 429.496C215.178 429 214.45 428.288 213.922 427.36C213.41 426.416 213.154 425.296 213.154 424C213.154 422.688 213.41 421.568 213.922 420.64C214.45 419.712 215.178 419 216.106 418.504C217.034 418.008 218.098 417.76 219.298 417.76ZM219.298 420.208C218.69 420.208 218.17 420.352 217.738 420.64C217.322 420.912 217.002 421.328 216.778 421.888C216.554 422.448 216.442 423.152 216.442 424C216.442 424.848 216.554 425.552 216.778 426.112C217.002 426.672 217.322 427.096 217.738 427.384C218.17 427.656 218.69 427.792 219.298 427.792C219.89 427.792 220.394 427.656 220.81 427.384C221.242 427.096 221.57 426.672 221.794 426.112C222.018 425.552 222.13 424.848 222.13 424C222.13 423.152 222.018 422.448 221.794 421.888C221.57 421.328 221.242 420.912 220.81 420.64C220.394 420.352 219.89 420.208 219.298 420.208ZM228.193 430V418H231.049L231.265 420.352C231.585 419.52 232.049 418.88 232.657 418.432C233.281 417.984 234.057 417.76 234.985 417.76C235.257 417.76 235.505 417.784 235.729 417.832C235.953 417.88 236.137 417.944 236.281 418.024L235.897 420.784C235.737 420.72 235.537 420.672 235.297 420.64C235.073 420.608 234.777 420.592 234.409 420.592C233.929 420.592 233.465 420.712 233.017 420.952C232.569 421.176 232.201 421.528 231.913 422.008C231.625 422.472 231.481 423.064 231.481 423.784V430H228.193ZM61.9006 442.16V444.824H56.5966V458H53.2846V444.824H47.9566V442.16H61.9006ZM67.4718 458.24C66.2078 458.24 65.1038 457.992 64.1598 457.496C63.2318 457 62.5118 456.288 61.9998 455.36C61.4878 454.432 61.2318 453.312 61.2318 452C61.2318 450.688 61.4878 449.568 61.9998 448.64C62.5118 447.712 63.2238 447 64.1358 446.504C65.0638 446.008 66.1198 445.76 67.3038 445.76C68.5198 445.76 69.5518 446.008 70.3998 446.504C71.2478 446.984 71.8958 447.648 72.3438 448.496C72.7918 449.328 73.0158 450.28 73.0158 451.352C73.0158 451.672 73.0078 451.976 72.9918 452.264C72.9758 452.552 72.9518 452.808 72.9198 453.032H63.3438V450.752H71.4798L69.8958 451.328C69.8958 450.32 69.6638 449.544 69.1998 449C68.7518 448.456 68.1118 448.184 67.2798 448.184C66.6718 448.184 66.1438 448.328 65.6958 448.616C65.2638 448.904 64.9358 449.336 64.7118 449.912C64.4878 450.472 64.3758 451.184 64.3758 452.048C64.3758 452.896 64.4958 453.6 64.7358 454.16C64.9918 454.704 65.3438 455.112 65.7918 455.384C66.2558 455.656 66.8078 455.792 67.4478 455.792C68.1518 455.792 68.7198 455.656 69.1518 455.384C69.5838 455.112 69.9198 454.736 70.1598 454.256L72.7758 455.264C72.5198 455.888 72.1278 456.424 71.5998 456.872C71.0878 457.32 70.4718 457.664 69.7518 457.904C69.0478 458.128 68.2878 458.24 67.4718 458.24ZM77.9037 446L81.0717 451.256L81.9597 451.232L86.7597 458H82.9437L79.6557 452.624L78.6957 452.528L74.0637 446H77.9037ZM86.6877 446L82.0557 452.456L81.0717 452.384L77.5677 458H73.8477L78.8157 451.184L79.7517 451.304L82.9677 446H86.6877ZM93.1518 442.328V454.088C93.1518 454.664 93.2958 455.088 93.5838 455.36C93.8878 455.616 94.2958 455.744 94.8078 455.744C95.2078 455.744 95.5598 455.688 95.8638 455.576C96.1678 455.448 96.4398 455.28 96.6798 455.072L97.2078 457.256C96.8238 457.56 96.3438 457.8 95.7678 457.976C95.1918 458.152 94.5838 458.24 93.9438 458.24C93.1438 458.24 92.4318 458.12 91.8078 457.88C91.1998 457.64 90.7198 457.256 90.3678 456.728C90.0318 456.2 89.8638 455.496 89.8638 454.616V443.24L93.1518 442.328ZM96.9918 446V448.448H87.6558V446H96.9918ZM107.531 450.224V453.056H99.059V450.224H107.531ZM122.041 442.16V444.824H116.737V458H113.425V444.824H108.097V442.16H122.041ZM127.516 445.76C128.732 445.76 129.796 446.008 130.708 446.504C131.636 447 132.356 447.712 132.868 448.64C133.396 449.568 133.66 450.688 133.66 452C133.66 453.296 133.396 454.416 132.868 455.36C132.356 456.288 131.636 457 130.708 457.496C129.796 457.992 128.732 458.24 127.516 458.24C126.316 458.24 125.252 457.992 124.324 457.496C123.396 457 122.668 456.288 122.14 455.36C121.628 454.416 121.372 453.296 121.372 452C121.372 450.688 121.628 449.568 122.14 448.64C122.668 447.712 123.396 447 124.324 446.504C125.252 446.008 126.316 445.76 127.516 445.76ZM127.516 448.208C126.908 448.208 126.388 448.352 125.956 448.64C125.54 448.912 125.22 449.328 124.996 449.888C124.772 450.448 124.66 451.152 124.66 452C124.66 452.848 124.772 453.552 124.996 454.112C125.22 454.672 125.54 455.096 125.956 455.384C126.388 455.656 126.908 455.792 127.516 455.792C128.108 455.792 128.612 455.656 129.028 455.384C129.46 455.096 129.788 454.672 130.012 454.112C130.236 453.552 130.348 452.848 130.348 452C130.348 451.152 130.236 450.448 130.012 449.888C129.788 449.328 129.46 448.912 129.028 448.64C128.612 448.352 128.108 448.208 127.516 448.208ZM145.172 450.224V453.056H136.7V450.224H145.172ZM162.5 458H159.068L157.748 454.136H151.676L150.356 458H146.972L152.756 442.16H156.716L162.5 458ZM152.42 451.688H157.004L154.7 444.776L152.42 451.688ZM168.572 458.24C167.772 458.24 167.052 458.096 166.412 457.808C165.772 457.52 165.26 457.064 164.876 456.44C164.508 455.8 164.324 454.976 164.324 453.968V446H167.612V453.176C167.612 454.104 167.804 454.752 168.188 455.12C168.572 455.472 169.124 455.648 169.844 455.648C170.18 455.648 170.508 455.592 170.828 455.48C171.148 455.352 171.428 455.16 171.668 454.904C171.924 454.648 172.124 454.32 172.268 453.92C172.412 453.504 172.484 453.016 172.484 452.456V446H175.772V458H172.844L172.724 455.912C172.324 456.712 171.772 457.304 171.068 457.688C170.38 458.056 169.548 458.24 168.572 458.24ZM183.768 458.24C182.776 458.24 181.888 457.992 181.104 457.496C180.336 457 179.728 456.288 179.28 455.36C178.848 454.432 178.632 453.32 178.632 452.024C178.632 450.696 178.864 449.568 179.328 448.64C179.792 447.696 180.416 446.984 181.2 446.504C182 446.008 182.896 445.76 183.888 445.76C184.944 445.76 185.816 446.064 186.504 446.672C187.192 447.28 187.64 448.064 187.848 449.024L187.536 449.408V440.744H190.824V458H187.872L187.656 454.352L188.064 454.544C187.952 455.296 187.696 455.952 187.296 456.512C186.896 457.056 186.392 457.48 185.784 457.784C185.176 458.088 184.504 458.24 183.768 458.24ZM184.728 455.72C185.304 455.72 185.8 455.576 186.216 455.288C186.632 454.984 186.952 454.544 187.176 453.968C187.416 453.392 187.536 452.704 187.536 451.904C187.536 451.136 187.424 450.488 187.2 449.96C186.976 449.416 186.656 449 186.24 448.712C185.824 448.424 185.336 448.28 184.776 448.28C183.88 448.28 183.176 448.6 182.664 449.24C182.168 449.864 181.92 450.784 181.92 452C181.92 453.216 182.168 454.144 182.664 454.784C183.16 455.408 183.848 455.72 184.728 455.72ZM195.935 444.272C195.247 444.272 194.735 444.128 194.399 443.84C194.063 443.536 193.895 443.096 193.895 442.52C193.895 441.928 194.063 441.488 194.399 441.2C194.735 440.896 195.247 440.744 195.935 440.744C196.623 440.744 197.135 440.896 197.471 441.2C197.807 441.488 197.975 441.928 197.975 442.52C197.975 443.096 197.807 443.536 197.471 443.84C197.135 444.128 196.623 444.272 195.935 444.272ZM197.567 446V458H194.279V446H197.567ZM206.524 445.76C207.74 445.76 208.804 446.008 209.716 446.504C210.644 447 211.364 447.712 211.876 448.64C212.404 449.568 212.668 450.688 212.668 452C212.668 453.296 212.404 454.416 211.876 455.36C211.364 456.288 210.644 457 209.716 457.496C208.804 457.992 207.74 458.24 206.524 458.24C205.324 458.24 204.26 457.992 203.332 457.496C202.404 457 201.676 456.288 201.148 455.36C200.636 454.416 200.38 453.296 200.38 452C200.38 450.688 200.636 449.568 201.148 448.64C201.676 447.712 202.404 447 203.332 446.504C204.26 446.008 205.324 445.76 206.524 445.76ZM206.524 448.208C205.916 448.208 205.396 448.352 204.964 448.64C204.548 448.912 204.228 449.328 204.004 449.888C203.78 450.448 203.668 451.152 203.668 452C203.668 452.848 203.78 453.552 204.004 454.112C204.228 454.672 204.548 455.096 204.964 455.384C205.396 455.656 205.916 455.792 206.524 455.792C207.116 455.792 207.62 455.656 208.036 455.384C208.468 455.096 208.796 454.672 209.02 454.112C209.244 453.552 209.356 452.848 209.356 452C209.356 451.152 209.244 450.448 209.02 449.888C208.796 449.328 208.468 448.912 208.036 448.64C207.62 448.352 207.116 448.208 206.524 448.208ZM80.7685 481.632C80.4645 482.656 79.9845 483.512 79.3285 484.2C78.6725 484.888 77.8965 485.4 77.0005 485.736C76.1045 486.072 75.1205 486.24 74.0485 486.24C72.4805 486.24 71.1205 485.912 69.9685 485.256C68.8325 484.6 67.9525 483.664 67.3285 482.448C66.7205 481.232 66.4165 479.776 66.4165 478.08C66.4165 476.384 66.7205 474.928 67.3285 473.712C67.9525 472.496 68.8325 471.56 69.9685 470.904C71.1205 470.248 72.4645 469.92 74.0005 469.92C75.0885 469.92 76.0725 470.072 76.9525 470.376C77.8325 470.664 78.5765 471.112 79.1845 471.72C79.8085 472.328 80.2645 473.096 80.5525 474.024L77.5525 475.296C77.2805 474.336 76.8645 473.656 76.3045 473.256C75.7445 472.84 75.0245 472.632 74.1445 472.632C73.2805 472.632 72.5205 472.84 71.8645 473.256C71.2245 473.672 70.7285 474.288 70.3765 475.104C70.0245 475.904 69.8485 476.896 69.8485 478.08C69.8485 479.248 70.0085 480.24 70.3285 481.056C70.6645 481.872 71.1525 482.488 71.7925 482.904C72.4325 483.32 73.2165 483.528 74.1445 483.528C75.0085 483.528 75.7525 483.296 76.3765 482.832C77.0165 482.368 77.4645 481.664 77.7205 480.72L80.7685 481.632ZM88.7273 473.76C89.9433 473.76 91.0073 474.008 91.9193 474.504C92.8473 475 93.5673 475.712 94.0793 476.64C94.6073 477.568 94.8713 478.688 94.8713 480C94.8713 481.296 94.6073 482.416 94.0793 483.36C93.5673 484.288 92.8473 485 91.9193 485.496C91.0073 485.992 89.9433 486.24 88.7273 486.24C87.5273 486.24 86.4633 485.992 85.5353 485.496C84.6073 485 83.8793 484.288 83.3513 483.36C82.8393 482.416 82.5833 481.296 82.5833 480C82.5833 478.688 82.8393 477.568 83.3513 476.64C83.8793 475.712 84.6073 475 85.5353 474.504C86.4633 474.008 87.5273 473.76 88.7273 473.76ZM88.7273 476.208C88.1193 476.208 87.5993 476.352 87.1673 476.64C86.7513 476.912 86.4313 477.328 86.2073 477.888C85.9833 478.448 85.8713 479.152 85.8713 480C85.8713 480.848 85.9833 481.552 86.2073 482.112C86.4313 482.672 86.7513 483.096 87.1673 483.384C87.5993 483.656 88.1193 483.792 88.7273 483.792C89.3193 483.792 89.8233 483.656 90.2393 483.384C90.6713 483.096 90.9993 482.672 91.2233 482.112C91.4473 481.552 91.5593 480.848 91.5593 480C91.5593 479.152 91.4473 478.448 91.2233 477.888C90.9993 477.328 90.6713 476.912 90.2393 476.64C89.8233 476.352 89.3193 476.208 88.7273 476.208ZM97.6225 486V474H100.575L100.767 477.6L100.359 477.216C100.551 476.432 100.855 475.784 101.271 475.272C101.687 474.76 102.191 474.384 102.783 474.144C103.391 473.888 104.055 473.76 104.775 473.76C105.607 473.76 106.343 473.92 106.983 474.24C107.639 474.56 108.151 475.048 108.519 475.704C108.903 476.344 109.095 477.152 109.095 478.128V486H105.807V479.064C105.807 478.04 105.607 477.336 105.207 476.952C104.807 476.552 104.287 476.352 103.647 476.352C103.199 476.352 102.759 476.464 102.327 476.688C101.911 476.896 101.567 477.24 101.295 477.72C101.039 478.2 100.911 478.84 100.911 479.64V486H97.6225ZM120.049 474H123.457L118.897 486H115.105L110.545 474H114.049L117.025 483.48L120.049 474ZM130.706 486.24C129.442 486.24 128.338 485.992 127.394 485.496C126.466 485 125.746 484.288 125.234 483.36C124.722 482.432 124.466 481.312 124.466 480C124.466 478.688 124.722 477.568 125.234 476.64C125.746 475.712 126.458 475 127.37 474.504C128.298 474.008 129.354 473.76 130.538 473.76C131.754 473.76 132.786 474.008 133.634 474.504C134.482 474.984 135.13 475.648 135.578 476.496C136.026 477.328 136.25 478.28 136.25 479.352C136.25 479.672 136.242 479.976 136.226 480.264C136.21 480.552 136.186 480.808 136.154 481.032H126.578V478.752H134.714L133.13 479.328C133.13 478.32 132.898 477.544 132.434 477C131.986 476.456 131.346 476.184 130.514 476.184C129.906 476.184 129.378 476.328 128.93 476.616C128.498 476.904 128.17 477.336 127.946 477.912C127.722 478.472 127.61 479.184 127.61 480.048C127.61 480.896 127.73 481.6 127.97 482.16C128.226 482.704 128.578 483.112 129.026 483.384C129.49 483.656 130.042 483.792 130.682 483.792C131.386 483.792 131.954 483.656 132.386 483.384C132.818 483.112 133.154 482.736 133.394 482.256L136.01 483.264C135.754 483.888 135.362 484.424 134.834 484.872C134.322 485.32 133.706 485.664 132.986 485.904C132.282 486.128 131.522 486.24 130.706 486.24ZM139.037 486V474H141.893L142.109 476.352C142.429 475.52 142.893 474.88 143.501 474.432C144.125 473.984 144.901 473.76 145.829 473.76C146.101 473.76 146.349 473.784 146.573 473.832C146.797 473.88 146.981 473.944 147.125 474.024L146.741 476.784C146.581 476.72 146.381 476.672 146.141 476.64C145.917 476.608 145.621 476.592 145.253 476.592C144.773 476.592 144.309 476.712 143.861 476.952C143.413 477.176 143.045 477.528 142.757 478.008C142.469 478.472 142.325 479.064 142.325 479.784V486H139.037ZM153.633 486.24C152.417 486.24 151.305 486.024 150.297 485.592C149.305 485.16 148.497 484.552 147.873 483.768L149.769 481.848C150.153 482.424 150.665 482.896 151.305 483.264C151.945 483.632 152.705 483.816 153.585 483.816C154.209 483.816 154.705 483.728 155.073 483.552C155.457 483.36 155.649 483.064 155.649 482.664C155.649 482.408 155.561 482.192 155.385 482.016C155.209 481.824 154.857 481.672 154.329 481.56L152.217 481.128C150.825 480.84 149.833 480.408 149.241 479.832C148.665 479.24 148.377 478.48 148.377 477.552C148.377 476.896 148.569 476.28 148.953 475.704C149.353 475.128 149.945 474.664 150.729 474.312C151.513 473.944 152.489 473.76 153.657 473.76C154.857 473.76 155.897 473.952 156.777 474.336C157.673 474.704 158.377 475.256 158.889 475.992L156.921 477.912C156.569 477.352 156.105 476.928 155.529 476.64C154.969 476.336 154.377 476.184 153.753 476.184C153.305 476.184 152.921 476.232 152.601 476.328C152.281 476.424 152.041 476.56 151.881 476.736C151.721 476.896 151.641 477.104 151.641 477.36C151.641 477.616 151.753 477.84 151.977 478.032C152.201 478.208 152.609 478.36 153.201 478.488L155.649 478.992C156.833 479.232 157.681 479.64 158.193 480.216C158.705 480.776 158.961 481.456 158.961 482.256C158.961 483.024 158.753 483.712 158.337 484.32C157.937 484.912 157.337 485.384 156.537 485.736C155.753 486.072 154.785 486.24 153.633 486.24ZM163.239 472.272C162.551 472.272 162.039 472.128 161.703 471.84C161.367 471.536 161.199 471.096 161.199 470.52C161.199 469.928 161.367 469.488 161.703 469.2C162.039 468.896 162.551 468.744 163.239 468.744C163.927 468.744 164.439 468.896 164.775 469.2C165.111 469.488 165.279 469.928 165.279 470.52C165.279 471.096 165.111 471.536 164.775 471.84C164.439 472.128 163.927 472.272 163.239 472.272ZM164.871 474V486H161.583V474H164.871ZM173.829 473.76C175.045 473.76 176.109 474.008 177.021 474.504C177.949 475 178.669 475.712 179.181 476.64C179.709 477.568 179.973 478.688 179.973 480C179.973 481.296 179.709 482.416 179.181 483.36C178.669 484.288 177.949 485 177.021 485.496C176.109 485.992 175.045 486.24 173.829 486.24C172.629 486.24 171.565 485.992 170.637 485.496C169.709 485 168.981 484.288 168.453 483.36C167.941 482.416 167.685 481.296 167.685 480C167.685 478.688 167.941 477.568 168.453 476.64C168.981 475.712 169.709 475 170.637 474.504C171.565 474.008 172.629 473.76 173.829 473.76ZM173.829 476.208C173.221 476.208 172.701 476.352 172.269 476.64C171.853 476.912 171.533 477.328 171.309 477.888C171.085 478.448 170.973 479.152 170.973 480C170.973 480.848 171.085 481.552 171.309 482.112C171.533 482.672 171.853 483.096 172.269 483.384C172.701 483.656 173.221 483.792 173.829 483.792C174.421 483.792 174.925 483.656 175.341 483.384C175.773 483.096 176.101 482.672 176.325 482.112C176.549 481.552 176.661 480.848 176.661 480C176.661 479.152 176.549 478.448 176.325 477.888C176.101 477.328 175.773 476.912 175.341 476.64C174.925 476.352 174.421 476.208 173.829 476.208ZM182.724 486V474H185.676L185.868 477.6L185.46 477.216C185.652 476.432 185.956 475.784 186.372 475.272C186.788 474.76 187.292 474.384 187.884 474.144C188.492 473.888 189.156 473.76 189.876 473.76C190.708 473.76 191.444 473.92 192.084 474.24C192.74 474.56 193.252 475.048 193.62 475.704C194.004 476.344 194.196 477.152 194.196 478.128V486H190.908V479.064C190.908 478.04 190.708 477.336 190.308 476.952C189.908 476.552 189.388 476.352 188.748 476.352C188.3 476.352 187.86 476.464 187.428 476.688C187.012 476.896 186.668 477.24 186.396 477.72C186.14 478.2 186.012 478.84 186.012 479.64V486H182.724Z" fill="white"/>
<path d="M397.999 343C398.552 342.995 398.997 342.543 398.995 341.99C398.993 341.438 398.543 340.995 397.991 341L397.999 343ZM226.227 343.678L232.025 349.395L237.773 343.565L231.975 337.848L226.227 343.678ZM392.062 341.058C391.51 341.063 391.064 341.515 391.067 342.068C391.069 342.62 391.519 343.063 392.071 343.058L392.062 341.058ZM380.214 343.174C380.767 343.168 381.212 342.716 381.21 342.164C381.207 341.612 380.758 341.168 380.206 341.174L380.214 343.174ZM368.349 341.29C367.796 341.295 367.351 341.747 367.353 342.299C367.356 342.852 367.805 343.295 368.357 343.29L368.349 341.29ZM356.501 343.405C357.053 343.4 357.499 342.948 357.496 342.396C357.494 341.843 357.044 341.4 356.492 341.405L356.501 343.405ZM344.635 341.521C344.083 341.527 343.637 341.979 343.64 342.531C343.642 343.083 344.092 343.527 344.644 343.521L344.635 341.521ZM332.787 343.637C333.339 343.632 333.785 343.18 333.783 342.627C333.78 342.075 333.331 341.632 332.778 341.637L332.787 343.637ZM320.921 341.753C320.369 341.758 319.923 342.21 319.926 342.763C319.928 343.315 320.378 343.758 320.93 343.753L320.921 341.753ZM309.073 343.869C309.626 343.863 310.071 343.411 310.069 342.859C310.067 342.307 309.617 341.863 309.065 341.869L309.073 343.869ZM297.208 341.985C296.656 341.99 296.21 342.442 296.212 342.994C296.215 343.547 296.664 343.99 297.217 343.985L297.208 341.985ZM285.36 344.1C285.912 344.095 286.358 343.643 286.355 343.091C286.353 342.538 285.903 342.095 285.351 342.1L285.36 344.1ZM273.494 342.216C272.942 342.222 272.496 342.674 272.499 343.226C272.501 343.778 272.951 344.222 273.503 344.216L273.494 342.216ZM261.646 344.332C262.198 344.327 262.644 343.875 262.642 343.322C262.639 342.77 262.19 342.327 261.637 342.332L261.646 344.332ZM249.781 342.448C249.228 342.453 248.783 342.905 248.785 343.458C248.787 344.01 249.237 344.453 249.789 344.448L249.781 342.448ZM237.933 344.564C238.485 344.558 238.931 344.106 238.928 343.554C238.926 343.002 238.476 342.558 237.924 342.564L237.933 344.564ZM397.991 341L392.062 341.058L392.071 343.058L397.999 343L397.991 341ZM380.206 341.174L368.349 341.29L368.357 343.29L380.214 343.174L380.206 341.174ZM356.492 341.405L344.635 341.521L344.644 343.521L356.501 343.405L356.492 341.405ZM332.778 341.637L320.921 341.753L320.93 343.753L332.787 343.637L332.778 341.637ZM309.065 341.869L297.208 341.985L297.217 343.985L309.073 343.869L309.065 341.869ZM285.351 342.1L273.494 342.216L273.503 344.216L285.36 344.1L285.351 342.1ZM261.637 342.332L249.781 342.448L249.789 344.448L261.646 344.332L261.637 342.332ZM237.924 342.564L231.995 342.622L232.004 344.622L237.933 344.564L237.924 342.564Z" fill="white"/>
<path d="M348.999 1081C349.552 1080.99 349.997 1080.54 349.995 1079.99C349.993 1079.44 349.543 1078.99 348.991 1079L348.999 1081ZM177.227 1081.68L183.025 1087.4L188.773 1081.57L182.975 1075.85L177.227 1081.68ZM343.062 1079.06C342.51 1079.06 342.064 1079.52 342.067 1080.07C342.069 1080.62 342.519 1081.06 343.071 1081.06L343.062 1079.06ZM331.214 1081.17C331.767 1081.17 332.212 1080.72 332.21 1080.16C332.207 1079.61 331.758 1079.17 331.206 1079.17L331.214 1081.17ZM319.349 1079.29C318.796 1079.29 318.351 1079.75 318.353 1080.3C318.356 1080.85 318.805 1081.29 319.357 1081.29L319.349 1079.29ZM307.501 1081.41C308.053 1081.4 308.499 1080.95 308.496 1080.4C308.494 1079.84 308.044 1079.4 307.492 1079.41L307.501 1081.41ZM295.635 1079.52C295.083 1079.53 294.637 1079.98 294.64 1080.53C294.642 1081.08 295.092 1081.53 295.644 1081.52L295.635 1079.52ZM283.787 1081.64C284.339 1081.63 284.785 1081.18 284.783 1080.63C284.78 1080.08 284.331 1079.63 283.778 1079.64L283.787 1081.64ZM271.921 1079.75C271.369 1079.76 270.923 1080.21 270.926 1080.76C270.928 1081.31 271.378 1081.76 271.93 1081.75L271.921 1079.75ZM260.073 1081.87C260.626 1081.86 261.071 1081.41 261.069 1080.86C261.067 1080.31 260.617 1079.86 260.065 1079.87L260.073 1081.87ZM248.208 1079.98C247.656 1079.99 247.21 1080.44 247.212 1080.99C247.215 1081.55 247.664 1081.99 248.217 1081.98L248.208 1079.98ZM236.36 1082.1C236.912 1082.09 237.358 1081.64 237.355 1081.09C237.353 1080.54 236.903 1080.09 236.351 1080.1L236.36 1082.1ZM224.494 1080.22C223.942 1080.22 223.496 1080.67 223.499 1081.23C223.501 1081.78 223.951 1082.22 224.503 1082.22L224.494 1080.22ZM212.646 1082.33C213.198 1082.33 213.644 1081.87 213.642 1081.32C213.639 1080.77 213.19 1080.33 212.637 1080.33L212.646 1082.33ZM200.781 1080.45C200.228 1080.45 199.783 1080.91 199.785 1081.46C199.787 1082.01 200.237 1082.45 200.789 1082.45L200.781 1080.45ZM188.933 1082.56C189.485 1082.56 189.931 1082.11 189.928 1081.55C189.926 1081 189.476 1080.56 188.924 1080.56L188.933 1082.56ZM348.991 1079L343.062 1079.06L343.071 1081.06L348.999 1081L348.991 1079ZM331.206 1079.17L319.349 1079.29L319.357 1081.29L331.214 1081.17L331.206 1079.17ZM307.492 1079.41L295.635 1079.52L295.644 1081.52L307.501 1081.41L307.492 1079.41ZM283.778 1079.64L271.921 1079.75L271.93 1081.75L283.787 1081.64L283.778 1079.64ZM260.065 1079.87L248.208 1079.98L248.217 1081.98L260.073 1081.87L260.065 1079.87ZM236.351 1080.1L224.494 1080.22L224.503 1082.22L236.36 1082.1L236.351 1080.1ZM212.637 1080.33L200.781 1080.45L200.789 1082.45L212.646 1082.33L212.637 1080.33ZM188.924 1080.56L182.995 1080.62L183.004 1082.62L188.933 1082.56L188.924 1080.56Z" fill="white"/>
<path d="M78 710C77.4477 710 77 710.448 77 711C77 711.552 77.4477 712 78 712V710ZM208.774 711L203 705.226L197.226 711L203 716.774L208.774 711ZM84.25 712C84.8023 712 85.25 711.552 85.25 711C85.25 710.448 84.8023 710 84.25 710V712ZM96.75 710C96.1977 710 95.75 710.448 95.75 711C95.75 711.552 96.1977 712 96.75 712V710ZM109.25 712C109.802 712 110.25 711.552 110.25 711C110.25 710.448 109.802 710 109.25 710V712ZM121.75 710C121.198 710 120.75 710.448 120.75 711C120.75 711.552 121.198 712 121.75 712V710ZM134.25 712C134.802 712 135.25 711.552 135.25 711C135.25 710.448 134.802 710 134.25 710V712ZM146.75 710C146.198 710 145.75 710.448 145.75 711C145.75 711.552 146.198 712 146.75 712V710ZM159.25 712C159.802 712 160.25 711.552 160.25 711C160.25 710.448 159.802 710 159.25 710V712ZM171.75 710C171.198 710 170.75 710.448 170.75 711C170.75 711.552 171.198 712 171.75 712V710ZM184.25 712C184.802 712 185.25 711.552 185.25 711C185.25 710.448 184.802 710 184.25 710V712ZM196.75 710C196.198 710 195.75 710.448 195.75 711C195.75 711.552 196.198 712 196.75 712V710ZM78 712H84.25V710H78V712ZM96.75 712H109.25V710H96.75V712ZM121.75 712H134.25V710H121.75V712ZM146.75 712H159.25V710H146.75V712ZM171.75 712H184.25V710H171.75V712ZM196.75 712H203V710H196.75V712Z" fill="white"/>
<g filter="url(#filter2_b_234_1351)">
<circle cx="322.5" cy="710" r="53" fill="url(#paint2_linear_234_1351)"/>
</g>
<path d="M320.632 702.008L321 701.998H336C337.66 701.998 339.257 702.633 340.464 703.772C341.67 704.912 342.395 706.471 342.49 708.128L342.5 708.498V723.498C342.5 725.158 341.865 726.756 340.725 727.962C339.584 729.169 338.025 729.894 336.368 729.988L336 729.998H321C319.34 729.998 317.742 729.363 316.535 728.223C315.329 727.082 314.604 725.523 314.51 723.866L314.5 723.5V708.5C314.5 706.84 315.135 705.242 316.275 704.035C317.415 702.829 318.974 702.104 320.632 702.01V702.008ZM336 704.998H321C320.121 704.998 319.275 705.328 318.629 705.923C317.983 706.518 317.584 707.334 317.512 708.21L317.5 708.498V723.498C317.5 724.377 317.831 725.223 318.426 725.869C319.021 726.515 319.838 726.914 320.714 726.986L321 726.998H336C336.879 726.998 337.725 726.667 338.371 726.072C339.017 725.476 339.416 724.66 339.488 723.784L339.5 723.498V708.498C339.5 707.57 339.131 706.679 338.475 706.023C337.818 705.367 336.928 704.998 336 704.998V704.998ZM328.5 708C328.898 708 329.279 708.158 329.561 708.439C329.842 708.72 330 709.102 330 709.5V714.496H335C335.398 714.496 335.779 714.654 336.061 714.935C336.342 715.216 336.5 715.598 336.5 715.996C336.5 716.394 336.342 716.775 336.061 717.057C335.779 717.338 335.398 717.496 335 717.496H330V722.5C330 722.898 329.842 723.279 329.561 723.561C329.279 723.842 328.898 724 328.5 724C328.102 724 327.72 723.842 327.439 723.561C327.158 723.279 327 722.898 327 722.5V717.496H322C321.602 717.496 321.22 717.338 320.939 717.057C320.658 716.775 320.5 716.394 320.5 715.996C320.5 715.598 320.658 715.216 320.939 714.935C321.22 714.654 321.602 714.496 322 714.496H327V709.5C327 709.102 327.158 708.72 327.439 708.439C327.72 708.158 328.102 708 328.5 708ZM329.664 694.466L329.768 694.82L331.154 699.996H328.048L326.872 695.596C326.753 695.152 326.548 694.735 326.268 694.37C325.988 694.005 325.639 693.699 325.241 693.469C324.843 693.239 324.403 693.09 323.947 693.03C323.491 692.97 323.028 693.001 322.584 693.12L308.096 697.004C307.25 697.231 306.52 697.766 306.05 698.505C305.58 699.244 305.403 700.132 305.556 700.994L305.62 701.29L309.504 715.778C309.686 716.459 310.069 717.069 310.604 717.528C311.139 717.987 311.799 718.274 312.5 718.352V721.364C311.199 721.286 309.952 720.82 308.92 720.026C307.888 719.231 307.118 718.145 306.71 716.908L306.606 716.556L302.724 702.066C302.294 700.463 302.494 698.756 303.282 697.295C304.07 695.834 305.388 694.73 306.964 694.21L307.32 694.106L321.808 690.224C323.411 689.794 325.118 689.994 326.579 690.782C328.04 691.57 329.143 692.888 329.664 694.464V694.466Z" fill="#F81DFB"/>
<path d="M244.261 801.16V817H241.261V808.744L241.429 804.112H241.381L236.989 817H234.277L229.909 804.112H229.861L230.029 808.744V817H227.029V801.16H231.829L234.685 809.8L235.693 813.376H235.741L236.773 809.824L239.605 801.16H244.261ZM249.7 803.272C249.012 803.272 248.5 803.128 248.164 802.84C247.828 802.536 247.66 802.096 247.66 801.52C247.66 800.928 247.828 800.488 248.164 800.2C248.5 799.896 249.012 799.744 249.7 799.744C250.388 799.744 250.9 799.896 251.236 800.2C251.572 800.488 251.74 800.928 251.74 801.52C251.74 802.096 251.572 802.536 251.236 802.84C250.9 803.128 250.388 803.272 249.7 803.272ZM251.332 805V817H248.044V805H251.332ZM254.818 817V805H257.77L257.962 808.6L257.554 808.216C257.746 807.432 258.05 806.784 258.466 806.272C258.882 805.76 259.386 805.384 259.978 805.144C260.586 804.888 261.25 804.76 261.97 804.76C262.802 804.76 263.538 804.92 264.178 805.24C264.834 805.56 265.346 806.048 265.714 806.704C266.098 807.344 266.29 808.152 266.29 809.128V817H263.002V810.064C263.002 809.04 262.802 808.336 262.402 807.952C262.002 807.552 261.482 807.352 260.842 807.352C260.394 807.352 259.954 807.464 259.522 807.688C259.106 807.896 258.762 808.24 258.49 808.72C258.234 809.2 258.106 809.84 258.106 810.64V817H254.818ZM273.831 801.328V813.088C273.831 813.664 273.975 814.088 274.263 814.36C274.567 814.616 274.975 814.744 275.487 814.744C275.887 814.744 276.239 814.688 276.543 814.576C276.847 814.448 277.119 814.28 277.359 814.072L277.887 816.256C277.503 816.56 277.023 816.8 276.447 816.976C275.871 817.152 275.263 817.24 274.623 817.24C273.823 817.24 273.111 817.12 272.487 816.88C271.879 816.64 271.399 816.256 271.047 815.728C270.711 815.2 270.543 814.496 270.543 813.616V802.24L273.831 801.328ZM277.671 805V807.448H268.335V805H277.671ZM301.176 801.16V817H297.384L291.84 807.688L290.472 805.096H290.448L290.544 807.832V817H287.568V801.16H291.336L296.88 810.448L298.248 813.064H298.296L298.2 810.328V801.16H301.176ZM317.166 803.824H308.622V807.856H315.366V810.52H308.622V817H305.31V801.16H317.166V803.824ZM332.533 801.16V803.824H327.229V817H323.917V803.824H318.589V801.16H332.533ZM355.644 812.632C355.34 813.656 354.86 814.512 354.204 815.2C353.548 815.888 352.772 816.4 351.876 816.736C350.98 817.072 349.996 817.24 348.924 817.24C347.356 817.24 345.996 816.912 344.844 816.256C343.708 815.6 342.828 814.664 342.204 813.448C341.596 812.232 341.292 810.776 341.292 809.08C341.292 807.384 341.596 805.928 342.204 804.712C342.828 803.496 343.708 802.56 344.844 801.904C345.996 801.248 347.34 800.92 348.876 800.92C349.964 800.92 350.948 801.072 351.828 801.376C352.708 801.664 353.452 802.112 354.06 802.72C354.684 803.328 355.14 804.096 355.428 805.024L352.428 806.296C352.156 805.336 351.74 804.656 351.18 804.256C350.62 803.84 349.9 803.632 349.02 803.632C348.156 803.632 347.396 803.84 346.74 804.256C346.1 804.672 345.604 805.288 345.252 806.104C344.9 806.904 344.724 807.896 344.724 809.08C344.724 810.248 344.884 811.24 345.204 812.056C345.54 812.872 346.028 813.488 346.668 813.904C347.308 814.32 348.092 814.528 349.02 814.528C349.884 814.528 350.628 814.296 351.252 813.832C351.892 813.368 352.34 812.664 352.596 811.72L355.644 812.632ZM363.602 804.76C364.818 804.76 365.882 805.008 366.794 805.504C367.722 806 368.442 806.712 368.954 807.64C369.482 808.568 369.746 809.688 369.746 811C369.746 812.296 369.482 813.416 368.954 814.36C368.442 815.288 367.722 816 366.794 816.496C365.882 816.992 364.818 817.24 363.602 817.24C362.402 817.24 361.338 816.992 360.41 816.496C359.482 816 358.754 815.288 358.226 814.36C357.714 813.416 357.458 812.296 357.458 811C357.458 809.688 357.714 808.568 358.226 807.64C358.754 806.712 359.482 806 360.41 805.504C361.338 805.008 362.402 804.76 363.602 804.76ZM363.602 807.208C362.994 807.208 362.474 807.352 362.042 807.64C361.626 807.912 361.306 808.328 361.082 808.888C360.858 809.448 360.746 810.152 360.746 811C360.746 811.848 360.858 812.552 361.082 813.112C361.306 813.672 361.626 814.096 362.042 814.384C362.474 814.656 362.994 814.792 363.602 814.792C364.194 814.792 364.698 814.656 365.114 814.384C365.546 814.096 365.874 813.672 366.098 813.112C366.322 812.552 366.434 811.848 366.434 811C366.434 810.152 366.322 809.448 366.098 808.888C365.874 808.328 365.546 807.912 365.114 807.64C364.698 807.352 364.194 807.208 363.602 807.208ZM380.229 805H383.637L379.077 817H375.285L370.725 805H374.229L377.205 814.48L380.229 805ZM390.886 817.24C389.622 817.24 388.518 816.992 387.574 816.496C386.646 816 385.926 815.288 385.414 814.36C384.902 813.432 384.646 812.312 384.646 811C384.646 809.688 384.902 808.568 385.414 807.64C385.926 806.712 386.638 806 387.55 805.504C388.478 805.008 389.534 804.76 390.718 804.76C391.934 804.76 392.966 805.008 393.814 805.504C394.662 805.984 395.31 806.648 395.758 807.496C396.206 808.328 396.43 809.28 396.43 810.352C396.43 810.672 396.422 810.976 396.406 811.264C396.39 811.552 396.366 811.808 396.334 812.032H386.758V809.752H394.894L393.31 810.328C393.31 809.32 393.078 808.544 392.614 808C392.166 807.456 391.526 807.184 390.694 807.184C390.086 807.184 389.558 807.328 389.11 807.616C388.678 807.904 388.35 808.336 388.126 808.912C387.902 809.472 387.79 810.184 387.79 811.048C387.79 811.896 387.91 812.6 388.15 813.16C388.406 813.704 388.758 814.112 389.206 814.384C389.67 814.656 390.222 814.792 390.862 814.792C391.566 814.792 392.134 814.656 392.566 814.384C392.998 814.112 393.334 813.736 393.574 813.256L396.19 814.264C395.934 814.888 395.542 815.424 395.014 815.872C394.502 816.32 393.886 816.664 393.166 816.904C392.462 817.128 391.702 817.24 390.886 817.24ZM399.216 817V805H402.072L402.288 807.352C402.608 806.52 403.072 805.88 403.68 805.432C404.304 804.984 405.08 804.76 406.008 804.76C406.28 804.76 406.528 804.784 406.752 804.832C406.976 804.88 407.16 804.944 407.304 805.024L406.92 807.784C406.76 807.72 406.56 807.672 406.32 807.64C406.096 807.608 405.8 807.592 405.432 807.592C404.952 807.592 404.488 807.712 404.04 807.952C403.592 808.176 403.224 808.528 402.936 809.008C402.648 809.472 402.504 810.064 402.504 810.784V817H399.216ZM413.813 817.24C412.597 817.24 411.485 817.024 410.477 816.592C409.485 816.16 408.677 815.552 408.053 814.768L409.949 812.848C410.333 813.424 410.845 813.896 411.485 814.264C412.125 814.632 412.885 814.816 413.765 814.816C414.389 814.816 414.885 814.728 415.253 814.552C415.637 814.36 415.829 814.064 415.829 813.664C415.829 813.408 415.741 813.192 415.565 813.016C415.389 812.824 415.037 812.672 414.509 812.56L412.397 812.128C411.005 811.84 410.013 811.408 409.421 810.832C408.845 810.24 408.557 809.48 408.557 808.552C408.557 807.896 408.749 807.28 409.133 806.704C409.533 806.128 410.125 805.664 410.909 805.312C411.693 804.944 412.669 804.76 413.837 804.76C415.037 804.76 416.077 804.952 416.957 805.336C417.853 805.704 418.557 806.256 419.069 806.992L417.101 808.912C416.749 808.352 416.285 807.928 415.709 807.64C415.149 807.336 414.557 807.184 413.933 807.184C413.485 807.184 413.101 807.232 412.781 807.328C412.461 807.424 412.221 807.56 412.061 807.736C411.901 807.896 411.821 808.104 411.821 808.36C411.821 808.616 411.933 808.84 412.157 809.032C412.381 809.208 412.789 809.36 413.381 809.488L415.829 809.992C417.013 810.232 417.861 810.64 418.373 811.216C418.885 811.776 419.141 812.456 419.141 813.256C419.141 814.024 418.933 814.712 418.517 815.32C418.117 815.912 417.517 816.384 416.717 816.736C415.933 817.072 414.965 817.24 413.813 817.24ZM278.97 829.16C280.186 829.16 281.226 829.368 282.09 829.784C282.954 830.184 283.618 830.768 284.082 831.536C284.562 832.288 284.802 833.2 284.802 834.272C284.802 835.344 284.562 836.264 284.082 837.032C283.618 837.784 282.954 838.368 282.09 838.784C281.226 839.184 280.186 839.384 278.97 839.384H275.634V845H272.322V829.16H278.97ZM278.466 836.768C279.458 836.768 280.202 836.56 280.698 836.144C281.194 835.712 281.442 835.088 281.442 834.272C281.442 833.44 281.194 832.816 280.698 832.4C280.202 831.984 279.458 831.776 278.466 831.776H275.634V836.768H278.466ZM292.765 845.24C291.501 845.24 290.397 844.992 289.453 844.496C288.525 844 287.805 843.288 287.293 842.36C286.781 841.432 286.525 840.312 286.525 839C286.525 837.688 286.781 836.568 287.293 835.64C287.805 834.712 288.517 834 289.429 833.504C290.357 833.008 291.413 832.76 292.597 832.76C293.813 832.76 294.845 833.008 295.693 833.504C296.541 833.984 297.189 834.648 297.637 835.496C298.085 836.328 298.309 837.28 298.309 838.352C298.309 838.672 298.301 838.976 298.285 839.264C298.269 839.552 298.245 839.808 298.213 840.032H288.637V837.752H296.773L295.189 838.328C295.189 837.32 294.957 836.544 294.493 836C294.045 835.456 293.405 835.184 292.573 835.184C291.965 835.184 291.437 835.328 290.989 835.616C290.557 835.904 290.229 836.336 290.005 836.912C289.781 837.472 289.669 838.184 289.669 839.048C289.669 839.896 289.789 840.6 290.029 841.16C290.285 841.704 290.637 842.112 291.085 842.384C291.549 842.656 292.101 842.792 292.741 842.792C293.445 842.792 294.013 842.656 294.445 842.384C294.877 842.112 295.213 841.736 295.453 841.256L298.069 842.264C297.813 842.888 297.421 843.424 296.893 843.872C296.381 844.32 295.765 844.664 295.045 844.904C294.341 845.128 293.581 845.24 292.765 845.24ZM301.095 845V833H303.951L304.167 835.352C304.487 834.52 304.951 833.88 305.559 833.432C306.183 832.984 306.959 832.76 307.887 832.76C308.159 832.76 308.407 832.784 308.631 832.832C308.855 832.88 309.039 832.944 309.183 833.024L308.799 835.784C308.639 835.72 308.439 835.672 308.199 835.64C307.975 835.608 307.679 835.592 307.311 835.592C306.831 835.592 306.367 835.712 305.919 835.952C305.471 836.176 305.103 836.528 304.815 837.008C304.527 837.472 304.383 838.064 304.383 838.784V845H301.095ZM332.007 840.632C331.703 841.656 331.223 842.512 330.567 843.2C329.911 843.888 329.135 844.4 328.239 844.736C327.343 845.072 326.359 845.24 325.287 845.24C323.719 845.24 322.359 844.912 321.207 844.256C320.071 843.6 319.191 842.664 318.567 841.448C317.959 840.232 317.655 838.776 317.655 837.08C317.655 835.384 317.959 833.928 318.567 832.712C319.191 831.496 320.071 830.56 321.207 829.904C322.359 829.248 323.703 828.92 325.239 828.92C326.327 828.92 327.311 829.072 328.191 829.376C329.071 829.664 329.815 830.112 330.423 830.72C331.047 831.328 331.503 832.096 331.791 833.024L328.791 834.296C328.519 833.336 328.103 832.656 327.543 832.256C326.983 831.84 326.263 831.632 325.383 831.632C324.519 831.632 323.759 831.84 323.103 832.256C322.463 832.672 321.967 833.288 321.615 834.104C321.263 834.904 321.087 835.896 321.087 837.08C321.087 838.248 321.247 839.24 321.567 840.056C321.903 840.872 322.391 841.488 323.031 841.904C323.671 842.32 324.455 842.528 325.383 842.528C326.247 842.528 326.991 842.296 327.615 841.832C328.255 841.368 328.703 840.664 328.959 839.72L332.007 840.632ZM339.966 832.76C341.182 832.76 342.246 833.008 343.158 833.504C344.086 834 344.806 834.712 345.318 835.64C345.846 836.568 346.11 837.688 346.11 839C346.11 840.296 345.846 841.416 345.318 842.36C344.806 843.288 344.086 844 343.158 844.496C342.246 844.992 341.182 845.24 339.966 845.24C338.766 845.24 337.702 844.992 336.774 844.496C335.846 844 335.118 843.288 334.59 842.36C334.078 841.416 333.822 840.296 333.822 839C333.822 837.688 334.078 836.568 334.59 835.64C335.118 834.712 335.846 834 336.774 833.504C337.702 833.008 338.766 832.76 339.966 832.76ZM339.966 835.208C339.358 835.208 338.838 835.352 338.406 835.64C337.99 835.912 337.67 836.328 337.446 836.888C337.222 837.448 337.11 838.152 337.11 839C337.11 839.848 337.222 840.552 337.446 841.112C337.67 841.672 337.99 842.096 338.406 842.384C338.838 842.656 339.358 842.792 339.966 842.792C340.558 842.792 341.062 842.656 341.478 842.384C341.91 842.096 342.238 841.672 342.462 841.112C342.686 840.552 342.798 839.848 342.798 839C342.798 838.152 342.686 837.448 342.462 836.888C342.238 836.328 341.91 835.912 341.478 835.64C341.062 835.352 340.558 835.208 339.966 835.208ZM348.861 850.04V833H351.813L352.029 836.816L351.621 836.384C351.765 835.68 352.029 835.056 352.413 834.512C352.813 833.968 353.317 833.544 353.925 833.24C354.533 832.92 355.213 832.76 355.965 832.76C356.941 832.76 357.813 833.008 358.581 833.504C359.349 834 359.949 834.712 360.381 835.64C360.829 836.552 361.053 837.664 361.053 838.976C361.053 840.288 360.829 841.416 360.381 842.36C359.933 843.288 359.317 844 358.533 844.496C357.765 844.992 356.885 845.24 355.893 845.24C354.837 845.24 353.957 844.944 353.253 844.352C352.565 843.76 352.093 843.016 351.837 842.12L352.149 841.616V850.04H348.861ZM354.933 842.72C355.813 842.72 356.501 842.408 356.997 841.784C357.509 841.144 357.765 840.216 357.765 839C357.765 837.784 357.517 836.864 357.021 836.24C356.541 835.6 355.861 835.28 354.981 835.28C354.421 835.28 353.925 835.432 353.493 835.736C353.077 836.024 352.749 836.448 352.509 837.008C352.269 837.552 352.149 838.216 352.149 839C352.149 839.768 352.261 840.432 352.485 840.992C352.709 841.552 353.029 841.984 353.445 842.288C353.877 842.576 354.373 842.72 354.933 842.72ZM374.649 833L369.801 845.744C369.417 846.832 368.985 847.696 368.505 848.336C368.041 848.976 367.497 849.44 366.873 849.728C366.265 850.016 365.537 850.16 364.689 850.16C364.065 850.16 363.489 850.08 362.961 849.92C362.449 849.776 362.001 849.584 361.617 849.344L362.313 846.968C362.617 847.208 362.937 847.376 363.273 847.472C363.609 847.584 363.993 847.64 364.425 847.64C364.873 847.64 365.257 847.544 365.577 847.352C365.913 847.16 366.193 846.776 366.417 846.2L366.825 845.168L365.505 842.048L361.833 833H365.481L367.761 840.2L368.385 842.6L369.129 840.056L371.313 833H374.649Z" fill="white"/>
<g filter="url(#filter3_b_234_1351)">
<circle cx="95.5" cy="1104" r="53" fill="url(#paint3_linear_234_1351)"/>
</g>
<path d="M112.5 1094L95.5 1084L78.5 1094V1114L95.5 1124L112.5 1114V1094Z" stroke="#F81DFB" stroke-width="3" stroke-linejoin="round"/>
<path d="M95.5 1102V1110" stroke="#F81DFB" stroke-width="3" stroke-linecap="round" stroke-linejoin="round"/>
<path d="M103.5 1098V1110" stroke="#F81DFB" stroke-width="3" stroke-linecap="round" stroke-linejoin="round"/>
<path d="M87.5 1106V1110" stroke="#F81DFB" stroke-width="3" stroke-linecap="round" stroke-linejoin="round"/>
<path d="M42.1299 1208.34H50.4819V1211H38.8179V1195.16H42.1299V1208.34ZM54.552 1197.27C53.864 1197.27 53.352 1197.13 53.016 1196.84C52.68 1196.54 52.512 1196.1 52.512 1195.52C52.512 1194.93 52.68 1194.49 53.016 1194.2C53.352 1193.9 53.864 1193.74 54.552 1193.74C55.24 1193.74 55.752 1193.9 56.088 1194.2C56.424 1194.49 56.592 1194.93 56.592 1195.52C56.592 1196.1 56.424 1196.54 56.088 1196.84C55.752 1197.13 55.24 1197.27 54.552 1197.27ZM56.184 1199V1211H52.896V1199H56.184ZM64.4694 1211.24C63.2534 1211.24 62.1414 1211.02 61.1334 1210.59C60.1414 1210.16 59.3334 1209.55 58.7094 1208.77L60.6054 1206.85C60.9894 1207.42 61.5014 1207.9 62.1414 1208.26C62.7814 1208.63 63.5414 1208.82 64.4214 1208.82C65.0454 1208.82 65.5414 1208.73 65.9094 1208.55C66.2934 1208.36 66.4854 1208.06 66.4854 1207.66C66.4854 1207.41 66.3974 1207.19 66.2214 1207.02C66.0454 1206.82 65.6934 1206.67 65.1654 1206.56L63.0534 1206.13C61.6614 1205.84 60.6694 1205.41 60.0774 1204.83C59.5014 1204.24 59.2134 1203.48 59.2134 1202.55C59.2134 1201.9 59.4054 1201.28 59.7894 1200.7C60.1894 1200.13 60.7814 1199.66 61.5654 1199.31C62.3494 1198.94 63.3254 1198.76 64.4934 1198.76C65.6934 1198.76 66.7334 1198.95 67.6134 1199.34C68.5094 1199.7 69.2134 1200.26 69.7254 1200.99L67.7574 1202.91C67.4054 1202.35 66.9414 1201.93 66.3654 1201.64C65.8054 1201.34 65.2134 1201.18 64.5894 1201.18C64.1414 1201.18 63.7574 1201.23 63.4374 1201.33C63.1174 1201.42 62.8774 1201.56 62.7174 1201.74C62.5574 1201.9 62.4774 1202.1 62.4774 1202.36C62.4774 1202.62 62.5894 1202.84 62.8134 1203.03C63.0374 1203.21 63.4454 1203.36 64.0374 1203.49L66.4854 1203.99C67.6694 1204.23 68.5174 1204.64 69.0294 1205.22C69.5414 1205.78 69.7974 1206.46 69.7974 1207.26C69.7974 1208.02 69.5894 1208.71 69.1734 1209.32C68.7734 1209.91 68.1734 1210.38 67.3734 1210.74C66.5894 1211.07 65.6214 1211.24 64.4694 1211.24ZM76.6674 1195.33V1207.09C76.6674 1207.66 76.8114 1208.09 77.0994 1208.36C77.4034 1208.62 77.8114 1208.74 78.3234 1208.74C78.7234 1208.74 79.0754 1208.69 79.3794 1208.58C79.6834 1208.45 79.9554 1208.28 80.1954 1208.07L80.7234 1210.26C80.3394 1210.56 79.8594 1210.8 79.2834 1210.98C78.7074 1211.15 78.0994 1211.24 77.4594 1211.24C76.6594 1211.24 75.9474 1211.12 75.3234 1210.88C74.7154 1210.64 74.2354 1210.26 73.8834 1209.73C73.5474 1209.2 73.3794 1208.5 73.3794 1207.62V1196.24L76.6674 1195.33ZM80.5074 1199V1201.45H71.1714V1199H80.5074ZM102.44 1195.16V1197.82H97.1357V1211H93.8237V1197.82H88.4957V1195.16H102.44ZM104.529 1211V1193.74H107.817V1201.04C108.201 1200.27 108.729 1199.7 109.401 1199.34C110.073 1198.95 110.833 1198.76 111.681 1198.76C112.513 1198.76 113.249 1198.92 113.889 1199.24C114.545 1199.56 115.057 1200.05 115.425 1200.7C115.809 1201.34 116.001 1202.15 116.001 1203.13V1211H112.713V1204.09C112.713 1203.05 112.513 1202.34 112.113 1201.95C111.713 1201.55 111.201 1201.35 110.577 1201.35C110.113 1201.35 109.665 1201.46 109.233 1201.69C108.817 1201.9 108.473 1202.25 108.201 1202.74C107.945 1203.22 107.817 1203.86 107.817 1204.66V1211H104.529ZM124.956 1211.24C123.692 1211.24 122.588 1210.99 121.644 1210.5C120.716 1210 119.996 1209.29 119.484 1208.36C118.972 1207.43 118.716 1206.31 118.716 1205C118.716 1203.69 118.972 1202.57 119.484 1201.64C119.996 1200.71 120.708 1200 121.62 1199.5C122.548 1199.01 123.604 1198.76 124.788 1198.76C126.004 1198.76 127.036 1199.01 127.884 1199.5C128.732 1199.98 129.38 1200.65 129.828 1201.5C130.276 1202.33 130.5 1203.28 130.5 1204.35C130.5 1204.67 130.492 1204.98 130.476 1205.26C130.46 1205.55 130.436 1205.81 130.404 1206.03H120.828V1203.75H128.964L127.38 1204.33C127.38 1203.32 127.148 1202.54 126.684 1202C126.236 1201.46 125.596 1201.18 124.764 1201.18C124.156 1201.18 123.628 1201.33 123.18 1201.62C122.748 1201.9 122.42 1202.34 122.196 1202.91C121.972 1203.47 121.86 1204.18 121.86 1205.05C121.86 1205.9 121.98 1206.6 122.22 1207.16C122.476 1207.7 122.828 1208.11 123.276 1208.38C123.74 1208.66 124.292 1208.79 124.932 1208.79C125.636 1208.79 126.204 1208.66 126.636 1208.38C127.068 1208.11 127.404 1207.74 127.644 1207.26L130.26 1208.26C130.004 1208.89 129.612 1209.42 129.084 1209.87C128.572 1210.32 127.956 1210.66 127.236 1210.9C126.532 1211.13 125.772 1211.24 124.956 1211.24ZM133.287 1211V1199H136.239L136.359 1201.16C136.759 1200.36 137.303 1199.76 137.991 1199.36C138.695 1198.96 139.471 1198.76 140.319 1198.76C141.183 1198.76 141.959 1198.96 142.647 1199.36C143.351 1199.76 143.879 1200.35 144.231 1201.14C144.487 1200.61 144.831 1200.17 145.263 1199.82C145.695 1199.46 146.175 1199.2 146.703 1199.02C147.231 1198.85 147.767 1198.76 148.311 1198.76C149.095 1198.76 149.807 1198.92 150.447 1199.24C151.103 1199.56 151.623 1200.04 152.007 1200.68C152.391 1201.32 152.583 1202.14 152.583 1203.13V1211H149.295V1203.78C149.295 1202.9 149.103 1202.27 148.719 1201.9C148.335 1201.54 147.839 1201.35 147.231 1201.35C146.751 1201.35 146.303 1201.47 145.887 1201.71C145.487 1201.95 145.167 1202.31 144.927 1202.79C144.703 1203.26 144.591 1203.84 144.591 1204.54V1211H141.303V1203.78C141.303 1202.9 141.103 1202.27 140.703 1201.9C140.319 1201.54 139.823 1201.35 139.215 1201.35C138.799 1201.35 138.383 1201.46 137.967 1201.69C137.567 1201.91 137.231 1202.26 136.959 1202.74C136.703 1203.22 136.575 1203.86 136.575 1204.64V1211H133.287ZM61.6661 1225.82H53.1221V1229.86H59.8661V1232.52H53.1221V1239H49.8101V1223.16H61.6661V1225.82ZM68.4227 1226.76C69.6387 1226.76 70.7027 1227.01 71.6147 1227.5C72.5427 1228 73.2627 1228.71 73.7747 1229.64C74.3027 1230.57 74.5667 1231.69 74.5667 1233C74.5667 1234.3 74.3027 1235.42 73.7747 1236.36C73.2627 1237.29 72.5427 1238 71.6147 1238.5C70.7027 1238.99 69.6387 1239.24 68.4227 1239.24C67.2227 1239.24 66.1587 1238.99 65.2307 1238.5C64.3027 1238 63.5747 1237.29 63.0467 1236.36C62.5347 1235.42 62.2787 1234.3 62.2787 1233C62.2787 1231.69 62.5347 1230.57 63.0467 1229.64C63.5747 1228.71 64.3027 1228 65.2307 1227.5C66.1587 1227.01 67.2227 1226.76 68.4227 1226.76ZM68.4227 1229.21C67.8147 1229.21 67.2947 1229.35 66.8627 1229.64C66.4467 1229.91 66.1267 1230.33 65.9027 1230.89C65.6787 1231.45 65.5667 1232.15 65.5667 1233C65.5667 1233.85 65.6787 1234.55 65.9027 1235.11C66.1267 1235.67 66.4467 1236.1 66.8627 1236.38C67.2947 1236.66 67.8147 1236.79 68.4227 1236.79C69.0147 1236.79 69.5187 1236.66 69.9347 1236.38C70.3667 1236.1 70.6947 1235.67 70.9187 1235.11C71.1427 1234.55 71.2547 1233.85 71.2547 1233C71.2547 1232.15 71.1427 1231.45 70.9187 1230.89C70.6947 1230.33 70.3667 1229.91 69.9347 1229.64C69.5187 1229.35 69.0147 1229.21 68.4227 1229.21ZM77.3178 1239V1227H80.1738L80.3898 1229.35C80.7098 1228.52 81.1738 1227.88 81.7818 1227.43C82.4058 1226.98 83.1818 1226.76 84.1098 1226.76C84.3818 1226.76 84.6298 1226.78 84.8538 1226.83C85.0778 1226.88 85.2618 1226.94 85.4058 1227.02L85.0218 1229.78C84.8618 1229.72 84.6618 1229.67 84.4218 1229.64C84.1978 1229.61 83.9018 1229.59 83.5338 1229.59C83.0538 1229.59 82.5898 1229.71 82.1418 1229.95C81.6938 1230.18 81.3258 1230.53 81.0378 1231.01C80.7498 1231.47 80.6058 1232.06 80.6058 1232.78V1239H77.3178ZM100.453 1222.92C101.893 1222.92 103.157 1223.17 104.245 1223.66C105.333 1224.16 106.261 1224.9 107.029 1225.87L105.181 1228.01C104.525 1227.18 103.805 1226.57 103.021 1226.18C102.253 1225.78 101.357 1225.58 100.333 1225.58C99.6615 1225.58 99.1015 1225.67 98.6535 1225.85C98.2215 1226.02 97.9015 1226.26 97.6935 1226.54C97.5015 1226.83 97.4055 1227.15 97.4055 1227.5C97.4055 1227.94 97.5735 1228.3 97.9095 1228.61C98.2455 1228.9 98.8215 1229.14 99.6375 1229.33L102.589 1230C104.157 1230.35 105.277 1230.88 105.949 1231.58C106.637 1232.27 106.981 1233.17 106.981 1234.27C106.981 1235.31 106.709 1236.21 106.165 1236.96C105.621 1237.7 104.861 1238.26 103.885 1238.66C102.909 1239.05 101.789 1239.24 100.525 1239.24C99.4215 1239.24 98.4055 1239.11 97.4775 1238.86C96.5655 1238.58 95.7495 1238.22 95.0295 1237.75C94.3095 1237.29 93.7095 1236.75 93.2295 1236.14L95.1015 1233.91C95.4695 1234.42 95.9255 1234.88 96.4695 1235.28C97.0135 1235.68 97.6295 1236 98.3175 1236.24C99.0215 1236.46 99.7575 1236.58 100.525 1236.58C101.181 1236.58 101.733 1236.5 102.181 1236.36C102.645 1236.2 102.989 1235.98 103.213 1235.71C103.453 1235.42 103.573 1235.08 103.573 1234.68C103.573 1234.26 103.429 1233.91 103.141 1233.62C102.869 1233.32 102.357 1233.09 101.605 1232.93L98.3895 1232.21C97.4615 1231.98 96.6615 1231.7 95.9895 1231.34C95.3335 1230.98 94.8295 1230.51 94.4775 1229.95C94.1415 1229.38 93.9735 1228.7 93.9735 1227.91C93.9735 1226.97 94.2295 1226.12 94.7415 1225.37C95.2535 1224.62 95.9895 1224.02 96.9495 1223.59C97.9255 1223.14 99.0935 1222.92 100.453 1222.92ZM116.478 1231.34C116.478 1230.66 116.278 1230.12 115.878 1229.74C115.494 1229.35 114.982 1229.16 114.342 1229.16C113.75 1229.16 113.23 1229.31 112.782 1229.62C112.334 1229.92 112.006 1230.42 111.798 1231.13L108.99 1230.26C109.262 1229.21 109.854 1228.36 110.766 1227.72C111.694 1227.08 112.934 1226.76 114.486 1226.76C115.542 1226.76 116.462 1226.93 117.246 1227.26C118.03 1227.58 118.638 1228.07 119.07 1228.73C119.518 1229.38 119.742 1230.21 119.742 1231.2V1236.07C119.742 1236.68 120.03 1236.98 120.606 1236.98C120.878 1236.98 121.134 1236.94 121.374 1236.86L121.182 1238.9C120.766 1239.11 120.246 1239.22 119.622 1239.22C119.062 1239.22 118.558 1239.12 118.11 1238.93C117.662 1238.74 117.31 1238.45 117.054 1238.06C116.798 1237.66 116.67 1237.17 116.67 1236.58V1236.48L117.246 1236.38C117.15 1236.99 116.886 1237.51 116.454 1237.94C116.022 1238.36 115.494 1238.68 114.87 1238.9C114.262 1239.13 113.63 1239.24 112.974 1239.24C112.158 1239.24 111.454 1239.12 110.862 1238.88C110.27 1238.62 109.814 1238.26 109.494 1237.78C109.174 1237.3 109.014 1236.7 109.014 1236C109.014 1235.1 109.302 1234.38 109.878 1233.82C110.454 1233.24 111.278 1232.85 112.35 1232.64L116.862 1231.73L116.838 1233.77L113.958 1234.34C113.414 1234.46 112.998 1234.61 112.71 1234.8C112.438 1234.98 112.302 1235.27 112.302 1235.69C112.302 1236.09 112.446 1236.39 112.734 1236.6C113.038 1236.81 113.398 1236.91 113.814 1236.91C114.15 1236.91 114.478 1236.87 114.798 1236.79C115.118 1236.71 115.406 1236.58 115.662 1236.41C115.918 1236.23 116.118 1235.99 116.262 1235.69C116.406 1235.38 116.478 1235.02 116.478 1234.58V1231.34ZM126.659 1221.74V1235.3C126.659 1235.86 126.755 1236.26 126.947 1236.48C127.139 1236.7 127.459 1236.82 127.907 1236.82C128.179 1236.82 128.403 1236.8 128.579 1236.77C128.755 1236.72 128.979 1236.66 129.251 1236.58L128.963 1238.74C128.691 1238.9 128.347 1239.02 127.931 1239.1C127.531 1239.19 127.131 1239.24 126.731 1239.24C125.563 1239.24 124.707 1238.96 124.163 1238.4C123.635 1237.82 123.371 1236.91 123.371 1235.66V1221.74H126.659ZM136.651 1239.24C135.387 1239.24 134.283 1238.99 133.339 1238.5C132.411 1238 131.691 1237.29 131.179 1236.36C130.667 1235.43 130.411 1234.31 130.411 1233C130.411 1231.69 130.667 1230.57 131.179 1229.64C131.691 1228.71 132.403 1228 133.315 1227.5C134.243 1227.01 135.299 1226.76 136.483 1226.76C137.699 1226.76 138.731 1227.01 139.579 1227.5C140.427 1227.98 141.075 1228.65 141.523 1229.5C141.971 1230.33 142.195 1231.28 142.195 1232.35C142.195 1232.67 142.187 1232.98 142.171 1233.26C142.155 1233.55 142.131 1233.81 142.099 1234.03H132.523V1231.75H140.659L139.075 1232.33C139.075 1231.32 138.843 1230.54 138.379 1230C137.931 1229.46 137.291 1229.18 136.459 1229.18C135.851 1229.18 135.323 1229.33 134.875 1229.62C134.443 1229.9 134.115 1230.34 133.891 1230.91C133.667 1231.47 133.555 1232.18 133.555 1233.05C133.555 1233.9 133.675 1234.6 133.915 1235.16C134.171 1235.7 134.523 1236.11 134.971 1236.38C135.435 1236.66 135.987 1236.79 136.627 1236.79C137.331 1236.79 137.899 1236.66 138.331 1236.38C138.763 1236.11 139.099 1235.74 139.339 1235.26L141.955 1236.26C141.699 1236.89 141.307 1237.42 140.779 1237.87C140.267 1238.32 139.651 1238.66 138.931 1238.9C138.227 1239.13 137.467 1239.24 136.651 1239.24Z" fill="white"/>
</g>
<defs>
<filter id="filter0_b_234_1351" x="35.5" y="-20" width="146" height="146" filterUnits="userSpaceOnUse" color-interpolation-filters="sRGB">
<feFlood flood-opacity="0" result="BackgroundImageFix"/>
<feGaussianBlur in="BackgroundImageFix" stdDeviation="10"/>
<feComposite in2="SourceAlpha" operator="in" result="effect1_backgroundBlur_234_1351"/>
<feBlend mode="normal" in="SourceGraphic" in2="effect1_backgroundBlur_234_1351" result="shape"/>
</filter>
<filter id="filter1_b_234_1351" x="57.5" y="252" width="146" height="146" filterUnits="userSpaceOnUse" color-interpolation-filters="sRGB">
<feFlood flood-opacity="0" result="BackgroundImageFix"/>
<feGaussianBlur in="BackgroundImageFix" stdDeviation="10"/>
<feComposite in2="SourceAlpha" operator="in" result="effect1_backgroundBlur_234_1351"/>
<feBlend mode="normal" in="SourceGraphic" in2="effect1_backgroundBlur_234_1351" result="shape"/>
</filter>
<filter id="filter2_b_234_1351" x="249.5" y="637" width="146" height="146" filterUnits="userSpaceOnUse" color-interpolation-filters="sRGB">
<feFlood flood-opacity="0" result="BackgroundImageFix"/>
<feGaussianBlur in="BackgroundImageFix" stdDeviation="10"/>
<feComposite in2="SourceAlpha" operator="in" result="effect1_backgroundBlur_234_1351"/>
<feBlend mode="normal" in="SourceGraphic" in2="effect1_backgroundBlur_234_1351" result="shape"/>
</filter>
<filter id="filter3_b_234_1351" x="22.5" y="1031" width="146" height="146" filterUnits="userSpaceOnUse" color-interpolation-filters="sRGB">
<feFlood flood-opacity="0" result="BackgroundImageFix"/>
<feGaussianBlur in="BackgroundImageFix" stdDeviation="10"/>
<feComposite in2="SourceAlpha" operator="in" result="effect1_backgroundBlur_234_1351"/>
<feBlend mode="normal" in="SourceGraphic" in2="effect1_backgroundBlur_234_1351" result="shape"/>
</filter>
<linearGradient id="paint0_linear_234_1351" x1="55.5" y1="0" x2="133.525" y2="123.652" gradientUnits="userSpaceOnUse">
<stop stop-color="white" stop-opacity="0.1"/>
<stop offset="1" stop-color="white" stop-opacity="0.05"/>
</linearGradient>
<linearGradient id="paint1_linear_234_1351" x1="77.5" y1="272" x2="155.525" y2="395.652" gradientUnits="userSpaceOnUse">
<stop stop-color="white" stop-opacity="0.1"/>
<stop offset="1" stop-color="white" stop-opacity="0.05"/>
</linearGradient>
<linearGradient id="paint2_linear_234_1351" x1="269.5" y1="657" x2="347.525" y2="780.652" gradientUnits="userSpaceOnUse">
<stop stop-color="white" stop-opacity="0.1"/>
<stop offset="1" stop-color="white" stop-opacity="0.05"/>
</linearGradient>
<linearGradient id="paint3_linear_234_1351" x1="42.5" y1="1051" x2="120.525" y2="1174.65" gradientUnits="userSpaceOnUse">
<stop stop-color="white" stop-opacity="0.1"/>
<stop offset="1" stop-color="white" stop-opacity="0.05"/>
</linearGradient>
<clipPath id="clip0_234_1351">
<rect width="473" height="1545" fill="white"/>
</clipPath>
<clipPath id="clip1_234_1351">
<rect width="48" height="48" fill="white" transform="translate(106.5 301)"/>
</clipPath>
</defs>
</svg>
