<svg width="261" height="70" viewBox="0 0 261 70" fill="none" xmlns="http://www.w3.org/2000/svg">
<path d="M7.87891 0H18.384V8.09255V61.5034V69.596H7.87891V61.5034H13.1314V8.09255H7.87891V0Z" fill="url(#paint0_linear_2_5053)"/>
<rect y="13.1328" width="5.25253" height="44.6465" fill="#AD1AAF"/>
<rect width="224" height="70" transform="translate(18.3848)" fill="#AD1AAF"/>
<path d="M85.9523 37.524V29.296C85.9523 26.9787 87.1037 25.82 89.4063 25.82H95.5223L96.6443 26.7V27.844H89.4283C88.5923 27.844 88.1743 28.2547 88.1743 29.076V37.744C88.1743 38.5653 88.5923 38.976 89.4283 38.976H96.6443V40.12L95.5223 41H89.4063C87.1037 41 85.9523 39.8413 85.9523 37.524ZM99.29 37.612V32.882C99.29 30.638 100.412 29.516 102.656 29.516H105.736C107.98 29.516 109.102 30.638 109.102 32.882V37.612C109.102 39.8707 107.98 41 105.736 41H102.656C100.412 41 99.29 39.8707 99.29 37.612ZM101.424 37.832C101.424 38.6973 101.857 39.13 102.722 39.13H105.692C106.543 39.13 106.968 38.6973 106.968 37.832V32.662C106.968 31.8113 106.543 31.386 105.692 31.386H102.722C101.857 31.386 101.424 31.8113 101.424 32.662V37.832ZM112.357 41V29.516H118.583C120.827 29.516 121.949 30.638 121.949 32.882V41H119.815V32.662C119.815 31.8113 119.389 31.386 118.539 31.386H114.491V41H112.357ZM125.202 37.612V25.82H127.336V29.516H131.406V31.386H127.336V37.832C127.336 38.6973 127.769 39.13 128.634 39.13H131.626V40.252L130.614 41H128.568C126.324 41 125.202 39.8707 125.202 37.612ZM134.054 27.448V25.116H136.342V27.448H134.054ZM134.142 41V29.516H136.276V41H134.142ZM139.706 41V29.516H145.932C148.176 29.516 149.298 30.638 149.298 32.882V41H147.164V32.662C147.164 31.8113 146.739 31.386 145.888 31.386H141.84V41H139.706ZM152.552 37.612V29.516H154.686V37.832C154.686 38.6973 155.118 39.13 155.984 39.13H160.01V29.516H162.144V41H155.918C153.674 41 152.552 39.8707 152.552 37.612ZM165.397 37.612V32.882C165.397 30.638 166.519 29.516 168.763 29.516H171.623C173.867 29.516 174.989 30.638 174.989 32.882V36.05H167.531V37.832C167.531 38.6973 167.964 39.13 168.829 39.13H174.549V40.252L173.559 41H168.763C166.519 41 165.397 39.8707 165.397 37.612ZM167.531 34.378H172.855V32.662C172.855 31.8113 172.43 31.386 171.579 31.386H168.829C167.964 31.386 167.531 31.8113 167.531 32.662V34.378Z" fill="white"/>
<path d="M252.889 0H242.384V8.09255V61.5034V69.596H252.889V61.5034H247.636V8.09255H252.889V0Z" fill="url(#paint1_linear_2_5053)"/>
<rect width="5.25253" height="42.0202" transform="matrix(-1 0 0 1 260.768 14.4453)" fill="#AD1AAF"/>
<defs>
<linearGradient id="paint0_linear_2_5053" x1="44.6466" y1="6.47402" x2="258.853" y2="48.8354" gradientUnits="userSpaceOnUse">
<stop stop-color="#AD1AAF"/>
<stop offset="0.619792" stop-color="#AD1AAF"/>
<stop offset="1" stop-color="#AD1AAF"/>
</linearGradient>
<linearGradient id="paint1_linear_2_5053" x1="216.121" y1="6.47402" x2="1.91433" y2="48.8354" gradientUnits="userSpaceOnUse">
<stop stop-color="#AD1AAF"/>
<stop offset="0.619792" stop-color="#AD1AAF"/>
<stop offset="1" stop-color="#AD1AAF"/>
</linearGradient>
</defs>
</svg>
